%TF.GenerationSoftware,Altium Limited,Altium Designer,18.1.7 (191)*%
G04 Layer_Color=16711935*
%FSLAX26Y26*%
%MOIN*%
%TF.FileFunction,Other,Bottom_Courtyard*%
%TF.Part,Single*%
G01*
G75*
%TA.AperFunction,NonConductor*%
%ADD108C,0.003937*%
%ADD176C,0.001968*%
D108*
X359764Y917638D02*
Y953071D01*
X342047Y935354D02*
X377480D01*
X1959448Y1711064D02*
Y1746496D01*
X1941732Y1728780D02*
X1977166D01*
X2406142Y1728189D02*
Y1753780D01*
X2393346Y1740984D02*
X2418937D01*
X2333268Y1731496D02*
Y1757087D01*
X2320472Y1744291D02*
X2346063D01*
X631673Y1111004D02*
X657264D01*
X644468Y1098209D02*
Y1123799D01*
X734095Y1064803D02*
X759685D01*
X746890Y1052008D02*
Y1077598D01*
X777953Y883346D02*
Y908937D01*
X765158Y896142D02*
X790748D01*
X634882Y931181D02*
Y956772D01*
X622087Y943976D02*
X647677D01*
X572559D02*
X598149D01*
X585354Y931181D02*
Y956772D01*
X533957Y1007579D02*
Y1033169D01*
X521161Y1020374D02*
X546752D01*
X2744173Y906417D02*
Y932008D01*
X2731378Y919213D02*
X2756968D01*
X2858268Y922795D02*
Y948386D01*
X2845472Y935591D02*
X2871063D01*
X2811693Y1099528D02*
X2837283D01*
X2824488Y1086732D02*
Y1112323D01*
X2724803Y1137874D02*
Y1163465D01*
X2712008Y1150669D02*
X2737598D01*
X2620709Y1036417D02*
Y1062008D01*
X2607913Y1049213D02*
X2633504D01*
X2627756Y919311D02*
X2653347D01*
X2640551Y906516D02*
Y932106D01*
X499764Y913150D02*
Y938740D01*
X486969Y925945D02*
X512559D01*
X2492717Y817579D02*
Y843169D01*
X2479921Y830374D02*
X2505512D01*
X2806457Y1147244D02*
Y1172835D01*
X2793661Y1160039D02*
X2819252D01*
X2603661Y1141851D02*
Y1167441D01*
X2590866Y1154646D02*
X2616457D01*
X587402Y1110433D02*
X612992D01*
X600197Y1097638D02*
Y1123228D01*
X685591Y966614D02*
X711181D01*
X698386Y953819D02*
Y979409D01*
X482795Y1209882D02*
X508386D01*
X495591Y1197087D02*
Y1222677D01*
X759842Y977480D02*
Y1003071D01*
X747047Y990276D02*
X772638D01*
X740551Y1117756D02*
Y1143346D01*
X727756Y1130551D02*
X753346D01*
X1840669Y1752244D02*
Y1787677D01*
X1822953Y1769961D02*
X1858386D01*
X1719646Y1752323D02*
Y1787756D01*
X1701929Y1770039D02*
X1737362D01*
X558111Y1099292D02*
Y1120944D01*
X547283Y1110118D02*
X568937D01*
X889448Y825314D02*
Y846968D01*
X878622Y836142D02*
X900276D01*
X443464Y1209960D02*
X465118D01*
X454292Y1199134D02*
Y1220788D01*
X801378Y979292D02*
Y1000944D01*
X790552Y990118D02*
X812204D01*
X698700Y914134D02*
Y935788D01*
X687874Y924960D02*
X709528D01*
X698740Y998386D02*
Y1020040D01*
X687914Y1009212D02*
X709566D01*
X2640472Y950314D02*
Y971968D01*
X2629646Y961142D02*
X2651300D01*
X2743818Y950138D02*
Y971792D01*
X2732992Y960964D02*
X2754646D01*
X2063937Y2283426D02*
Y2322796D01*
X2044251Y2303110D02*
X2083621D01*
X1959252Y2285394D02*
Y2320826D01*
X1941536Y2303110D02*
X1976968D01*
X1952992Y1935158D02*
Y1970590D01*
X1935276Y1952874D02*
X1970708D01*
X1902638Y2049094D02*
X1938070D01*
X1920354Y2031378D02*
Y2066812D01*
X1907126Y2199330D02*
X1942560D01*
X1924842Y2181614D02*
Y2217048D01*
X1752204Y2282520D02*
Y2317954D01*
X1734488Y2300236D02*
X1769920D01*
X1630316Y2331850D02*
X1665748D01*
X1648032Y2314134D02*
Y2349566D01*
X1507520Y2331574D02*
X1542952D01*
X1525236Y2313858D02*
Y2349292D01*
X1895000Y2284764D02*
Y2320196D01*
X1877284Y2302480D02*
X1912716D01*
X1332401Y2261023D02*
X1367835D01*
X1350119Y2243307D02*
Y2278741D01*
X1358472Y1832340D02*
Y1867774D01*
X1340754Y1850056D02*
X1376188D01*
X1357270Y1768916D02*
Y1804350D01*
X1339552Y1786632D02*
X1374986D01*
X1388740Y1687008D02*
Y1722440D01*
X1371024Y1704724D02*
X1406456D01*
X1464528Y1731260D02*
X1499960D01*
X1482244Y1713544D02*
Y1748976D01*
X1600708Y1686338D02*
Y1721772D01*
X1582992Y1704056D02*
X1618426D01*
X1723308Y1686338D02*
Y1721772D01*
X1705590Y1704056D02*
X1741024D01*
D176*
X302677Y962913D02*
X416850D01*
X302677Y907795D02*
X416850D01*
Y962913D01*
X302677Y907795D02*
Y962913D01*
X1900394Y1699252D02*
X2018504D01*
X1900394Y1758308D02*
X2018504D01*
X1900394Y1699252D02*
Y1758308D01*
X2018504Y1699252D02*
Y1758308D01*
X2386457Y1703583D02*
X2425827D01*
X2386457Y1778386D02*
X2425827D01*
Y1703583D02*
Y1778386D01*
X2386457Y1703583D02*
Y1778386D01*
X2313583Y1706890D02*
X2352953D01*
X2313583Y1781693D02*
X2352953D01*
Y1706890D02*
Y1781693D01*
X2313583Y1706890D02*
Y1781693D01*
X664154Y1073602D02*
Y1148406D01*
X624784Y1073602D02*
Y1148406D01*
Y1073602D02*
X664154D01*
X624784Y1148406D02*
X664154D01*
X784291Y1045118D02*
Y1084488D01*
X709488Y1045118D02*
Y1084488D01*
X784291D01*
X709488Y1045118D02*
X784291D01*
X740551Y876457D02*
X815354D01*
X740551Y915827D02*
X815354D01*
X740551Y876457D02*
Y915827D01*
X815354Y876457D02*
Y915827D01*
X615197Y906575D02*
X654567D01*
X615197Y981378D02*
X654567D01*
Y906575D02*
Y981378D01*
X615197Y906575D02*
Y981378D01*
X565669Y906575D02*
Y981378D01*
X605039Y906575D02*
Y981378D01*
X565669D02*
X605039D01*
X565669Y906575D02*
X605039D01*
X514272Y982973D02*
X553642D01*
X514272Y1057776D02*
X553642D01*
Y982973D02*
Y1057776D01*
X514272Y982973D02*
Y1057776D01*
X2706772Y899528D02*
X2781575D01*
X2706772Y938898D02*
X2781575D01*
X2706772Y899528D02*
Y938898D01*
X2781575Y899528D02*
Y938898D01*
X2838583Y898189D02*
X2877953D01*
X2838583Y972992D02*
X2877953D01*
Y898189D02*
Y972992D01*
X2838583Y898189D02*
Y972992D01*
X2804803Y1062126D02*
Y1136929D01*
X2844173Y1062126D02*
Y1136929D01*
X2804803D02*
X2844173D01*
X2804803Y1062126D02*
X2844173D01*
X2705118Y1113268D02*
X2744488D01*
X2705118Y1188071D02*
X2744488D01*
Y1113268D02*
Y1188071D01*
X2705118Y1113268D02*
Y1188071D01*
X2583307Y1029527D02*
X2658110D01*
X2583307Y1068898D02*
X2658110D01*
X2583307Y1029527D02*
Y1068898D01*
X2658110Y1029527D02*
Y1068898D01*
X2677953Y899626D02*
Y938996D01*
X2603150Y899626D02*
Y938996D01*
X2677953D01*
X2603150Y899626D02*
X2677953D01*
X480079Y888543D02*
X519449D01*
X480079Y963346D02*
X519449D01*
Y888543D02*
Y963346D01*
X480079Y888543D02*
Y963346D01*
X2473032Y792973D02*
X2512402D01*
X2473032Y867776D02*
X2512402D01*
Y792973D02*
Y867776D01*
X2473032Y792973D02*
Y867776D01*
X2769055Y1140354D02*
X2843858D01*
X2769055Y1179724D02*
X2843858D01*
X2769055Y1140354D02*
Y1179724D01*
X2843858Y1140354D02*
Y1179724D01*
X2583976Y1117244D02*
X2623346D01*
X2583976Y1192047D02*
X2623346D01*
Y1117244D02*
Y1192047D01*
X2583976Y1117244D02*
Y1192047D01*
X580512Y1073032D02*
Y1147835D01*
X619882Y1073032D02*
Y1147835D01*
X580512D02*
X619882D01*
X580512Y1073032D02*
X619882D01*
X735787Y946929D02*
Y986299D01*
X660984Y946929D02*
Y986299D01*
X735787D01*
X660984Y946929D02*
X735787D01*
X475906Y1172480D02*
Y1247284D01*
X515276Y1172480D02*
Y1247284D01*
X475906D02*
X515276D01*
X475906Y1172480D02*
X515276D01*
X740158Y1027677D02*
X779528D01*
X740158Y952874D02*
X779528D01*
X740158D02*
Y1027677D01*
X779528Y952874D02*
Y1027677D01*
X703150Y1110866D02*
X777953D01*
X703150Y1150236D02*
X777953D01*
X703150Y1110866D02*
Y1150236D01*
X777953Y1110866D02*
Y1150236D01*
X1783583Y1797520D02*
X1897756D01*
X1783583Y1742402D02*
X1897756D01*
Y1797520D01*
X1783583Y1742402D02*
Y1797520D01*
X1662559Y1797599D02*
X1776732D01*
X1662559Y1742480D02*
X1776732D01*
Y1797599D01*
X1662559Y1742480D02*
Y1797599D01*
X540394Y1072716D02*
X575827D01*
X540394Y1147520D02*
X575827D01*
Y1072716D02*
Y1147520D01*
X540394Y1072716D02*
Y1147520D01*
X871732Y873544D02*
X907166D01*
X871732Y798740D02*
X907166D01*
X871732D02*
Y873544D01*
X907166Y798740D02*
Y873544D01*
X436574Y1172558D02*
Y1247362D01*
X472008Y1172558D02*
Y1247362D01*
X436574D02*
X472008D01*
X436574Y1172558D02*
X472008D01*
X783662Y1027520D02*
X819094D01*
X783662Y952716D02*
X819094D01*
X783662D02*
Y1027520D01*
X819094Y952716D02*
Y1027520D01*
X661300Y907244D02*
X736102D01*
X661300Y942678D02*
X736102D01*
X661300Y907244D02*
Y942678D01*
X736102Y907244D02*
Y942678D01*
X661338Y991496D02*
X736142D01*
X661338Y1026930D02*
X736142D01*
X661338Y991496D02*
Y1026930D01*
X736142Y991496D02*
Y1026930D01*
X2603070Y943426D02*
X2677874D01*
X2603070Y978858D02*
X2677874D01*
X2603070Y943426D02*
Y978858D01*
X2677874Y943426D02*
Y978858D01*
X2706418Y943248D02*
X2781220D01*
X2706418Y978682D02*
X2781220D01*
X2706418Y943248D02*
Y978682D01*
X2781220Y943248D02*
Y978682D01*
X2032441Y2242086D02*
X2095433D01*
X2032441Y2364134D02*
X2095433D01*
Y2242086D02*
Y2364134D01*
X2032441Y2242086D02*
Y2364134D01*
X1929724Y2362166D02*
X1988780D01*
X1929724Y2244056D02*
X1988780D01*
X1929724D02*
Y2362166D01*
X1988780Y2244056D02*
Y2362166D01*
X1923464Y2011930D02*
X1982520D01*
X1923464Y1893818D02*
X1982520D01*
X1923464D02*
Y2011930D01*
X1982520Y1893818D02*
Y2011930D01*
X1979410Y2019568D02*
Y2078622D01*
X1861300Y2019568D02*
Y2078622D01*
X1979410D01*
X1861300Y2019568D02*
X1979410D01*
X1983898Y2169804D02*
Y2228858D01*
X1865788Y2169804D02*
Y2228858D01*
X1983898D01*
X1865788Y2169804D02*
X1983898D01*
X1722676Y2359292D02*
X1781732D01*
X1722676Y2241182D02*
X1781732D01*
X1722676D02*
Y2359292D01*
X1781732Y2241182D02*
Y2359292D01*
X1707086Y2302322D02*
Y2361378D01*
X1588976Y2302322D02*
Y2361378D01*
X1707086D01*
X1588976Y2302322D02*
X1707086D01*
X1584292Y2302048D02*
Y2361102D01*
X1466182Y2302048D02*
Y2361102D01*
X1584292D01*
X1466182Y2302048D02*
X1584292D01*
X1865472Y2361536D02*
X1924528D01*
X1865472Y2243426D02*
X1924528D01*
X1865472D02*
Y2361536D01*
X1924528Y2243426D02*
Y2361536D01*
X1320591Y2201969D02*
Y2320079D01*
X1379645Y2201969D02*
Y2320079D01*
X1320591D02*
X1379645D01*
X1320591Y2201969D02*
X1379645D01*
X1299416Y1879584D02*
X1417526D01*
X1299416Y1820530D02*
X1417526D01*
Y1879584D01*
X1299416Y1820530D02*
Y1879584D01*
X1298214Y1816160D02*
X1416324D01*
X1298214Y1757106D02*
X1416324D01*
Y1816160D01*
X1298214Y1757106D02*
Y1816160D01*
X1329686Y1734252D02*
X1447796D01*
X1329686Y1675196D02*
X1447796D01*
Y1734252D01*
X1329686Y1675196D02*
Y1734252D01*
X1452716Y1672204D02*
Y1790314D01*
X1511772Y1672204D02*
Y1790314D01*
X1452716D02*
X1511772D01*
X1452716Y1672204D02*
X1511772D01*
X1541654Y1674528D02*
X1659764D01*
X1541654Y1733582D02*
X1659764D01*
X1541654Y1674528D02*
Y1733582D01*
X1659764Y1674528D02*
Y1733582D01*
X1664252D02*
X1782362D01*
X1664252Y1674528D02*
X1782362D01*
Y1733582D01*
X1664252Y1674528D02*
Y1733582D01*
%TF.MD5,fb5988b72965dd0b9080d988c3ae8291*%
M02*
