%TF.GenerationSoftware,Altium Limited,Altium Designer,18.1.7 (191)*%
G04 Layer_Physical_Order=1*
G04 Layer_Color=255*
%FSLAX26Y26*%
%MOIN*%
%TF.FileFunction,Copper,L1,Top,Signal*%
%TF.Part,Single*%
G01*
G75*
%TA.AperFunction,Conductor*%
%ADD10C,0.007087*%
%TA.AperFunction,SMDPad,CuDef*%
%ADD11C,0.019685*%
%ADD12R,0.043307X0.037402*%
%ADD13R,0.033465X0.035433*%
%ADD14R,0.031496X0.037402*%
%ADD15R,0.016732X0.019685*%
%ADD16R,0.009842X0.019685*%
%ADD17R,0.035433X0.037402*%
%ADD18C,0.039370*%
%ADD19R,0.047244X0.055118*%
%ADD20R,0.035433X0.031496*%
%ADD21O,0.017716X0.055118*%
%ADD22R,0.037402X0.035433*%
%ADD23R,0.058071X0.017716*%
%ADD24R,0.019685X0.016732*%
%ADD25R,0.019685X0.009842*%
%ADD26R,0.026772X0.026772*%
%ADD27R,0.026772X0.026772*%
%ADD28R,0.025591X0.037402*%
%ADD29R,0.022835X0.022047*%
%ADD30R,0.041339X0.039370*%
%ADD31R,0.039370X0.041339*%
%ADD32O,0.007874X0.037402*%
%ADD33O,0.037402X0.007874*%
%ADD34O,0.064961X0.023622*%
%ADD35R,0.037402X0.031496*%
%ADD36R,0.035433X0.033465*%
%ADD37R,0.022047X0.022835*%
%ADD38R,0.037402X0.043307*%
%ADD39R,0.021654X0.021654*%
%ADD40O,0.009842X0.055118*%
%ADD41O,0.055118X0.009842*%
%ADD42R,0.015748X0.053150*%
%ADD43R,0.070866X0.074803*%
%ADD44R,0.074803X0.074803*%
%ADD45R,0.039370X0.023622*%
%ADD46R,0.031496X0.027559*%
%ADD47R,0.039370X0.031496*%
%ADD48R,0.074803X0.047244*%
%ADD49R,0.090551X0.074803*%
%ADD50R,0.037402X0.037402*%
%ADD51O,0.070866X0.011811*%
%ADD52O,0.011811X0.070866*%
%ADD53R,0.031496X0.035433*%
%ADD54R,0.029528X0.039370*%
%ADD55R,0.125984X0.068898*%
%ADD56R,0.035433X0.068898*%
%ADD57R,0.039370X0.029528*%
%TA.AperFunction,Conductor*%
%ADD58C,0.010000*%
%ADD59C,0.019685*%
%ADD60C,0.031496*%
%ADD61C,0.015748*%
%ADD62C,0.027559*%
%ADD63C,0.025000*%
%ADD64C,0.023622*%
%ADD65C,0.005914*%
%ADD66C,0.007874*%
%ADD67C,0.009646*%
%ADD68C,0.053937*%
%ADD69C,0.008661*%
%ADD70C,0.039370*%
%ADD71C,0.047244*%
%ADD72C,0.004409*%
%TA.AperFunction,ComponentPad*%
%ADD73R,0.059055X0.059055*%
%ADD74C,0.059055*%
%ADD75R,0.059055X0.059055*%
%TA.AperFunction,ViaPad*%
%ADD76C,0.049213*%
%ADD77C,0.064960*%
%TA.AperFunction,ComponentPad*%
%ADD78C,0.074000*%
%ADD79C,0.027559*%
%TA.AperFunction,ViaPad*%
%ADD80C,0.015748*%
%ADD81C,0.019685*%
%ADD82C,0.039370*%
%ADD83C,0.011811*%
%ADD84C,0.023622*%
G36*
X3262441Y3825987D02*
Y2877244D01*
X3213465Y2828268D01*
X2786338D01*
X2710669Y2903937D01*
Y3531378D01*
X2626142Y3615906D01*
X970748D01*
X965965Y3611122D01*
X792913D01*
X785164Y3610102D01*
X777943Y3607111D01*
X771742Y3602353D01*
X699734Y3530345D01*
X694976Y3524144D01*
X691985Y3516923D01*
X690965Y3509174D01*
Y3424541D01*
X688236Y3423998D01*
X684928Y3421788D01*
X678786Y3415646D01*
X673360Y3417291D01*
X672441Y3421912D01*
Y3435276D01*
X662444D01*
X658250Y3439470D01*
X650807Y3444443D01*
X642028Y3446189D01*
X615749D01*
Y3454213D01*
X586536D01*
X584435Y3458982D01*
X586672Y3461772D01*
X589825D01*
X590266Y3461589D01*
X596988Y3460704D01*
X646752D01*
X653474Y3461589D01*
X659737Y3464183D01*
X665116Y3468311D01*
X669243Y3473689D01*
X671837Y3479953D01*
X672722Y3486674D01*
X671837Y3493396D01*
X669243Y3499659D01*
X665116Y3505038D01*
X659737Y3509165D01*
X653474Y3511760D01*
X646752Y3512644D01*
X615749D01*
Y3515237D01*
X597042D01*
X581041Y3531237D01*
X577923Y3533629D01*
X575663Y3535363D01*
X575663Y3535363D01*
X575662Y3535364D01*
X572362Y3536731D01*
X569400Y3537958D01*
X569399Y3537958D01*
X569399Y3537958D01*
X565785Y3538433D01*
X562678Y3538843D01*
X558709D01*
X555708Y3542599D01*
Y3601969D01*
X506180D01*
Y3572227D01*
X505741Y3570020D01*
Y3535985D01*
X498649D01*
Y3572284D01*
X496902Y3581063D01*
X491930Y3588506D01*
X488938Y3591498D01*
X484842Y3594235D01*
Y3601969D01*
X465078D01*
Y3572284D01*
X455078D01*
Y3601969D01*
X435314D01*
Y3598217D01*
X415078D01*
X406299Y3596471D01*
X398856Y3591498D01*
X393884Y3584055D01*
X392137Y3575276D01*
X393884Y3566497D01*
X398856Y3559055D01*
X406299Y3554082D01*
X415078Y3552336D01*
X435314D01*
Y3542599D01*
X452767D01*
Y3535985D01*
X437757D01*
Y3527981D01*
X414056D01*
X405277Y3526235D01*
X397834Y3521262D01*
X392861Y3513819D01*
X391115Y3505040D01*
X392861Y3496261D01*
X397834Y3488819D01*
X405277Y3483846D01*
X414056Y3482099D01*
X437757D01*
Y3478584D01*
X464410D01*
Y3507284D01*
X474410D01*
Y3478584D01*
X522843D01*
X524756Y3473964D01*
X508430Y3457637D01*
X493661D01*
Y3434872D01*
X488661Y3433355D01*
X487088Y3435710D01*
X471438Y3451360D01*
X463995Y3456333D01*
X455216Y3458079D01*
X438104D01*
X437378Y3459830D01*
X431989Y3466854D01*
X424966Y3472243D01*
X416787Y3475631D01*
X408010Y3476786D01*
X318007D01*
Y3504724D01*
X316851Y3513501D01*
X313463Y3521680D01*
X312795Y3522551D01*
Y3532441D01*
X303204D01*
X301050Y3534093D01*
X292872Y3537481D01*
X284094Y3538637D01*
X275317Y3537481D01*
X271082Y3535727D01*
X268249Y3539965D01*
X314229Y3585945D01*
X340551D01*
Y3588185D01*
X357322D01*
X366973Y3589455D01*
X375966Y3593180D01*
X383688Y3599106D01*
X533031Y3748448D01*
X903974D01*
X905491Y3743448D01*
X905419Y3743400D01*
X901033Y3736837D01*
X900488Y3734095D01*
X938961D01*
X938416Y3736837D01*
X934030Y3743400D01*
X933958Y3743448D01*
X935474Y3748448D01*
X1150136D01*
X1151653Y3743448D01*
X1151639Y3743439D01*
X1147254Y3736876D01*
X1146708Y3734134D01*
X1185181D01*
X1184636Y3736876D01*
X1180251Y3743439D01*
X1180237Y3743448D01*
X1181754Y3748448D01*
X1519624D01*
X1521141Y3743448D01*
X1521128Y3743439D01*
X1516742Y3736876D01*
X1516197Y3734134D01*
X1554670D01*
X1554124Y3736876D01*
X1549739Y3743439D01*
X1549725Y3743448D01*
X1551242Y3748448D01*
X1852183D01*
X1853700Y3743448D01*
X1853687Y3743439D01*
X1849301Y3736876D01*
X1848755Y3734134D01*
X1887229D01*
X1886683Y3736876D01*
X1882298Y3743439D01*
X1882284Y3743448D01*
X1883801Y3748448D01*
X2217341D01*
X2219111Y3743448D01*
X2215482Y3738018D01*
X2214937Y3735276D01*
X2253410D01*
X2252864Y3738018D01*
X2249236Y3743448D01*
X2251006Y3748448D01*
X2597349D01*
X2598866Y3743448D01*
X2593844Y3740093D01*
X2589458Y3733530D01*
X2588913Y3730787D01*
X2627386D01*
X2626841Y3733530D01*
X2622455Y3740093D01*
X2617433Y3743448D01*
X2618950Y3748448D01*
X2762945D01*
X2880842Y3629314D01*
X2879965Y3461462D01*
X2878794Y3237504D01*
X2880014Y3227847D01*
X2883692Y3218835D01*
X2889577Y3211081D01*
X2901252Y3199284D01*
X2908944Y3193318D01*
X2917917Y3189546D01*
X2927561Y3188225D01*
X2937218Y3189445D01*
X2946231Y3193123D01*
X2949897Y3195905D01*
X2981220D01*
X2987183Y3191330D01*
X2996176Y3187605D01*
X3005827Y3186334D01*
X3019949D01*
X3059047Y3147236D01*
X3066770Y3141310D01*
X3070590Y3139728D01*
Y3122599D01*
X3116181D01*
Y3152972D01*
X3117705Y3154959D01*
X3121430Y3163952D01*
X3122701Y3173602D01*
X3121430Y3183253D01*
X3119599Y3187674D01*
X3122377Y3191831D01*
X3130984D01*
Y3221516D01*
X3135984D01*
Y3226516D01*
X3166653D01*
Y3251201D01*
X3155368D01*
Y3273878D01*
X3153675Y3282388D01*
X3148855Y3289603D01*
X3141640Y3294423D01*
X3133130Y3296116D01*
X3124620Y3294423D01*
X3117405Y3289603D01*
X3112584Y3282388D01*
X3110892Y3273878D01*
Y3251201D01*
X3060179D01*
X3054037Y3255914D01*
X3045044Y3259639D01*
X3035394Y3260910D01*
X3005827D01*
X2996176Y3259639D01*
X2987183Y3255914D01*
X2981220Y3251338D01*
X2957947D01*
X2953466Y3255884D01*
X2954394Y3433386D01*
X2986678D01*
X2988831Y3431734D01*
X2997010Y3428346D01*
X3005787Y3427190D01*
X3093032D01*
X3101809Y3428346D01*
X3109986Y3431733D01*
X3130872D01*
Y3425433D01*
X3132565Y3416923D01*
X3137385Y3409708D01*
X3144600Y3404887D01*
X3153110Y3403195D01*
X3161620Y3404887D01*
X3168835Y3409708D01*
X3173656Y3416923D01*
X3175349Y3425433D01*
Y3431733D01*
X3183070D01*
Y3456418D01*
X3152401D01*
Y3461418D01*
X3147401D01*
Y3491103D01*
X3132397D01*
X3130954Y3496103D01*
X3135024Y3501407D01*
X3138015Y3508629D01*
X3139036Y3516378D01*
X3138015Y3524127D01*
X3135024Y3531349D01*
X3133268Y3533638D01*
Y3563268D01*
X3087677D01*
Y3537304D01*
X3074340Y3523967D01*
X3069582Y3517766D01*
X3066591Y3510545D01*
X3065571Y3502795D01*
Y3495015D01*
X3005787D01*
X2997010Y3493859D01*
X2988831Y3490471D01*
X2986678Y3488819D01*
X2958229D01*
X2954702Y3492364D01*
X2955321Y3610749D01*
X2956848Y3611521D01*
X2960328Y3612073D01*
X2964419Y3606742D01*
X2970620Y3601984D01*
X2977841Y3598992D01*
X2985590Y3597972D01*
X2993340Y3598992D01*
X2999465Y3601530D01*
X3050276D01*
Y3598386D01*
X3095866D01*
Y3629452D01*
X3096923Y3634764D01*
Y3670315D01*
X3117408D01*
Y3632626D01*
X3118293Y3625904D01*
X3120887Y3619641D01*
X3125014Y3614262D01*
X3125079Y3614213D01*
Y3598386D01*
X3142874D01*
Y3627087D01*
X3147874D01*
Y3632087D01*
X3170669D01*
Y3655787D01*
X3169348D01*
Y3700276D01*
X3168463Y3706998D01*
X3165869Y3713261D01*
X3161742Y3718640D01*
X3160117Y3719886D01*
Y3729685D01*
X3159544D01*
Y3749496D01*
X3158659Y3756218D01*
X3156065Y3762481D01*
X3151938Y3767860D01*
X3146559Y3771987D01*
X3140296Y3774581D01*
X3133574Y3775466D01*
X3126852Y3774581D01*
X3120589Y3771987D01*
X3115210Y3767860D01*
X3111083Y3762481D01*
X3108489Y3756218D01*
X3107604Y3749496D01*
Y3729685D01*
X3092230D01*
Y3750906D01*
X3091345Y3757628D01*
X3088751Y3763891D01*
X3084624Y3769270D01*
X3079245Y3773397D01*
X3072982Y3775991D01*
X3066260Y3776876D01*
X3059538Y3775991D01*
X3053275Y3773397D01*
X3047896Y3769270D01*
X3043769Y3763891D01*
X3041175Y3757628D01*
X3040290Y3750906D01*
Y3729685D01*
X3039725D01*
Y3670315D01*
X3048432D01*
Y3653470D01*
X3001048D01*
X3000561Y3653843D01*
X2993340Y3656834D01*
X2985590Y3657855D01*
X2977841Y3656834D01*
X2970620Y3653843D01*
X2964419Y3649085D01*
X2960495Y3643971D01*
X2957476Y3644212D01*
X2956576Y3644526D01*
X2955398Y3645154D01*
X2954277Y3654026D01*
X2950599Y3663039D01*
X2944713Y3670792D01*
X2805008Y3811964D01*
X2804930Y3812025D01*
X2804870Y3812102D01*
X2801096Y3814999D01*
X2797316Y3817930D01*
X2797226Y3817968D01*
X2797148Y3818028D01*
X2792740Y3819854D01*
X2788343Y3821702D01*
X2788245Y3821715D01*
X2788155Y3821753D01*
X2783412Y3822377D01*
X2778699Y3823023D01*
X2778602Y3823011D01*
X2778504Y3823023D01*
X2731369D01*
X2731362Y3828023D01*
X3258900Y3829518D01*
X3262441Y3825987D01*
D02*
G37*
G36*
X497206Y3816696D02*
X491219Y3812102D01*
X345131Y3666014D01*
X340551Y3665000D01*
Y3665000D01*
X261497D01*
Y3638677D01*
X164028Y3541208D01*
X158102Y3533486D01*
X154377Y3524493D01*
X153703Y3519375D01*
X152448Y3516344D01*
X151177Y3506693D01*
Y3343307D01*
X152448Y3333656D01*
X156173Y3324663D01*
X162098Y3316941D01*
X206705Y3272335D01*
X214427Y3266409D01*
X216102Y3265715D01*
Y3209095D01*
X271535D01*
Y3215479D01*
X290878D01*
Y3207953D01*
X296356D01*
Y3196339D01*
X291863D01*
Y3138938D01*
X299782D01*
Y3116615D01*
X292808D01*
Y3027718D01*
X348240D01*
Y3116615D01*
X344258D01*
Y3138938D01*
X373634D01*
Y3167638D01*
X383634D01*
Y3138938D01*
X410288D01*
Y3144816D01*
X466404D01*
X479579Y3131640D01*
Y3116615D01*
X473909D01*
Y3077166D01*
X529342D01*
Y3116615D01*
X525461D01*
Y3141142D01*
X523715Y3149921D01*
X518742Y3157364D01*
X492128Y3183978D01*
X484685Y3188951D01*
X475906Y3190697D01*
X410288D01*
Y3196339D01*
X401575D01*
Y3207953D01*
X411272D01*
Y3213595D01*
X432834D01*
X441613Y3215342D01*
X449056Y3220315D01*
X454029Y3227757D01*
X455775Y3236536D01*
X454029Y3245315D01*
X449056Y3252758D01*
X441613Y3257731D01*
X432834Y3259477D01*
X411272D01*
Y3267323D01*
X391508D01*
Y3237638D01*
X381508D01*
Y3267323D01*
X361744D01*
Y3244986D01*
X357440Y3238543D01*
X355693Y3229764D01*
Y3196339D01*
X340833D01*
Y3234685D01*
X340833Y3234686D01*
X340406Y3236834D01*
Y3267323D01*
X290878D01*
Y3259955D01*
X271535D01*
Y3323583D01*
X260576D01*
X259437Y3325067D01*
X237179Y3347325D01*
X239642Y3351933D01*
X240394Y3351784D01*
X254489D01*
Y3347244D01*
X279174D01*
Y3372008D01*
X289174D01*
Y3347244D01*
X313859D01*
Y3351784D01*
X320433D01*
Y3350631D01*
X344134D01*
Y3382285D01*
X354134D01*
Y3350631D01*
X377835D01*
Y3372454D01*
X385393D01*
Y3339213D01*
X409408D01*
X415045Y3338084D01*
X418530Y3338771D01*
X450964D01*
X459743Y3340518D01*
X467186Y3345491D01*
X487088Y3365393D01*
X488661Y3367747D01*
X493661Y3366231D01*
Y3339213D01*
X517676D01*
X523313Y3338084D01*
X526798Y3338771D01*
X579390D01*
X579391Y3338772D01*
X579393Y3338771D01*
X583691Y3339627D01*
X588169Y3340518D01*
X588170Y3340519D01*
X588172Y3340519D01*
X591736Y3342901D01*
X592285Y3343268D01*
X616379D01*
Y3394764D01*
X611287D01*
Y3400307D01*
X629607D01*
Y3384115D01*
X628083Y3376456D01*
Y3342834D01*
X629830Y3334055D01*
X634802Y3326613D01*
X635156Y3326259D01*
X642599Y3321286D01*
X651378Y3319539D01*
X654639Y3316835D01*
X652603Y3118558D01*
X529576Y2995530D01*
X524968Y2997993D01*
X525461Y3000472D01*
Y3027718D01*
X529342D01*
Y3067166D01*
X473909D01*
Y3027718D01*
X479579D01*
Y3000472D01*
X481325Y2991693D01*
X484167Y2987440D01*
X481495Y2982440D01*
X281260D01*
X277358Y2981664D01*
X274050Y2979454D01*
X225310Y2930713D01*
X223100Y2927406D01*
X222324Y2923504D01*
Y2742677D01*
X223100Y2738775D01*
X225310Y2735468D01*
X402830Y2557948D01*
X406138Y2555738D01*
X410039Y2554961D01*
X484409D01*
X488311Y2555738D01*
X491619Y2557948D01*
X508942Y2575271D01*
X511152Y2578579D01*
X511928Y2582480D01*
X511152Y2586382D01*
X512081Y2588618D01*
X517591Y2590032D01*
X517624Y2589999D01*
X525067Y2585026D01*
X533846Y2583280D01*
X542625Y2585026D01*
X550068Y2589999D01*
X555040Y2597441D01*
X556787Y2606220D01*
X555040Y2614999D01*
X550068Y2622442D01*
X547929Y2624581D01*
Y2636473D01*
X558058D01*
Y2661158D01*
X533294D01*
Y2671158D01*
X558058D01*
Y2695843D01*
X547929D01*
Y2712457D01*
X556641D01*
Y2736158D01*
X524988D01*
Y2741158D01*
X519988D01*
Y2769859D01*
X519276D01*
X517362Y2774479D01*
X529893Y2787009D01*
X569359D01*
X736491Y2619877D01*
X736812Y2616616D01*
X654803Y2534606D01*
X147520D01*
X111929Y2570197D01*
X111929Y3618583D01*
X314525Y3821179D01*
X495502Y3821691D01*
X497206Y3816696D01*
D02*
G37*
G36*
X769188Y3441063D02*
X771545Y3436653D01*
X770012Y3434360D01*
X768174Y3425118D01*
X770012Y3415877D01*
X775247Y3408042D01*
X783081Y3402807D01*
X792323Y3400969D01*
X801564Y3402807D01*
X809399Y3408042D01*
X814634Y3415877D01*
X816472Y3425118D01*
X814634Y3434360D01*
X813101Y3436653D01*
X815458Y3441063D01*
X826653D01*
X867559Y3400157D01*
X867559Y2750945D01*
X743701Y2627087D01*
X573583Y2797205D01*
X527323D01*
X526496Y2798032D01*
X500906Y2772441D01*
Y2769859D01*
X481515D01*
Y2781653D01*
X484066D01*
Y2787528D01*
X489206Y2788205D01*
X496427Y2791196D01*
X502628Y2795954D01*
X507387Y2802155D01*
X510378Y2809377D01*
X510740Y2812126D01*
X481457D01*
Y2822126D01*
X510740D01*
X510378Y2824875D01*
X507387Y2832097D01*
X502628Y2838298D01*
X496427Y2843056D01*
X491539Y2845081D01*
X490054Y2850666D01*
X737982Y3098594D01*
X743217Y3106429D01*
X745055Y3115670D01*
Y3441063D01*
X769188Y3441063D01*
D02*
G37*
G36*
X696757Y3412665D02*
Y3125673D01*
X447616Y2876532D01*
X443620Y2870551D01*
X416074D01*
Y2826102D01*
Y2781653D01*
X447869D01*
Y2769859D01*
X438216D01*
Y2746158D01*
X469870D01*
Y2736158D01*
X438216D01*
Y2712457D01*
X447869D01*
Y2695843D01*
X437664D01*
Y2671158D01*
X462428D01*
X487192D01*
Y2695843D01*
X481515D01*
Y2712457D01*
X500906D01*
Y2583307D01*
X501732Y2582480D01*
X484409Y2565157D01*
X410039D01*
X232520Y2742677D01*
Y2923504D01*
X281260Y2972244D01*
X520709D01*
X662756Y3114291D01*
X665003Y3333172D01*
X666921Y3336042D01*
X668201Y3342480D01*
X667847Y3344260D01*
Y3376456D01*
X666567Y3382894D01*
X666441Y3383082D01*
Y3388882D01*
X692138Y3414578D01*
X696757Y3412665D01*
D02*
G37*
G36*
X2526960Y2253788D02*
X2525711Y2251375D01*
X2524012Y2249665D01*
X2522008Y2250063D01*
Y2235827D01*
X2536244D01*
X2535846Y2237831D01*
X2537556Y2239530D01*
X2539969Y2240779D01*
X2559173Y2221575D01*
Y2014306D01*
X2533035Y1988168D01*
X2441087D01*
X2440595Y1993168D01*
X2446568Y1994356D01*
X2453783Y1999177D01*
X2458603Y2006391D01*
X2460296Y2014902D01*
X2458603Y2023412D01*
X2453783Y2030627D01*
X2446568Y2035447D01*
X2438058Y2037140D01*
X2418269D01*
Y2051923D01*
X2438386D01*
X2445108Y2052808D01*
X2451371Y2055403D01*
X2456750Y2059530D01*
X2460877Y2064909D01*
X2463471Y2071172D01*
X2464356Y2077894D01*
X2463471Y2084615D01*
X2460877Y2090879D01*
X2456750Y2096257D01*
X2451371Y2100385D01*
X2445108Y2102979D01*
X2438386Y2103864D01*
X2323622D01*
X2316900Y2102979D01*
X2316220Y2102697D01*
X2313780D01*
Y2078918D01*
Y2054101D01*
X2316900Y2052808D01*
X2323622Y2051923D01*
X2360867D01*
Y2036194D01*
X2334528D01*
Y2037735D01*
X2233820D01*
Y2022573D01*
X2228820Y2020393D01*
X2223884Y2023691D01*
X2221142Y2024237D01*
Y2005000D01*
X2216142D01*
Y2000000D01*
X2196905D01*
X2196953Y1999757D01*
X2194696Y1998119D01*
X2192349Y1997278D01*
X2186839Y2000960D01*
X2187948Y2006535D01*
X2186408Y2014277D01*
X2182022Y2020841D01*
X2175459Y2025227D01*
X2167716Y2026767D01*
X2159974Y2025227D01*
X2153411Y2020841D01*
X2152355Y2019261D01*
X2147355D01*
X2147140Y2019581D01*
X2143341Y2022120D01*
X2143334Y2028128D01*
X2144817Y2029120D01*
X2149203Y2035683D01*
X2150743Y2043425D01*
X2150135Y2046484D01*
X2153307Y2050349D01*
X2239331D01*
X2244922Y2051461D01*
X2249663Y2054629D01*
X2250172Y2055138D01*
X2303780D01*
Y2078918D01*
Y2102697D01*
X2242036D01*
X2241019Y2103937D01*
X2239479Y2111679D01*
X2235093Y2118243D01*
X2228530Y2122628D01*
X2225787Y2123174D01*
Y2103937D01*
X2220787D01*
Y2098937D01*
X2201551D01*
X2202096Y2096195D01*
X2206482Y2089631D01*
X2213045Y2085246D01*
X2216432Y2084572D01*
X2215940Y2079572D01*
X2124295D01*
X2122381Y2084191D01*
X2135387Y2097197D01*
X2312200Y2261024D01*
X2519724D01*
X2526960Y2253788D01*
D02*
G37*
G36*
X970039Y2343031D02*
Y2129528D01*
X839449Y1998937D01*
X680079D01*
X642402Y2036614D01*
Y2335630D01*
X681299Y2374528D01*
X938543D01*
X970039Y2343031D01*
D02*
G37*
G36*
X3174819Y1950000D02*
Y1736496D01*
X3134504Y1696181D01*
X2957457Y1696181D01*
X2919150Y1734488D01*
X2919149Y1944960D01*
X2955685Y1981496D01*
X3143323Y1981496D01*
X3174819Y1950000D01*
D02*
G37*
G36*
X512197Y820755D02*
X505929Y814486D01*
X370610D01*
X364757Y813322D01*
X359796Y810006D01*
X347584Y797795D01*
X322244D01*
Y788110D01*
X303799D01*
Y807028D01*
X244429D01*
Y745689D01*
Y722303D01*
X274114D01*
X303799D01*
Y745689D01*
Y757522D01*
X322244D01*
Y722677D01*
X417795D01*
Y760236D01*
X427795D01*
Y722677D01*
X447796D01*
Y711181D01*
X360866D01*
Y673622D01*
Y636063D01*
X413662D01*
Y603071D01*
X384685D01*
Y573386D01*
Y543701D01*
X469409D01*
Y603071D01*
X444250D01*
Y636063D01*
X456417D01*
Y672193D01*
X460755Y673056D01*
X465716Y676372D01*
X473904Y684560D01*
X477220Y689521D01*
X478384Y695374D01*
Y717661D01*
X489849Y729126D01*
X494469Y727213D01*
Y545374D01*
X459469Y510374D01*
X308720D01*
X219469Y599626D01*
Y810374D01*
X234469Y825374D01*
X510283D01*
X512197Y820755D01*
D02*
G37*
G36*
X2529173Y708568D02*
Y676930D01*
X2588543D01*
Y706797D01*
X2598688Y716942D01*
X2603307Y715028D01*
X2603307Y458891D01*
X2559077Y414606D01*
X2455945D01*
X2409528Y461024D01*
Y599662D01*
X2410444Y600662D01*
X2414528Y603077D01*
X2421457Y601699D01*
X2426811D01*
Y594252D01*
X2438155D01*
Y560000D01*
X2438155Y559999D01*
X2439848Y551489D01*
X2444669Y544274D01*
X2450550Y538393D01*
Y509488D01*
X2454257D01*
Y487846D01*
X2452214Y484789D01*
X2450674Y477047D01*
X2452214Y469305D01*
X2456600Y462742D01*
X2463163Y458356D01*
X2470905Y456816D01*
X2478648Y458356D01*
X2485211Y462742D01*
X2489597Y469305D01*
X2491137Y477047D01*
X2490705Y479216D01*
Y509488D01*
X2519730D01*
Y477361D01*
X2521423Y468851D01*
X2526244Y461636D01*
X2533458Y456816D01*
X2541968Y455123D01*
X2550479Y456816D01*
X2550886Y457088D01*
X2551522Y457214D01*
X2558085Y461600D01*
X2562471Y468163D01*
X2563016Y470906D01*
X2543780D01*
Y480906D01*
X2564207D01*
Y509488D01*
X2568975D01*
Y533189D01*
X2537322D01*
Y543189D01*
X2573772D01*
X2574583Y544000D01*
X2574583Y544000D01*
X2579404Y551215D01*
X2581097Y559725D01*
X2581097Y559726D01*
Y594252D01*
X2588543D01*
Y615000D01*
X2529173D01*
Y594252D01*
X2536620D01*
Y568937D01*
X2534573Y566890D01*
X2484953D01*
X2482632Y569211D01*
Y594252D01*
X2486181D01*
Y645748D01*
X2454708D01*
X2452559Y646176D01*
X2452559Y646175D01*
X2430668D01*
X2425349Y651495D01*
Y671458D01*
X2430821Y676930D01*
X2486181D01*
Y724234D01*
X2513507D01*
X2529173Y708568D01*
D02*
G37*
%LPC*%
G36*
X641969Y3733685D02*
Y3719448D01*
X656206D01*
X655660Y3722190D01*
X651275Y3728754D01*
X644711Y3733139D01*
X641969Y3733685D01*
D02*
G37*
G36*
X631969D02*
X629227Y3733139D01*
X622664Y3728754D01*
X618278Y3722190D01*
X617733Y3719448D01*
X631969D01*
Y3733685D01*
D02*
G37*
G36*
X700827Y3733646D02*
Y3719409D01*
X715063D01*
X714518Y3722151D01*
X710132Y3728715D01*
X703569Y3733101D01*
X700827Y3733646D01*
D02*
G37*
G36*
X690827D02*
X688085Y3733101D01*
X681521Y3728715D01*
X677136Y3722151D01*
X676590Y3719409D01*
X690827D01*
Y3733646D01*
D02*
G37*
G36*
X2253410Y3725276D02*
X2239173D01*
Y3711039D01*
X2241915Y3711584D01*
X2248479Y3715970D01*
X2252864Y3722533D01*
X2253410Y3725276D01*
D02*
G37*
G36*
X2229173D02*
X2214937D01*
X2215482Y3722533D01*
X2219868Y3715970D01*
X2226431Y3711584D01*
X2229173Y3711039D01*
Y3725276D01*
D02*
G37*
G36*
X1887229Y3724134D02*
X1872992D01*
Y3709897D01*
X1875734Y3710443D01*
X1882298Y3714828D01*
X1886683Y3721392D01*
X1887229Y3724134D01*
D02*
G37*
G36*
X1862992D02*
X1848755D01*
X1849301Y3721392D01*
X1853687Y3714828D01*
X1860250Y3710443D01*
X1862992Y3709897D01*
Y3724134D01*
D02*
G37*
G36*
X1554670D02*
X1540433D01*
Y3709897D01*
X1543175Y3710443D01*
X1549739Y3714828D01*
X1554124Y3721392D01*
X1554670Y3724134D01*
D02*
G37*
G36*
X1530433D02*
X1516197D01*
X1516742Y3721392D01*
X1521128Y3714828D01*
X1527691Y3710443D01*
X1530433Y3709897D01*
Y3724134D01*
D02*
G37*
G36*
X1185181D02*
X1170945D01*
Y3709897D01*
X1173687Y3710443D01*
X1180251Y3714828D01*
X1184636Y3721392D01*
X1185181Y3724134D01*
D02*
G37*
G36*
X1160945D02*
X1146708D01*
X1147254Y3721392D01*
X1151639Y3714828D01*
X1158203Y3710443D01*
X1160945Y3709897D01*
Y3724134D01*
D02*
G37*
G36*
X938961Y3724095D02*
X924724D01*
Y3709858D01*
X927466Y3710403D01*
X934030Y3714789D01*
X938416Y3721352D01*
X938961Y3724095D01*
D02*
G37*
G36*
X914724D02*
X900488D01*
X901033Y3721352D01*
X905419Y3714789D01*
X911982Y3710403D01*
X914724Y3709858D01*
Y3724095D01*
D02*
G37*
G36*
X2627386Y3720787D02*
X2613150D01*
Y3706551D01*
X2615892Y3707096D01*
X2622455Y3711482D01*
X2626841Y3718045D01*
X2627386Y3720787D01*
D02*
G37*
G36*
X2603150D02*
X2588913D01*
X2589458Y3718045D01*
X2593844Y3711482D01*
X2600407Y3707096D01*
X2603150Y3706551D01*
Y3720787D01*
D02*
G37*
G36*
X656206Y3709448D02*
X641969D01*
Y3695211D01*
X644711Y3695757D01*
X651275Y3700142D01*
X655660Y3706706D01*
X656206Y3709448D01*
D02*
G37*
G36*
X631969D02*
X617733D01*
X618278Y3706706D01*
X622664Y3700142D01*
X629227Y3695757D01*
X631969Y3695211D01*
Y3709448D01*
D02*
G37*
G36*
X715063Y3709409D02*
X700827D01*
Y3695173D01*
X703569Y3695718D01*
X710132Y3700104D01*
X714518Y3706667D01*
X715063Y3709409D01*
D02*
G37*
G36*
X690827D02*
X676590D01*
X677136Y3706667D01*
X681521Y3700104D01*
X688085Y3695718D01*
X690827Y3695173D01*
Y3709409D01*
D02*
G37*
G36*
X698780Y3676402D02*
Y3662165D01*
X713016D01*
X712471Y3664907D01*
X708085Y3671471D01*
X701522Y3675856D01*
X698780Y3676402D01*
D02*
G37*
G36*
X688780D02*
X686038Y3675856D01*
X679474Y3671471D01*
X675088Y3664907D01*
X674543Y3662165D01*
X688780D01*
Y3676402D01*
D02*
G37*
G36*
X713016Y3652165D02*
X698780D01*
Y3637929D01*
X701522Y3638474D01*
X708085Y3642860D01*
X712471Y3649423D01*
X713016Y3652165D01*
D02*
G37*
G36*
X688780D02*
X674543D01*
X675088Y3649423D01*
X679474Y3642860D01*
X686038Y3638474D01*
X688780Y3637929D01*
Y3652165D01*
D02*
G37*
G36*
X2783642Y3614099D02*
Y3599862D01*
X2797878D01*
X2797333Y3602604D01*
X2792947Y3609168D01*
X2786384Y3613553D01*
X2783642Y3614099D01*
D02*
G37*
G36*
X2773642D02*
X2770900Y3613553D01*
X2764336Y3609168D01*
X2759951Y3602604D01*
X2759405Y3599862D01*
X2773642D01*
Y3614099D01*
D02*
G37*
G36*
X3170669Y3622087D02*
X3152874D01*
Y3598386D01*
X3170669D01*
Y3622087D01*
D02*
G37*
G36*
X2797878Y3589862D02*
X2783642D01*
Y3575626D01*
X2786384Y3576171D01*
X2792947Y3580557D01*
X2797333Y3587120D01*
X2797878Y3589862D01*
D02*
G37*
G36*
X2773642D02*
X2759405D01*
X2759951Y3587120D01*
X2764336Y3580557D01*
X2770900Y3576171D01*
X2773642Y3575626D01*
Y3589862D01*
D02*
G37*
G36*
X3183070Y3491103D02*
X3157401D01*
Y3466418D01*
X3183070D01*
Y3491103D01*
D02*
G37*
G36*
X2784705Y3430595D02*
Y3416358D01*
X2798941D01*
X2798396Y3419100D01*
X2794010Y3425664D01*
X2787447Y3430050D01*
X2784705Y3430595D01*
D02*
G37*
G36*
X2774705D02*
X2771963Y3430050D01*
X2765399Y3425664D01*
X2761014Y3419100D01*
X2760468Y3416358D01*
X2774705D01*
Y3430595D01*
D02*
G37*
G36*
X2798941Y3406358D02*
X2784705D01*
Y3392122D01*
X2787447Y3392667D01*
X2794010Y3397053D01*
X2798396Y3403616D01*
X2798941Y3406358D01*
D02*
G37*
G36*
X2774705D02*
X2760468D01*
X2761014Y3403616D01*
X2765399Y3397053D01*
X2771963Y3392667D01*
X2774705Y3392122D01*
Y3406358D01*
D02*
G37*
G36*
X2784705Y3242839D02*
Y3228602D01*
X2798941D01*
X2798396Y3231345D01*
X2794010Y3237908D01*
X2787447Y3242294D01*
X2784705Y3242839D01*
D02*
G37*
G36*
X2774705D02*
X2771963Y3242294D01*
X2765399Y3237908D01*
X2761014Y3231345D01*
X2760468Y3228602D01*
X2774705D01*
Y3242839D01*
D02*
G37*
G36*
X2798941Y3218602D02*
X2784705D01*
Y3204366D01*
X2787447Y3204911D01*
X2794010Y3209297D01*
X2798396Y3215860D01*
X2798941Y3218602D01*
D02*
G37*
G36*
X2774705D02*
X2760468D01*
X2761014Y3215860D01*
X2765399Y3209297D01*
X2771963Y3204911D01*
X2774705Y3204366D01*
Y3218602D01*
D02*
G37*
G36*
X3166653Y3216516D02*
X3140984D01*
Y3191831D01*
X3166653D01*
Y3216516D01*
D02*
G37*
G36*
X3050984Y3087481D02*
X3033189D01*
Y3063780D01*
X3050984D01*
Y3087481D01*
D02*
G37*
G36*
X2784705Y3074178D02*
Y3059941D01*
X2798941D01*
X2798396Y3062683D01*
X2794010Y3069247D01*
X2787447Y3073632D01*
X2784705Y3074178D01*
D02*
G37*
G36*
X2774705D02*
X2771963Y3073632D01*
X2765399Y3069247D01*
X2761014Y3062683D01*
X2760468Y3059941D01*
X2774705D01*
Y3074178D01*
D02*
G37*
G36*
X2798941Y3049941D02*
X2784705D01*
Y3035704D01*
X2787447Y3036250D01*
X2794010Y3040635D01*
X2798396Y3047199D01*
X2798941Y3049941D01*
D02*
G37*
G36*
X2774705D02*
X2760468D01*
X2761014Y3047199D01*
X2765399Y3040635D01*
X2771963Y3036250D01*
X2774705Y3035704D01*
Y3049941D01*
D02*
G37*
G36*
X3153582Y3087481D02*
X3107992D01*
Y3068013D01*
X3105427Y3061820D01*
X3104542Y3055098D01*
Y3013307D01*
X3085192D01*
Y3053595D01*
X3084307Y3060316D01*
X3081713Y3066580D01*
X3078779Y3070402D01*
Y3087481D01*
X3060984D01*
Y3058780D01*
X3055984D01*
Y3053780D01*
X3033189D01*
Y3030079D01*
X3033251D01*
Y2988622D01*
X3064094D01*
Y2978622D01*
X3033425D01*
Y2953937D01*
X3036086D01*
Y2939681D01*
X3031086Y2937610D01*
X2996045Y2972651D01*
X2998015Y2977408D01*
X2999036Y2985157D01*
X2998015Y2992907D01*
X2995024Y3000128D01*
X2990266Y3006329D01*
X2984065Y3011087D01*
X2976844Y3014079D01*
X2969095Y3015099D01*
X2961345Y3014079D01*
X2954124Y3011087D01*
X2947923Y3006329D01*
X2943165Y3000128D01*
X2940173Y2992907D01*
X2939153Y2985157D01*
X2940173Y2977408D01*
X2943124Y2970284D01*
Y2962874D01*
X2944009Y2956152D01*
X2946604Y2949889D01*
X2950731Y2944510D01*
X3015455Y2879786D01*
X3020834Y2875659D01*
X3027097Y2873064D01*
X3033819Y2872179D01*
X3100590D01*
X3107311Y2873064D01*
X3113575Y2875659D01*
X3118953Y2879786D01*
X3156316Y2917148D01*
X3160443Y2922527D01*
X3163037Y2928790D01*
X3163922Y2935512D01*
X3163037Y2942234D01*
X3160443Y2948497D01*
X3156316Y2953876D01*
X3153820Y2955791D01*
Y2971389D01*
X3155597Y2975681D01*
X3156482Y2982402D01*
Y3055098D01*
X3155597Y3061820D01*
X3153582Y3066684D01*
Y3087481D01*
D02*
G37*
G36*
X2784291Y2930811D02*
Y2916575D01*
X2798528D01*
X2797983Y2919317D01*
X2793597Y2925880D01*
X2787033Y2930266D01*
X2784291Y2930811D01*
D02*
G37*
G36*
X2774291D02*
X2771549Y2930266D01*
X2764986Y2925880D01*
X2760600Y2919317D01*
X2760055Y2916575D01*
X2774291D01*
Y2930811D01*
D02*
G37*
G36*
X2974547Y2908705D02*
Y2894468D01*
X2988784D01*
X2988238Y2897211D01*
X2983853Y2903774D01*
X2977289Y2908160D01*
X2974547Y2908705D01*
D02*
G37*
G36*
X2964547D02*
X2961805Y2908160D01*
X2955242Y2903774D01*
X2950856Y2897211D01*
X2950311Y2894468D01*
X2964547D01*
Y2908705D01*
D02*
G37*
G36*
X2798528Y2906575D02*
X2784291D01*
Y2892338D01*
X2787033Y2892884D01*
X2793597Y2897269D01*
X2797983Y2903833D01*
X2798528Y2906575D01*
D02*
G37*
G36*
X2774291D02*
X2760055D01*
X2760600Y2903833D01*
X2764986Y2897269D01*
X2771549Y2892884D01*
X2774291Y2892338D01*
Y2906575D01*
D02*
G37*
G36*
X2988784Y2884468D02*
X2974547D01*
Y2870232D01*
X2977289Y2870777D01*
X2983853Y2875163D01*
X2988238Y2881726D01*
X2988784Y2884468D01*
D02*
G37*
G36*
X2964547D02*
X2950311D01*
X2950856Y2881726D01*
X2955242Y2875163D01*
X2961805Y2870777D01*
X2964547Y2870232D01*
Y2884468D01*
D02*
G37*
G36*
X306024Y3764683D02*
Y3730472D01*
X340234D01*
X339534Y3735791D01*
X335551Y3745407D01*
X329215Y3753664D01*
X320958Y3759999D01*
X311343Y3763982D01*
X306024Y3764683D01*
D02*
G37*
G36*
X296024D02*
X290705Y3763982D01*
X281090Y3759999D01*
X272833Y3753664D01*
X266497Y3745407D01*
X262514Y3735791D01*
X261814Y3730472D01*
X296024D01*
Y3764683D01*
D02*
G37*
G36*
X340234Y3720472D02*
X306024D01*
Y3686262D01*
X311343Y3686962D01*
X320958Y3690945D01*
X329215Y3697281D01*
X335551Y3705538D01*
X339534Y3715153D01*
X340234Y3720472D01*
D02*
G37*
G36*
X296024D02*
X261814D01*
X262514Y3715153D01*
X266497Y3705538D01*
X272833Y3697281D01*
X281090Y3690945D01*
X290705Y3686962D01*
X296024Y3686262D01*
Y3720472D01*
D02*
G37*
G36*
X616379Y3331772D02*
X593662D01*
Y3311024D01*
X616379D01*
Y3331772D01*
D02*
G37*
G36*
X583662D02*
X560946D01*
Y3311024D01*
X583662D01*
Y3331772D01*
D02*
G37*
G36*
X616379Y3301024D02*
X588662D01*
X560946D01*
Y3280276D01*
X565721D01*
Y3269764D01*
X567467Y3260985D01*
X572440Y3253543D01*
X579883Y3248570D01*
X588662Y3246823D01*
X597441Y3248570D01*
X604884Y3253543D01*
X609856Y3260985D01*
X611603Y3269764D01*
Y3280276D01*
X616379D01*
Y3301024D01*
D02*
G37*
G36*
X207795Y3176520D02*
Y3162284D01*
X222032D01*
X221487Y3165026D01*
X217101Y3171589D01*
X210537Y3175975D01*
X207795Y3176520D01*
D02*
G37*
G36*
X197795D02*
X195053Y3175975D01*
X188490Y3171589D01*
X184104Y3165026D01*
X183559Y3162284D01*
X197795D01*
Y3176520D01*
D02*
G37*
G36*
X222032Y3152284D02*
X207795D01*
Y3138047D01*
X210537Y3138592D01*
X217101Y3142978D01*
X221487Y3149541D01*
X222032Y3152284D01*
D02*
G37*
G36*
X197795D02*
X183559D01*
X184104Y3149541D01*
X188490Y3142978D01*
X195053Y3138592D01*
X197795Y3138047D01*
Y3152284D01*
D02*
G37*
G36*
X206220Y3044158D02*
Y3029921D01*
X220457D01*
X219912Y3032663D01*
X215526Y3039227D01*
X208963Y3043613D01*
X206220Y3044158D01*
D02*
G37*
G36*
X196220D02*
X193478Y3043613D01*
X186915Y3039227D01*
X182529Y3032663D01*
X181984Y3029921D01*
X196220D01*
Y3044158D01*
D02*
G37*
G36*
X438791Y3116615D02*
X383358D01*
Y3027718D01*
X438791D01*
Y3116615D01*
D02*
G37*
G36*
X220457Y3019921D02*
X206220D01*
Y3005685D01*
X208963Y3006230D01*
X215526Y3010616D01*
X219912Y3017179D01*
X220457Y3019921D01*
D02*
G37*
G36*
X196220D02*
X181984D01*
X182529Y3017179D01*
X186915Y3010616D01*
X193478Y3006230D01*
X196220Y3005685D01*
Y3019921D01*
D02*
G37*
G36*
X556641Y2769859D02*
X529988D01*
Y2746158D01*
X556641D01*
Y2769859D01*
D02*
G37*
G36*
X202520Y2694906D02*
Y2680669D01*
X216756D01*
X216211Y2683412D01*
X211825Y2689975D01*
X205262Y2694361D01*
X202520Y2694906D01*
D02*
G37*
G36*
X192520D02*
X189778Y2694361D01*
X183214Y2689975D01*
X178828Y2683412D01*
X178283Y2680669D01*
X192520D01*
Y2694906D01*
D02*
G37*
G36*
X216756Y2670669D02*
X202520D01*
Y2656433D01*
X205262Y2656978D01*
X211825Y2661364D01*
X216211Y2667927D01*
X216756Y2670669D01*
D02*
G37*
G36*
X192520D02*
X178283D01*
X178828Y2667927D01*
X183214Y2661364D01*
X189778Y2656978D01*
X192520Y2656433D01*
Y2670669D01*
D02*
G37*
G36*
X641024Y2625339D02*
Y2611102D01*
X655260D01*
X654715Y2613845D01*
X650329Y2620408D01*
X643766Y2624794D01*
X641024Y2625339D01*
D02*
G37*
G36*
X631024D02*
X628282Y2624794D01*
X621718Y2620408D01*
X617332Y2613845D01*
X616787Y2611102D01*
X631024D01*
Y2625339D01*
D02*
G37*
G36*
X269842Y2620260D02*
Y2606024D01*
X284079D01*
X283534Y2608766D01*
X279148Y2615329D01*
X272585Y2619715D01*
X269842Y2620260D01*
D02*
G37*
G36*
X259842D02*
X257100Y2619715D01*
X250537Y2615329D01*
X246151Y2608766D01*
X245606Y2606024D01*
X259842D01*
Y2620260D01*
D02*
G37*
G36*
X201024D02*
Y2606024D01*
X215260D01*
X214715Y2608766D01*
X210329Y2615329D01*
X203766Y2619715D01*
X201024Y2620260D01*
D02*
G37*
G36*
X191024D02*
X188281Y2619715D01*
X181718Y2615329D01*
X177332Y2608766D01*
X176787Y2606024D01*
X191024D01*
Y2620260D01*
D02*
G37*
G36*
X655260Y2601102D02*
X641024D01*
Y2586866D01*
X643766Y2587411D01*
X650329Y2591797D01*
X654715Y2598360D01*
X655260Y2601102D01*
D02*
G37*
G36*
X631024D02*
X616787D01*
X617332Y2598360D01*
X621718Y2591797D01*
X628282Y2587411D01*
X631024Y2586866D01*
Y2601102D01*
D02*
G37*
G36*
X284079Y2596024D02*
X269842D01*
Y2581787D01*
X272585Y2582332D01*
X279148Y2586718D01*
X283534Y2593282D01*
X284079Y2596024D01*
D02*
G37*
G36*
X259842D02*
X245606D01*
X246151Y2593282D01*
X250537Y2586718D01*
X257100Y2582332D01*
X259842Y2581787D01*
Y2596024D01*
D02*
G37*
G36*
X215260D02*
X201024D01*
Y2581787D01*
X203766Y2582332D01*
X210329Y2586718D01*
X214715Y2593282D01*
X215260Y2596024D01*
D02*
G37*
G36*
X191024D02*
X176787D01*
X177332Y2593282D01*
X181718Y2586718D01*
X188281Y2582332D01*
X191024Y2581787D01*
Y2596024D01*
D02*
G37*
G36*
X406074Y2870551D02*
X338082D01*
Y2831102D01*
X406074D01*
Y2870551D01*
D02*
G37*
G36*
Y2821102D02*
X338082D01*
Y2781653D01*
X406074D01*
Y2821102D01*
D02*
G37*
G36*
X487192Y2661158D02*
X462428D01*
X437664D01*
Y2636473D01*
X446044D01*
Y2627754D01*
X442135Y2624754D01*
X437377Y2618553D01*
X434386Y2611332D01*
X434024Y2608583D01*
X463307D01*
X492590D01*
X492228Y2611332D01*
X489237Y2618553D01*
X484479Y2624754D01*
X479691Y2628428D01*
Y2636473D01*
X487192D01*
Y2661158D01*
D02*
G37*
G36*
X492590Y2598583D02*
X468307D01*
Y2574300D01*
X471056Y2574662D01*
X478278Y2577653D01*
X484479Y2582411D01*
X489237Y2588612D01*
X492228Y2595833D01*
X492590Y2598583D01*
D02*
G37*
G36*
X458307D02*
X434024D01*
X434386Y2595833D01*
X437377Y2588612D01*
X442135Y2582411D01*
X448336Y2577653D01*
X455558Y2574662D01*
X458307Y2574300D01*
Y2598583D01*
D02*
G37*
G36*
X2348071Y2251205D02*
Y2236968D01*
X2362307D01*
X2361762Y2239711D01*
X2357376Y2246274D01*
X2350813Y2250660D01*
X2348071Y2251205D01*
D02*
G37*
G36*
X2338071D02*
X2335329Y2250660D01*
X2328765Y2246274D01*
X2324380Y2239711D01*
X2323834Y2236968D01*
X2338071D01*
Y2251205D01*
D02*
G37*
G36*
X2512008Y2250063D02*
X2509266Y2249518D01*
X2502702Y2245132D01*
X2498317Y2238569D01*
X2497771Y2235827D01*
X2512008D01*
Y2250063D01*
D02*
G37*
G36*
X2362307Y2226968D02*
X2348071D01*
Y2212732D01*
X2350813Y2213277D01*
X2357376Y2217663D01*
X2361762Y2224226D01*
X2362307Y2226968D01*
D02*
G37*
G36*
X2338071D02*
X2323834D01*
X2324380Y2224226D01*
X2328765Y2217663D01*
X2335329Y2213277D01*
X2338071Y2212732D01*
Y2226968D01*
D02*
G37*
G36*
X2536244Y2225827D02*
X2522008D01*
Y2211590D01*
X2524750Y2212136D01*
X2531313Y2216521D01*
X2535699Y2223085D01*
X2536244Y2225827D01*
D02*
G37*
G36*
X2512008D02*
X2497771D01*
X2498317Y2223085D01*
X2502702Y2216521D01*
X2509266Y2212136D01*
X2512008Y2211590D01*
Y2225827D01*
D02*
G37*
G36*
X2386575Y2167830D02*
X2378833Y2166290D01*
X2372269Y2161904D01*
X2367884Y2155340D01*
X2366344Y2147598D01*
X2367884Y2139856D01*
X2372269Y2133293D01*
X2378833Y2128907D01*
X2386575Y2127367D01*
X2394317Y2128907D01*
X2400881Y2133293D01*
X2405266Y2139856D01*
X2406806Y2147598D01*
X2405266Y2155340D01*
X2400881Y2161904D01*
X2394317Y2166290D01*
X2386575Y2167830D01*
D02*
G37*
G36*
X2215787Y2123174D02*
X2213045Y2122628D01*
X2206482Y2118243D01*
X2202096Y2111679D01*
X2201551Y2108937D01*
X2215787D01*
Y2123174D01*
D02*
G37*
G36*
X2509803Y2035969D02*
Y2021732D01*
X2524040D01*
X2523494Y2024474D01*
X2519109Y2031038D01*
X2512545Y2035424D01*
X2509803Y2035969D01*
D02*
G37*
G36*
X2499803D02*
X2497061Y2035424D01*
X2490498Y2031038D01*
X2486112Y2024474D01*
X2485567Y2021732D01*
X2499803D01*
Y2035969D01*
D02*
G37*
G36*
X2211142Y2024237D02*
X2208400Y2023691D01*
X2201836Y2019306D01*
X2197450Y2012742D01*
X2196905Y2010000D01*
X2211142D01*
Y2024237D01*
D02*
G37*
G36*
X2524040Y2011732D02*
X2509803D01*
Y1997496D01*
X2512545Y1998041D01*
X2519109Y2002427D01*
X2523494Y2008990D01*
X2524040Y2011732D01*
D02*
G37*
G36*
X2499803D02*
X2485567D01*
X2486112Y2008990D01*
X2490498Y2002427D01*
X2497061Y1998041D01*
X2499803Y1997496D01*
Y2011732D01*
D02*
G37*
G36*
X865748Y2324289D02*
Y2290079D01*
X899958D01*
X899258Y2295398D01*
X895275Y2305013D01*
X888939Y2313270D01*
X880682Y2319606D01*
X871067Y2323589D01*
X865748Y2324289D01*
D02*
G37*
G36*
X800275Y2324606D02*
X765748D01*
Y2290079D01*
X800275D01*
Y2324606D01*
D02*
G37*
G36*
X855748Y2324289D02*
X850429Y2323589D01*
X840814Y2319606D01*
X832557Y2313270D01*
X826221Y2305013D01*
X822238Y2295398D01*
X821538Y2290079D01*
X855748D01*
Y2324289D01*
D02*
G37*
G36*
X755748Y2324606D02*
X721221D01*
Y2290079D01*
X755748D01*
Y2324606D01*
D02*
G37*
G36*
X855748Y2280079D02*
X821538D01*
X822238Y2274760D01*
X826221Y2265144D01*
X832557Y2256887D01*
X840814Y2250552D01*
X850429Y2246569D01*
X855748Y2245868D01*
Y2280079D01*
D02*
G37*
G36*
X899958D02*
X865748D01*
Y2245868D01*
X871067Y2246569D01*
X880682Y2250552D01*
X888939Y2256887D01*
X895275Y2265144D01*
X899258Y2274760D01*
X899958Y2280079D01*
D02*
G37*
G36*
X800275D02*
X765748D01*
Y2245551D01*
X800275D01*
Y2280079D01*
D02*
G37*
G36*
X755748D02*
X721221D01*
Y2245551D01*
X755748D01*
Y2280079D01*
D02*
G37*
G36*
X865748Y2224289D02*
Y2190079D01*
X899958D01*
X899258Y2195398D01*
X895275Y2205013D01*
X888939Y2213270D01*
X880682Y2219606D01*
X871067Y2223589D01*
X865748Y2224289D01*
D02*
G37*
G36*
X765748D02*
Y2190079D01*
X799958D01*
X799258Y2195398D01*
X795275Y2205013D01*
X788939Y2213270D01*
X780682Y2219606D01*
X771067Y2223589D01*
X765748Y2224289D01*
D02*
G37*
G36*
X855748D02*
X850429Y2223589D01*
X840814Y2219606D01*
X832557Y2213270D01*
X826221Y2205013D01*
X822238Y2195398D01*
X821538Y2190079D01*
X855748D01*
Y2224289D01*
D02*
G37*
G36*
X755748D02*
X750429Y2223589D01*
X740814Y2219606D01*
X732557Y2213270D01*
X726221Y2205013D01*
X722238Y2195398D01*
X721538Y2190079D01*
X755748D01*
Y2224289D01*
D02*
G37*
G36*
X855748Y2180079D02*
X821538D01*
X822238Y2174760D01*
X826221Y2165144D01*
X832557Y2156887D01*
X840814Y2150552D01*
X850429Y2146569D01*
X855748Y2145868D01*
Y2180079D01*
D02*
G37*
G36*
X755748D02*
X721538D01*
X722238Y2174760D01*
X726221Y2165144D01*
X732557Y2156887D01*
X740814Y2150552D01*
X750429Y2146569D01*
X755748Y2145868D01*
Y2180079D01*
D02*
G37*
G36*
X899958D02*
X865748D01*
Y2145868D01*
X871067Y2146569D01*
X880682Y2150552D01*
X888939Y2156887D01*
X895275Y2165144D01*
X899258Y2174760D01*
X899958Y2180079D01*
D02*
G37*
G36*
X799958D02*
X765748D01*
Y2145868D01*
X771067Y2146569D01*
X780682Y2150552D01*
X788939Y2156887D01*
X795275Y2165144D01*
X799258Y2174760D01*
X799958Y2180079D01*
D02*
G37*
G36*
X865748Y2124289D02*
Y2090079D01*
X899958D01*
X899258Y2095398D01*
X895275Y2105013D01*
X888939Y2113270D01*
X880682Y2119606D01*
X871067Y2123589D01*
X865748Y2124289D01*
D02*
G37*
G36*
X765748D02*
Y2090079D01*
X799958D01*
X799258Y2095398D01*
X795275Y2105013D01*
X788939Y2113270D01*
X780682Y2119606D01*
X771067Y2123589D01*
X765748Y2124289D01*
D02*
G37*
G36*
X855748D02*
X850429Y2123589D01*
X840814Y2119606D01*
X832557Y2113270D01*
X826221Y2105013D01*
X822238Y2095398D01*
X821538Y2090079D01*
X855748D01*
Y2124289D01*
D02*
G37*
G36*
X755748D02*
X750429Y2123589D01*
X740814Y2119606D01*
X732557Y2113270D01*
X726221Y2105013D01*
X722238Y2095398D01*
X721538Y2090079D01*
X755748D01*
Y2124289D01*
D02*
G37*
G36*
X855748Y2080079D02*
X821538D01*
X822238Y2074760D01*
X826221Y2065144D01*
X832557Y2056887D01*
X840814Y2050552D01*
X850429Y2046569D01*
X855748Y2045868D01*
Y2080079D01*
D02*
G37*
G36*
X755748D02*
X721538D01*
X722238Y2074760D01*
X726221Y2065144D01*
X732557Y2056887D01*
X740814Y2050552D01*
X750429Y2046569D01*
X755748Y2045868D01*
Y2080079D01*
D02*
G37*
G36*
X899958D02*
X865748D01*
Y2045868D01*
X871067Y2046569D01*
X880682Y2050552D01*
X888939Y2056887D01*
X895275Y2065144D01*
X899258Y2074760D01*
X899958Y2080079D01*
D02*
G37*
G36*
X799958D02*
X765748D01*
Y2045868D01*
X771067Y2046569D01*
X780682Y2050552D01*
X788939Y2056887D01*
X795275Y2065144D01*
X799258Y2074760D01*
X799958Y2080079D01*
D02*
G37*
G36*
X3100315Y1927675D02*
Y1893465D01*
X3134525D01*
X3133825Y1898783D01*
X3129842Y1908399D01*
X3123506Y1916656D01*
X3115249Y1922992D01*
X3105634Y1926975D01*
X3100315Y1927675D01*
D02*
G37*
G36*
X3000315D02*
Y1893465D01*
X3034525D01*
X3033825Y1898783D01*
X3029842Y1908399D01*
X3023506Y1916656D01*
X3015249Y1922992D01*
X3005634Y1926975D01*
X3000315Y1927675D01*
D02*
G37*
G36*
X3090315D02*
X3084996Y1926975D01*
X3075381Y1922992D01*
X3067124Y1916656D01*
X3060788Y1908399D01*
X3056805Y1898783D01*
X3056105Y1893465D01*
X3090315D01*
Y1927675D01*
D02*
G37*
G36*
X2990315D02*
X2984996Y1926975D01*
X2975381Y1922992D01*
X2967124Y1916656D01*
X2960788Y1908399D01*
X2956805Y1898783D01*
X2956105Y1893465D01*
X2990315D01*
Y1927675D01*
D02*
G37*
G36*
X3134525Y1883465D02*
X3100315D01*
Y1849254D01*
X3105634Y1849955D01*
X3115249Y1853937D01*
X3123506Y1860273D01*
X3129842Y1868530D01*
X3133825Y1878146D01*
X3134525Y1883465D01*
D02*
G37*
G36*
X3034525D02*
X3000315D01*
Y1849254D01*
X3005634Y1849955D01*
X3015249Y1853937D01*
X3023506Y1860273D01*
X3029842Y1868530D01*
X3033825Y1878146D01*
X3034525Y1883465D01*
D02*
G37*
G36*
X3090315D02*
X3056105D01*
X3056805Y1878146D01*
X3060788Y1868530D01*
X3067124Y1860273D01*
X3075381Y1853937D01*
X3084996Y1849955D01*
X3090315Y1849254D01*
Y1883465D01*
D02*
G37*
G36*
X2990315D02*
X2956105D01*
X2956805Y1878146D01*
X2960788Y1868530D01*
X2967124Y1860273D01*
X2975381Y1853937D01*
X2984996Y1849955D01*
X2990315Y1849254D01*
Y1883465D01*
D02*
G37*
G36*
X3134843Y1827992D02*
X3100315D01*
Y1793465D01*
X3134843D01*
Y1827992D01*
D02*
G37*
G36*
X3000315Y1827675D02*
Y1793465D01*
X3034525D01*
X3033825Y1798783D01*
X3029842Y1808399D01*
X3023506Y1816656D01*
X3015249Y1822992D01*
X3005634Y1826975D01*
X3000315Y1827675D01*
D02*
G37*
G36*
X2990315D02*
X2984996Y1826975D01*
X2975381Y1822992D01*
X2967124Y1816656D01*
X2960788Y1808399D01*
X2956805Y1798783D01*
X2956105Y1793465D01*
X2990315D01*
Y1827675D01*
D02*
G37*
G36*
X3090315Y1827992D02*
X3055787D01*
Y1793465D01*
X3090315D01*
Y1827992D01*
D02*
G37*
G36*
X3034525Y1783465D02*
X3000315D01*
Y1749254D01*
X3005634Y1749955D01*
X3015249Y1753937D01*
X3023506Y1760273D01*
X3029842Y1768530D01*
X3033825Y1778146D01*
X3034525Y1783465D01*
D02*
G37*
G36*
X2990315D02*
X2956105D01*
X2956805Y1778146D01*
X2960788Y1768530D01*
X2967124Y1760273D01*
X2975381Y1753937D01*
X2984996Y1749955D01*
X2990315Y1749254D01*
Y1783465D01*
D02*
G37*
G36*
X3134843D02*
X3100315D01*
Y1748937D01*
X3134843D01*
Y1783465D01*
D02*
G37*
G36*
X3090315D02*
X3055787D01*
Y1748937D01*
X3090315D01*
Y1783465D01*
D02*
G37*
G36*
X350866Y711181D02*
X322244D01*
Y678622D01*
X350866D01*
Y711181D01*
D02*
G37*
G36*
X303799Y712303D02*
X274114D01*
X244429D01*
Y686634D01*
X256498D01*
Y678274D01*
X253907Y674396D01*
X253361Y671654D01*
X291835D01*
X291289Y674396D01*
X287086Y680687D01*
Y686634D01*
X303799D01*
Y712303D01*
D02*
G37*
G36*
X291835Y661654D02*
X277598D01*
Y647417D01*
X280340Y647963D01*
X286904Y652348D01*
X291289Y658912D01*
X291835Y661654D01*
D02*
G37*
G36*
X267598D02*
X253361D01*
X253907Y658912D01*
X258292Y652348D01*
X264856Y647963D01*
X267598Y647417D01*
Y661654D01*
D02*
G37*
G36*
X350866Y668622D02*
X322244D01*
Y636063D01*
X350866D01*
Y668622D01*
D02*
G37*
G36*
X276890Y618489D02*
Y604252D01*
X291126D01*
X290581Y606994D01*
X286195Y613558D01*
X279632Y617943D01*
X276890Y618489D01*
D02*
G37*
G36*
X266890D02*
X264148Y617943D01*
X257584Y613558D01*
X253199Y606994D01*
X252653Y604252D01*
X266890D01*
Y618489D01*
D02*
G37*
G36*
X374685Y603071D02*
X349016D01*
Y590378D01*
X338240D01*
X333156Y593775D01*
X330414Y594321D01*
Y575084D01*
Y555847D01*
X333156Y556393D01*
X338240Y559790D01*
X349016D01*
Y543701D01*
X374685D01*
Y573386D01*
Y603071D01*
D02*
G37*
G36*
X320414Y594321D02*
X317672Y593775D01*
X311108Y589390D01*
X306723Y582826D01*
X306177Y580084D01*
X320414D01*
Y594321D01*
D02*
G37*
G36*
X291126Y594252D02*
X276890D01*
Y580015D01*
X279632Y580561D01*
X286195Y584946D01*
X290581Y591510D01*
X291126Y594252D01*
D02*
G37*
G36*
X266890D02*
X252653D01*
X253199Y591510D01*
X257584Y584946D01*
X264148Y580561D01*
X266890Y580015D01*
Y594252D01*
D02*
G37*
G36*
X320414Y570084D02*
X306177D01*
X306723Y567342D01*
X311108Y560778D01*
X317672Y556393D01*
X320414Y555847D01*
Y570084D01*
D02*
G37*
G36*
X2588543Y645748D02*
X2563858D01*
Y625000D01*
X2588543D01*
Y645748D01*
D02*
G37*
G36*
X2553858D02*
X2529173D01*
Y625000D01*
X2553858D01*
Y645748D01*
D02*
G37*
%LPD*%
D10*
X929245Y1749608D02*
G03*
X929245Y1757315I-3854J3854D01*
G01*
X917163Y1745234D02*
G03*
X924871Y1745234I3854J3854D01*
G01*
X917163D02*
G03*
X906895Y1745234I-5134J-5134D01*
G01*
X905081Y1743419D02*
G03*
X905081Y1733151I5134J-5134D01*
G01*
Y1725443D02*
G03*
X905081Y1733151I-3854J3854D01*
G01*
X892999Y1721069D02*
G03*
X900707Y1721069I3854J3854D01*
G01*
X892999D02*
G03*
X882731Y1721069I-5134J-5134D01*
G01*
X880917Y1719255D02*
G03*
X880917Y1708987I5134J-5134D01*
G01*
Y1701279D02*
G03*
X880917Y1708987I-3854J3854D01*
G01*
X868835Y1696905D02*
G03*
X876543Y1696905I3854J3854D01*
G01*
X868835D02*
G03*
X858567Y1696905I-5134J-5134D01*
G01*
X856752Y1695090D02*
G03*
X856752Y1684823I5134J-5134D01*
G01*
Y1677115D02*
G03*
X856752Y1684823I-3854J3854D01*
G01*
X844670Y1672741D02*
G03*
X852378Y1672741I3854J3854D01*
G01*
X844670D02*
G03*
X834403Y1672741I-5134J-5134D01*
G01*
X832588Y1670926D02*
G03*
X832588Y1660659I5134J-5134D01*
G01*
Y1652950D02*
G03*
X832588Y1660659I-3855J3855D01*
G01*
X820506Y1648577D02*
G03*
X828216Y1648577I3855J3855D01*
G01*
X820506D02*
G03*
X810239Y1648577I-5134J-5134D01*
G01*
X808424Y1646762D02*
G03*
X808424Y1636495I5134J-5134D01*
G01*
Y1628786D02*
G03*
X808424Y1636495I-3855J3855D01*
G01*
X796342Y1624413D02*
G03*
X804051Y1624413I3855J3855D01*
G01*
X796342D02*
G03*
X786075Y1624413I-5134J-5134D01*
G01*
X784260Y1622598D02*
G03*
X784260Y1612331I5134J-5134D01*
G01*
Y1604622D02*
G03*
X784260Y1612331I-3855J3855D01*
G01*
X772178Y1600249D02*
G03*
X779887Y1600249I3855J3855D01*
G01*
X772178D02*
G03*
X761911Y1600249I-5134J-5134D01*
G01*
X760096Y1598434D02*
G03*
X760096Y1588167I5134J-5134D01*
G01*
X1052598Y1630276D02*
G03*
X1046929Y1624606I0J-5669D01*
G01*
X1041259Y1599568D02*
G03*
X1046929Y1605237I0J5669D01*
G01*
X1032755D02*
G03*
X1038425Y1599568I5669J0D01*
G01*
X1032755Y1651041D02*
G03*
X1027086Y1656711I-5669J0D01*
G01*
X1024252D02*
G03*
X1018582Y1651041I0J-5669D01*
G01*
X1012913Y1613359D02*
G03*
X1018582Y1619028I0J5669D01*
G01*
X1004409D02*
G03*
X1010078Y1613359I5669J0D01*
G01*
X1004409Y1651041D02*
G03*
X998740Y1656711I-5669J0D01*
G01*
X995905D02*
G03*
X990236Y1651041I0J-5669D01*
G01*
X984567Y1613359D02*
G03*
X990236Y1619028I0J5669D01*
G01*
X976063D02*
G03*
X981732Y1613359I5669J0D01*
G01*
X976063Y1651041D02*
G03*
X970393Y1656711I-5669J0D01*
G01*
X967559D02*
G03*
X961889Y1651041I0J-5669D01*
G01*
X956220Y1630276D02*
G03*
X961889Y1635945I0J5669D01*
G01*
X1014252Y1577284D02*
G03*
X1019921Y1571614I5669J0D01*
G01*
X1014252Y1596654D02*
G03*
X1008582Y1602323I-5669J0D01*
G01*
X1005748D02*
G03*
X1000079Y1596654I0J-5669D01*
G01*
X994409Y1540905D02*
G03*
X1000079Y1546575I0J5669D01*
G01*
X985905D02*
G03*
X991575Y1540905I5669J0D01*
G01*
X985905Y1596654D02*
G03*
X980236Y1602323I-5669J0D01*
G01*
X977402D02*
G03*
X971732Y1596654I0J-5669D01*
G01*
X966063Y1540905D02*
G03*
X971732Y1546575I0J5669D01*
G01*
X957559D02*
G03*
X963228Y1540905I5669J0D01*
G01*
X957559Y1565945D02*
G03*
X951890Y1571614I-5669J0D01*
G01*
X894153Y1627091D02*
G03*
X902170Y1627091I4009J4009D01*
G01*
X893271Y1627973D02*
G03*
X885254Y1627973I-4009J-4009D01*
G01*
X883249Y1625968D02*
G03*
X883249Y1617951I4009J-4009D01*
G01*
X894186Y1598997D02*
G03*
X894186Y1607014I-4009J4009D01*
G01*
X884164Y1596992D02*
G03*
X892181Y1596992I4009J4009D01*
G01*
X873227Y1607929D02*
G03*
X865210Y1607929I-4009J-4009D01*
G01*
X863205Y1605924D02*
G03*
X863205Y1597907I4009J-4009D01*
G01*
X874142Y1578953D02*
G03*
X874142Y1586970I-4009J4009D01*
G01*
X864120Y1576948D02*
G03*
X872137Y1576948I4009J4009D01*
G01*
X853183Y1587885D02*
G03*
X845166Y1587885I-4009J-4009D01*
G01*
X843161Y1585880D02*
G03*
X843161Y1577863I4009J-4009D01*
G01*
X854098Y1558909D02*
G03*
X854098Y1566926I-4009J4009D01*
G01*
X844076Y1556904D02*
G03*
X852093Y1556904I4009J4009D01*
G01*
X833139Y1567841D02*
G03*
X825122Y1567841I-4009J-4009D01*
G01*
X823117Y1565836D02*
G03*
X823117Y1557819I4009J-4009D01*
G01*
X834054Y1538865D02*
G03*
X834054Y1546882I-4009J4009D01*
G01*
X824032Y1536860D02*
G03*
X832049Y1536860I4009J4009D01*
G01*
X813096Y1547797D02*
G03*
X805078Y1547797I-4009J-4009D01*
G01*
X803073Y1545793D02*
G03*
X803073Y1537775I4009J-4009D01*
G01*
X803955Y1528876D02*
G03*
X803955Y1536894I-4009J4009D01*
G01*
X1400598Y1417402D02*
G03*
X1401694Y1418498I0J1096D01*
G01*
X1400598Y1417402D02*
G03*
X1393763Y1410568I0J-6835D01*
G01*
Y1407150D02*
G03*
X1400598Y1400316I6835J0D01*
G01*
X1411203Y1393481D02*
G03*
X1404368Y1400316I-6835J0D01*
G01*
Y1383229D02*
G03*
X1411203Y1390064I0J6835D01*
G01*
X1400598Y1383229D02*
G03*
X1393763Y1376395I0J-6835D01*
G01*
Y1372977D02*
G03*
X1400598Y1366143I6835J0D01*
G01*
X1411203Y1359308D02*
G03*
X1404368Y1366143I-6835J0D01*
G01*
Y1349056D02*
G03*
X1411203Y1355891I0J6835D01*
G01*
X1400598Y1349056D02*
G03*
X1393763Y1342222I0J-6835D01*
G01*
Y1338804D02*
G03*
X1400598Y1331969I6835J0D01*
G01*
X1411203Y1325135D02*
G03*
X1404368Y1331969I-6835J0D01*
G01*
Y1314883D02*
G03*
X1411203Y1321717I0J6835D01*
G01*
X1400598Y1314883D02*
G03*
X1393763Y1308048I0J-6835D01*
G01*
Y1304631D02*
G03*
X1400598Y1297796I6835J0D01*
G01*
X1411203Y1290962D02*
G03*
X1404368Y1297796I-6835J0D01*
G01*
Y1280710D02*
G03*
X1411203Y1287544I0J6835D01*
G01*
X1400598Y1280710D02*
G03*
X1393763Y1273875I0J-6835D01*
G01*
Y1270458D02*
G03*
X1400598Y1263623I6835J0D01*
G01*
X1411203Y1256789D02*
G03*
X1404368Y1263623I-6835J0D01*
G01*
Y1246536D02*
G03*
X1411203Y1253371I0J6835D01*
G01*
X1404368Y1246536D02*
G03*
X1401694Y1243862I0J-2674D01*
G01*
X1382096Y1209606D02*
G03*
X1390393Y1209606I4149J4149D01*
G01*
X1382096D02*
G03*
X1372431Y1209606I-4833J-4833D01*
G01*
X1370014Y1207189D02*
G03*
X1370014Y1197524I4833J-4833D01*
G01*
X1378418Y1179455D02*
G03*
X1378418Y1189120I-4833J4833D01*
G01*
X1366336Y1177038D02*
G03*
X1376001Y1177038I4833J4833D01*
G01*
X1366336Y1177038D02*
G03*
X1357826Y1177038I-4255J-4255D01*
G01*
X1354254Y1173466D02*
G03*
X1354254Y1164956I4255J-4255D01*
G01*
X1354254Y1155291D02*
G03*
X1354254Y1164956I-4833J4833D01*
G01*
X1342172Y1152874D02*
G03*
X1351837Y1152874I4833J4833D01*
G01*
X1337146Y1157900D02*
G03*
X1327481Y1157900I-4833J-4833D01*
G01*
X1325064Y1155483D02*
G03*
X1325064Y1145818I4833J-4833D01*
G01*
X1336195Y1125021D02*
G03*
X1336195Y1134687I-4833J4833D01*
G01*
X1324113Y1122605D02*
G03*
X1333778Y1122605I4833J4833D01*
G01*
X1318585Y1128132D02*
G03*
X1308920Y1128132I-4833J-4833D01*
G01*
X1271968Y1116608D02*
G03*
X1273735Y1114842I1766J0D01*
G01*
X1271968Y1116608D02*
G03*
X1265134Y1123443I-6835J0D01*
G01*
X1261716D02*
G03*
X1254882Y1116608I0J-6835D01*
G01*
X1253116Y1114842D02*
G03*
X1254882Y1116608I0J1766D01*
G01*
X1237795D02*
G03*
X1239562Y1114842I1766J0D01*
G01*
X1237795Y1116608D02*
G03*
X1230961Y1123443I-6835J0D01*
G01*
X1227543D02*
G03*
X1220709Y1116608I0J-6835D01*
G01*
X1213874Y1106361D02*
G03*
X1220709Y1113196I0J6835D01*
G01*
X1203622D02*
G03*
X1210457Y1106361I6835J0D01*
G01*
X1203622Y1116608D02*
G03*
X1196787Y1123443I-6835J0D01*
G01*
X1193370D02*
G03*
X1186535Y1116608I0J-6835D01*
G01*
X1184769Y1114842D02*
G03*
X1186535Y1116608I0J1766D01*
G01*
X1130275Y1835615D02*
G03*
X1137110Y1828780I6835J0D01*
G01*
X1130275Y1850190D02*
G03*
X1123441Y1857025I-6835J0D01*
G01*
X1120024D02*
G03*
X1113189Y1850190I0J-6835D01*
G01*
X1106354Y1820179D02*
G03*
X1113189Y1827014I0J6835D01*
G01*
X1096102D02*
G03*
X1102937Y1820179I6835J0D01*
G01*
X1096102Y1850190D02*
G03*
X1089268Y1857025I-6835J0D01*
G01*
X1085850D02*
G03*
X1079016Y1850190I0J-6835D01*
G01*
X1072181Y1820179D02*
G03*
X1079016Y1827014I0J6835D01*
G01*
X1061929D02*
G03*
X1068764Y1820179I6835J0D01*
G01*
X1061929Y1850190D02*
G03*
X1055094Y1857025I-6835J0D01*
G01*
X1051677D02*
G03*
X1044842Y1850190I0J-6835D01*
G01*
X1038008Y1828780D02*
G03*
X1044842Y1835615I0J6835D01*
G01*
X891331Y1545347D02*
G03*
X891331Y1530025I7661J-7661D01*
G01*
X897723Y1508310D02*
G03*
X897723Y1523633I-7661J7661D01*
G01*
X878570Y1504480D02*
G03*
X893892Y1504480I7661J7661D01*
G01*
X862458Y1520592D02*
G03*
X847135Y1520592I-7661J-7661D01*
G01*
X843305Y1516761D02*
G03*
X843305Y1501439I7661J-7661D01*
G01*
Y1497321D02*
G03*
X843304Y1501439I-2059J2059D01*
G01*
X1026181Y1702402D02*
G03*
X1020512Y1696732I0J-5669D01*
G01*
X1014842Y1678880D02*
G03*
X1020512Y1684550I0J5669D01*
G01*
X1006338D02*
G03*
X1012008Y1678880I5669J0D01*
G01*
X1006338Y1723898D02*
G03*
X1000669Y1729567I-5669J0D01*
G01*
X997835D02*
G03*
X992165Y1723898I0J-5669D01*
G01*
X986496Y1678880D02*
G03*
X992165Y1684550I0J5669D01*
G01*
X977992D02*
G03*
X983661Y1678880I5669J0D01*
G01*
X977992Y1723898D02*
G03*
X972323Y1729567I-5669J0D01*
G01*
X969488D02*
G03*
X963819Y1723898I0J-5669D01*
G01*
X958150Y1702402D02*
G03*
X963819Y1708071I0J5669D01*
G01*
X1024025Y1803907D02*
G03*
X1024025Y1794241I4833J-4833D01*
G01*
X1090696Y1717905D02*
G03*
X1090696Y1727570I-4833J4833D01*
G01*
X1078613Y1715488D02*
G03*
X1088279Y1715488I4833J4833D01*
G01*
X1007110Y1786992D02*
G03*
X997982Y1786992I-4564J-4564D01*
G01*
X995028Y1784037D02*
G03*
X995028Y1774910I4564J-4564D01*
G01*
X1012018Y1748255D02*
G03*
X1012018Y1757920I-4833J4833D01*
G01*
X999936Y1745838D02*
G03*
X1009601Y1745838I4833J4833D01*
G01*
X982946Y1762828D02*
G03*
X973818Y1762828I-4564J-4564D01*
G01*
X970864Y1759873D02*
G03*
X970864Y1750746I4564J-4564D01*
G01*
X1387294Y1164675D02*
G03*
X1392707Y1164675I2706J2706D01*
G01*
X1387294Y1164675D02*
G03*
X1377628Y1164675I-4833J-4833D01*
G01*
X1375212Y1162259D02*
G03*
X1375212Y1152593I4833J-4833D01*
G01*
X1380838Y1137301D02*
G03*
X1380838Y1146967I-4833J4833D01*
G01*
X1368756Y1134885D02*
G03*
X1378422Y1134885I4833J4833D01*
G01*
X1363130Y1140511D02*
G03*
X1353464Y1140511I-4833J-4833D01*
G01*
X1351048Y1138094D02*
G03*
X1351048Y1128429I4833J-4833D01*
G01*
X1356674Y1113137D02*
G03*
X1356674Y1122803I-4833J4833D01*
G01*
X1344592Y1110721D02*
G03*
X1354257Y1110721I4833J4833D01*
G01*
X1344592Y1110721D02*
G03*
X1338752Y1110721I-2920J-2920D01*
G01*
X1299770Y1097101D02*
G03*
X1302032Y1094955I2204J58D01*
G01*
X1299770Y1097101D02*
G03*
X1292759Y1103755I-6832J-179D01*
G01*
X1289343Y1103666D02*
G03*
X1282689Y1096655I179J-6832D01*
G01*
X1280543Y1094393D02*
G03*
X1282689Y1096655I-58J2204D01*
G01*
X1242087Y1094694D02*
G03*
X1243000Y1093780I914J0D01*
G01*
X1242087Y1094694D02*
G03*
X1235252Y1101528I-6835J0D01*
G01*
X1231835D02*
G03*
X1225000Y1094694I0J-6835D01*
G01*
X1224086Y1093780D02*
G03*
X1225000Y1094694I0J914D01*
G01*
X1356000Y1218702D02*
G03*
X1365946Y1218702I4973J4973D01*
G01*
X1356000D02*
G03*
X1340678Y1218702I-7661J-7661D01*
G01*
X1336847Y1214871D02*
G03*
X1336847Y1199549I7661J-7661D01*
G01*
X1343092Y1177981D02*
G03*
X1343092Y1193304I-7661J7661D01*
G01*
X1323938Y1174151D02*
G03*
X1339261Y1174151I7661J7661D01*
G01*
X1317694Y1180395D02*
G03*
X1302371Y1180395I-7661J-7661D01*
G01*
X1298541Y1176565D02*
G03*
X1298541Y1161242I7661J-7661D01*
G01*
Y1151297D02*
G03*
X1298541Y1161242I-4973J4973D01*
G01*
X1382678Y1430449D02*
G03*
X1375843Y1437284I-6835J0D01*
G01*
X1353605Y1444118D02*
G03*
X1360439Y1437284I6835J0D01*
G01*
Y1454370D02*
G03*
X1353605Y1447536I0J-6835D01*
G01*
X1383774Y1454370D02*
G03*
X1390609Y1461205I0J6835D01*
G01*
Y1464622D02*
G03*
X1383774Y1471457I-6835J0D01*
G01*
X1353605Y1478291D02*
G03*
X1360439Y1471457I6835J0D01*
G01*
Y1488543D02*
G03*
X1353605Y1481709I0J-6835D01*
G01*
X1383774Y1488543D02*
G03*
X1390609Y1495378I0J6835D01*
G01*
Y1498795D02*
G03*
X1383774Y1505630I-6835J0D01*
G01*
X1353605Y1512465D02*
G03*
X1360439Y1505630I6835J0D01*
G01*
Y1522717D02*
G03*
X1353605Y1515882I0J-6835D01*
G01*
X1375843Y1522717D02*
G03*
X1382678Y1529551I0J6835D01*
G01*
X1212394Y1440669D02*
G03*
X1223228Y1451504I0J10835D01*
G01*
X1203355Y1440669D02*
G03*
X1192520Y1429835I0J-10835D01*
G01*
Y1424417D02*
G03*
X1203355Y1413583I10835J0D01*
G01*
X1250551Y1402748D02*
G03*
X1239716Y1413583I-10835J0D01*
G01*
Y1386496D02*
G03*
X1250551Y1397331I0J10835D01*
G01*
X1203355Y1386496D02*
G03*
X1192520Y1375661I0J-10835D01*
G01*
Y1370244D02*
G03*
X1203355Y1359409I10835J0D01*
G01*
X1250551Y1348575D02*
G03*
X1239716Y1359409I-10835J0D01*
G01*
Y1332323D02*
G03*
X1250551Y1343157I0J10835D01*
G01*
X1203355Y1332323D02*
G03*
X1192520Y1321488I0J-10835D01*
G01*
Y1316071D02*
G03*
X1203355Y1305236I10835J0D01*
G01*
X1250551Y1294402D02*
G03*
X1239716Y1305236I-10835J0D01*
G01*
Y1278150D02*
G03*
X1250551Y1288984I0J10835D01*
G01*
X1203355Y1278150D02*
G03*
X1192520Y1267315I0J-10835D01*
G01*
Y1261898D02*
G03*
X1203355Y1251063I10835J0D01*
G01*
X1223228Y1240228D02*
G03*
X1212394Y1251063I-10835J0D01*
G01*
X1331685Y1398149D02*
G03*
X1342520Y1408984I0J10835D01*
G01*
X1326190Y1398149D02*
G03*
X1315355Y1387315I0J-10835D01*
G01*
Y1381897D02*
G03*
X1326190Y1371063I10835J0D01*
G01*
X1371593Y1360228D02*
G03*
X1360758Y1371063I-10835J0D01*
G01*
Y1343976D02*
G03*
X1371593Y1354811I0J10835D01*
G01*
X1326190Y1343976D02*
G03*
X1315355Y1333142I0J-10835D01*
G01*
Y1327724D02*
G03*
X1326190Y1316890I10835J0D01*
G01*
X1371593Y1306055D02*
G03*
X1360758Y1316890I-10835J0D01*
G01*
Y1289803D02*
G03*
X1371593Y1300638I0J10835D01*
G01*
X1327926Y1289803D02*
G03*
X1317091Y1278968I0J-10835D01*
G01*
Y1273551D02*
G03*
X1327926Y1262716I10835J0D01*
G01*
X1342520Y1251882D02*
G03*
X1331685Y1262716I-10835J0D01*
G01*
X1275787Y1479771D02*
G03*
X1286622Y1468937I10835J0D01*
G01*
X1305438Y1458102D02*
G03*
X1294604Y1468937I-10835J0D01*
G01*
Y1441850D02*
G03*
X1305438Y1452685I0J10835D01*
G01*
X1266482Y1441850D02*
G03*
X1255647Y1431016I0J-10835D01*
G01*
Y1425598D02*
G03*
X1266482Y1414764I10835J0D01*
G01*
X1305438Y1403929D02*
G03*
X1294604Y1414764I-10835J0D01*
G01*
Y1387677D02*
G03*
X1305438Y1398512I0J10835D01*
G01*
X1268577Y1387677D02*
G03*
X1257742Y1376842I0J-10835D01*
G01*
Y1371425D02*
G03*
X1268577Y1360590I10835J0D01*
G01*
X1302766Y1349756D02*
G03*
X1291932Y1360590I-10835J0D01*
G01*
Y1333504D02*
G03*
X1302766Y1344338I0J10835D01*
G01*
X1268577Y1333504D02*
G03*
X1257742Y1322669I0J-10835D01*
G01*
Y1317252D02*
G03*
X1268577Y1306417I10835J0D01*
G01*
X1275787Y1299207D02*
G03*
X1268577Y1306417I-7211J0D01*
G01*
X1275787Y1285394D02*
G03*
X1282441Y1278740I6654J0D01*
G01*
X1306496Y1267906D02*
G03*
X1295662Y1278740I-10835J0D01*
G01*
Y1251653D02*
G03*
X1306496Y1262488I0J10835D01*
G01*
X1255913Y1251653D02*
G03*
X1245079Y1240819I0J-10835D01*
G01*
Y1235401D02*
G03*
X1255913Y1224567I10835J0D01*
G01*
X1275787Y1213732D02*
G03*
X1264953Y1224567I-10835J0D01*
G01*
X552362Y2392362D02*
X1249981D01*
X479488Y2319488D02*
X552362Y2392362D01*
X479488Y2024803D02*
Y2319488D01*
X428464Y1973780D02*
X479488Y2024803D01*
X275079Y1973780D02*
X428464D01*
X545709Y2406378D02*
X1252402D01*
X466063Y2326732D02*
X545709Y2406378D01*
X466063Y2127165D02*
Y2326732D01*
X433386Y2094488D02*
X466063Y2127165D01*
X265905Y2094488D02*
X433386D01*
X445394Y2326732D02*
X537441Y2418780D01*
X381260Y2326732D02*
X445394D01*
X369882Y2315354D02*
X381260Y2326732D01*
X369882Y2267795D02*
Y2315354D01*
X320512Y2218425D02*
X369882Y2267795D01*
X270827Y2218425D02*
X320512D01*
X537441Y2418780D02*
X1257599D01*
X531299Y2432323D02*
X1262293Y2432323D01*
X440236Y2341260D02*
X531299Y2432323D01*
X375157Y2341260D02*
X440236D01*
X1356339Y2175787D02*
Y2320039D01*
X1257599Y2418780D02*
X1356339Y2320039D01*
X1342913Y2189213D02*
Y2315866D01*
X1252402Y2406378D02*
X1342913Y2315866D01*
X1330433Y2194457D02*
Y2311910D01*
X1249981Y2392362D02*
X1330433Y2311910D01*
X1324291Y2143740D02*
X1356339Y2175787D01*
X1262293Y2432323D02*
X1369764Y2324852D01*
Y2137480D02*
Y2324852D01*
X1316969Y2084686D02*
X1369764Y2137480D01*
X323425Y1639055D02*
Y1678150D01*
Y1639055D02*
X418425Y1544055D01*
X317283Y2283386D02*
X375157Y2341260D01*
X217677Y2165197D02*
X270827Y2218347D01*
Y2218425D01*
X216654Y2045236D02*
X265905Y2094488D01*
X220354Y1922165D02*
X223465D01*
X275079Y1973780D01*
X222401Y1801220D02*
X279527Y1858347D01*
X457244D01*
X489567Y1826024D01*
X703976D01*
X752638Y1874685D01*
X223425Y1678150D02*
X288189Y1742913D01*
X645236D01*
X762244Y1859921D01*
X256496Y2104016D02*
X317677Y2165197D01*
X174449Y2104016D02*
X256496D01*
X137402Y2066968D02*
X174449Y2104016D01*
X137402Y1533228D02*
Y2066968D01*
Y1533228D02*
X137787Y1532842D01*
Y1524753D02*
Y1532842D01*
Y1524753D02*
X163926Y1498614D01*
X310756D01*
X316319Y1493051D01*
Y1418465D02*
Y1493051D01*
X254724Y1983307D02*
X316654Y2045236D01*
X187205Y1983307D02*
X254724D01*
X148874Y1944976D02*
X187205Y1983307D01*
X148874Y1529345D02*
Y1944976D01*
Y1529345D02*
X168518Y1509701D01*
X325063D01*
X339449Y1495315D01*
Y1418465D02*
Y1495315D01*
X319646Y1801220D02*
X322401D01*
X259213Y1740787D02*
X319646Y1801220D01*
X193543Y1740787D02*
X259213D01*
X159961Y1707205D02*
X193543Y1740787D01*
X159961Y1533937D02*
Y1707205D01*
Y1533937D02*
X173110Y1520787D01*
X447441Y1099803D02*
Y1122480D01*
Y1090984D02*
Y1099803D01*
X396890Y981457D02*
X427919Y950427D01*
X487545D01*
X488720Y949252D01*
X488499Y901787D02*
X488720Y902008D01*
X413439Y901787D02*
X488499D01*
X316319Y998908D02*
X413439Y901787D01*
X316319Y998908D02*
Y1359409D01*
X339449Y991457D02*
Y1359409D01*
Y991457D02*
X418031Y912874D01*
X359646Y1418976D02*
Y1457756D01*
X359134Y1418465D02*
X359646Y1418976D01*
X418031Y912874D02*
X452165D01*
X457047Y917756D01*
X488720D01*
X433721Y933042D02*
X434183Y933504D01*
X488720D01*
X447441Y1075236D02*
Y1090984D01*
Y1122480D02*
X488720D01*
X447441Y1075236D02*
X488720D01*
X438976Y1099803D02*
X447441D01*
X420945Y1077055D02*
Y1132255D01*
Y1077055D02*
X438512Y1059488D01*
X420945Y1132255D02*
X459543Y1170853D01*
X408779Y1073542D02*
Y1138347D01*
X396063Y1070579D02*
Y1143110D01*
X383898Y1067066D02*
Y1146624D01*
X371732Y1063552D02*
Y1163898D01*
X359134Y1060472D02*
Y1359409D01*
X408779Y1073542D02*
X438430Y1043891D01*
X408779Y1138347D02*
X437874Y1167441D01*
X396063Y1070579D02*
X438500Y1028143D01*
X396063Y1143110D02*
X418189Y1165236D01*
X383898Y1067066D02*
X438719Y1012244D01*
X383898Y1146624D02*
X398504Y1161230D01*
X371732Y1063552D02*
X438789Y996496D01*
X371732Y1163898D02*
X378819Y1170984D01*
X359134Y1060472D02*
X438707Y980899D01*
X438500Y1028143D02*
X488569D01*
X438719Y1012244D02*
X488720D01*
X438789Y996496D02*
X488720D01*
X438707Y980899D02*
X488569D01*
X378819Y1170984D02*
Y1359409D01*
X1143701Y2265748D02*
X1172598D01*
X752638Y1874685D02*
X1143701Y2265748D01*
X1144725Y2242402D02*
X1205866D01*
X762244Y1859921D02*
X1144725Y2242402D01*
X420354Y1922165D02*
X516417D01*
X521259Y1868505D02*
X524449Y1865315D01*
X521259Y1868505D02*
Y1927007D01*
X173110Y1520787D02*
X387087D01*
X397244Y1510630D01*
Y1459331D02*
Y1510630D01*
X459543Y1170853D02*
Y1357949D01*
X398504Y1161230D02*
Y1359409D01*
X447441Y1090984D02*
X488720D01*
X450630Y1106732D02*
X488720D01*
X378701Y1418583D02*
X378819Y1418465D01*
X378701Y1418583D02*
Y1487402D01*
X418425Y1489016D02*
Y1544055D01*
X437874Y1167441D02*
Y1359409D01*
X418189Y1165236D02*
Y1359409D01*
X459543Y1357949D02*
X461004Y1359409D01*
X456969Y1355374D02*
X459543Y1357949D01*
X397244Y1419724D02*
X398504Y1418465D01*
X397244Y1419724D02*
Y1459331D01*
X460276Y1419193D02*
X461004Y1418465D01*
X460276Y1419193D02*
Y1490079D01*
X460236Y1490118D02*
X460276Y1490079D01*
X460236Y1490118D02*
Y1511772D01*
X437874Y1418465D02*
X438012Y1418603D01*
Y1460945D01*
X438809Y1461742D01*
Y1510463D01*
X418189Y1418465D02*
X418425Y1418701D01*
Y1489016D01*
X1150826Y2222480D02*
X1230434D01*
X438809Y1510463D02*
X1150826Y2222480D01*
X1151261Y2202796D02*
X1230434D01*
X460236Y1511772D02*
X1151261Y2202796D01*
X1230434Y2084686D02*
X1316969D01*
X583502Y1925787D02*
X635551D01*
X579567Y1865315D02*
X633346D01*
X1319086Y2183110D02*
X1330433Y2194457D01*
X1230434Y2183110D02*
X1319086D01*
X1230434Y2163426D02*
X1317127D01*
X1230434Y2143740D02*
X1324291D01*
X216654Y2045236D02*
X226969D01*
X217677Y2165197D02*
X220275D01*
X1317127Y2163426D02*
X1342913Y2189213D01*
X438430Y1043891D02*
X488569D01*
X438512Y1059488D02*
X488720D01*
X1915315Y3061417D02*
Y3454213D01*
X1791260Y2631063D02*
Y2937362D01*
X2127913Y1966732D02*
X2167716Y2006535D01*
X2086575Y1966732D02*
X2127913D01*
X2336260Y2757598D02*
X2343858Y2765197D01*
X2346535Y2510472D02*
Y2574449D01*
X2260236Y2424173D02*
X2346535Y2510472D01*
X2260236Y2241575D02*
Y2424173D01*
X2297795Y2626614D02*
Y2708386D01*
X2338583Y2850827D02*
Y2886063D01*
Y2801378D02*
Y2850827D01*
X2291417Y2933228D02*
Y3454213D01*
Y2933228D02*
X2338583Y2886063D01*
X2316417Y2702165D02*
X2347598Y2670984D01*
Y2627284D02*
Y2670984D01*
X2316417Y2702165D02*
Y2891890D01*
X2267008Y2941299D02*
X2316417Y2891890D01*
X2267008Y2941299D02*
Y3454213D01*
X2231772Y2639410D02*
Y3327087D01*
X1363071Y2534528D02*
Y2733307D01*
X1343110Y2514567D02*
X1363071Y2534528D01*
Y2733307D02*
X1370945Y2741181D01*
X1369921Y2825472D02*
Y2880748D01*
X1395748Y2638661D02*
Y2682165D01*
X846732Y1332834D02*
Y1340944D01*
X802736Y1288838D02*
X846732Y1332834D01*
X802736Y1209292D02*
Y1288838D01*
X715610Y893070D02*
Y1015374D01*
X527874Y1087165D02*
Y1123740D01*
X722362Y1021260D02*
X749370D01*
X875195Y1027992D02*
X878031Y1030825D01*
X2340945Y2710984D02*
Y2752913D01*
X2336260Y2757598D02*
X2340945Y2752913D01*
X2126083Y3344508D02*
Y3393523D01*
X2122126Y3397480D02*
X2126083Y3393523D01*
X2108740Y2707756D02*
Y2720512D01*
X2108740Y2636181D02*
X2108740Y2707756D01*
Y2720512D02*
X2152165Y2763937D01*
X2152166Y3318425D01*
X2134291Y2778898D02*
Y3302835D01*
X1676614Y3451378D02*
Y3459803D01*
X1284016Y2648701D02*
Y2963425D01*
X1584252Y3359016D02*
X1676614Y3451378D01*
X1584252Y3263662D02*
Y3359016D01*
X2258701Y2817913D02*
Y2884095D01*
X1421457Y2707874D02*
Y2708386D01*
X1395748Y2682165D02*
X1421457Y2707874D01*
X1271535Y2565591D02*
X1282047Y2555079D01*
Y2494921D02*
Y2555079D01*
Y2494921D02*
X1303189Y2473780D01*
X1284016Y2963425D02*
X1584252Y3263662D01*
X1278032Y2642716D02*
X1284016Y2648701D01*
X1665748Y3319094D02*
Y3392205D01*
X2090198Y2796576D02*
Y3328937D01*
X2044685Y2863780D02*
Y3328937D01*
X1970591Y2630669D02*
Y2789685D01*
X1995512Y2936732D02*
Y3328937D01*
X1976591Y3384189D02*
X1987559Y3395157D01*
X1976591Y2955646D02*
Y3384189D01*
X1891220Y2870276D02*
X1976591Y2955646D01*
X1959055Y3293011D02*
X1965260Y3299216D01*
X1959055Y2975905D02*
Y3293011D01*
X1865866Y2882716D02*
X1959055Y2975905D01*
X1943150Y3322913D02*
X1949173Y3328937D01*
X1943150Y3023347D02*
Y3322913D01*
X1834075Y2914272D02*
X1943150Y3023347D01*
X1791260Y2937362D02*
X1915315Y3061417D01*
X1897047Y3072913D02*
Y3328937D01*
X1879661Y3089228D02*
Y3387614D01*
X1867504Y3113780D02*
Y3453465D01*
X1850118Y3129370D02*
Y3328937D01*
X1832441Y3148701D02*
Y3387165D01*
X1712520Y2991772D02*
X1850118Y3129370D01*
X1610158Y2631063D02*
Y3027323D01*
X1688937Y3309055D02*
Y3328937D01*
X1460158Y2631024D02*
Y3080276D01*
X2070086Y3390126D02*
X2077677Y3397717D01*
X2013110Y2629921D02*
Y2751496D01*
X2102047Y2083386D02*
X2260236Y2241575D01*
X2069174Y2083386D02*
X2102047D01*
X2257835Y2708386D02*
Y2733819D01*
Y2702047D02*
Y2708386D01*
X2295079Y2526732D02*
Y2579055D01*
X2245157Y2249803D02*
Y2567638D01*
X2099410Y2104056D02*
X2245157Y2249803D01*
X2191279Y2548091D02*
X2228269Y2511101D01*
X2228267Y2252085D02*
X2228269Y2511101D01*
X2100866Y2124686D02*
X2228267Y2252085D01*
X2168150Y2548976D02*
X2212480Y2504646D01*
Y2257323D02*
Y2504646D01*
X2098897Y2143740D02*
X2212480Y2257323D01*
X2148386Y2550433D02*
X2197402Y2501417D01*
Y2264331D02*
Y2501417D01*
X2096497Y2163426D02*
X2197402Y2264331D01*
X2128780Y2549016D02*
X2182284Y2495512D01*
Y2271535D02*
Y2495512D01*
X2093858Y2183110D02*
X2182284Y2271535D01*
X2109095Y2547047D02*
X2168583Y2487559D01*
Y2290512D02*
Y2487559D01*
X2100551Y2222480D02*
X2168583Y2290512D01*
X2089409Y2542323D02*
X2155551Y2476181D01*
Y2301614D02*
Y2476181D01*
X2096103Y2242166D02*
X2155551Y2301614D01*
X2069724Y2542480D02*
X2142323Y2469882D01*
Y2315905D02*
Y2469882D01*
X2107953Y2281536D02*
X2142323Y2315905D01*
X2182622Y2734866D02*
Y3336039D01*
X2148110Y2700354D02*
X2182622Y2734866D01*
X2148110Y2635276D02*
Y2700354D01*
X2128780Y2712244D02*
X2167441Y2750905D01*
X2128780Y2631063D02*
Y2712244D01*
X2167441Y2750905D02*
Y3326732D01*
X2197425Y2723528D02*
Y3338835D01*
X2167365Y2693468D02*
X2197425Y2723528D01*
X2167365Y2636181D02*
Y2693468D01*
X2209869Y2695224D02*
Y3391772D01*
X2191102Y2676457D02*
X2209869Y2695224D01*
X2191102Y2636181D02*
Y2676457D01*
X2089409Y2734016D02*
X2134291Y2778898D01*
X2089409Y2631063D02*
Y2734016D01*
X2103071Y3346615D02*
Y3460590D01*
X2111811Y2786181D02*
Y3337875D01*
X2069724Y2744095D02*
X2111811Y2786181D01*
X2069724Y2631063D02*
Y2744095D01*
X2047008Y2753386D02*
X2090198Y2796576D01*
X2047008Y2635472D02*
Y2753386D01*
X2070086Y2808472D02*
Y3390126D01*
X2013110Y2751496D02*
X2070086Y2808472D01*
X1990158Y2628347D02*
Y2769961D01*
X2057638Y2837441D02*
Y3450079D01*
X1990158Y2769961D02*
X2057638Y2837441D01*
X1970591Y2789685D02*
X2044685Y2863780D01*
X2028347Y2886693D02*
Y3297165D01*
X1950276Y2808622D02*
X2028347Y2886693D01*
X1950276Y2631220D02*
Y2808622D01*
X2007874Y3459646D02*
X2011362Y3456158D01*
Y2913370D02*
Y3456158D01*
X1930591Y2832598D02*
X2011362Y2913370D01*
X1930591Y2631220D02*
Y2832598D01*
X1910906Y2852126D02*
X1995512Y2936732D01*
X1910906Y2631220D02*
Y2852126D01*
X1891220Y2631220D02*
Y2870276D01*
X1865866Y2631220D02*
Y2882716D01*
X2191279Y2548091D02*
X2191280Y2572008D01*
X2168150Y2548976D02*
Y2572008D01*
X2148386Y2550433D02*
Y2565079D01*
X2128780Y2549016D02*
Y2572008D01*
X2109095Y2547047D02*
Y2572008D01*
X2089409Y2542323D02*
Y2572008D01*
X2069724Y2542480D02*
Y2572008D01*
X2046594Y2536595D02*
Y2572008D01*
Y2536595D02*
X2129449Y2453740D01*
X2145433Y3348740D02*
X2167441Y3326732D01*
X2163583Y3355079D02*
X2182622Y3336039D01*
X2185748Y3350512D02*
X2197425Y3338835D01*
X2185748Y3350512D02*
Y3412047D01*
X2163583Y3355079D02*
Y3391772D01*
X2103071Y3346615D02*
X2111811Y3337875D01*
X1324488Y2977835D02*
X1665748Y3319094D01*
X1324488Y2639528D02*
Y2977835D01*
X1323701Y2639528D02*
X1330551Y2632677D01*
X1395236Y2537835D02*
Y2575354D01*
X1362677Y2505276D02*
X1395236Y2537835D01*
X1362677Y2453740D02*
Y2505276D01*
X1457874Y2542402D02*
Y2562087D01*
X1402559Y2487087D02*
X1457874Y2542402D01*
X1402559Y2438307D02*
Y2487087D01*
X1451811Y2568150D02*
X1457874Y2562087D01*
X1460158Y3080276D02*
X1688937Y3309055D01*
X1507402Y2560984D02*
Y2568780D01*
X1421181Y2474764D02*
X1507402Y2560984D01*
X1441181Y2426181D02*
Y2471890D01*
X1531535Y2562244D02*
Y2566220D01*
X1441181Y2471890D02*
X1531535Y2562244D01*
X1461181Y2427008D02*
Y2472480D01*
X1550787Y2562087D02*
Y2569055D01*
X1461181Y2472480D02*
X1550787Y2562087D01*
X1480079Y2413543D02*
Y2469213D01*
X1570236Y2559370D02*
Y2569055D01*
X1480079Y2469213D02*
X1570236Y2559370D01*
X1500158Y2413543D02*
Y2467913D01*
X1590118Y2557874D02*
Y2568780D01*
X1500158Y2467913D02*
X1590118Y2557874D01*
X1577913Y2423071D02*
Y2522087D01*
X1609567Y2553740D02*
Y2568425D01*
X1577913Y2522087D02*
X1609567Y2553740D01*
X1652795Y2548150D02*
Y2570236D01*
X1618740Y2514094D02*
X1652795Y2548150D01*
X1629724Y2551142D02*
Y2565039D01*
X1598661Y2520079D02*
X1629724Y2551142D01*
X1723819Y3450945D02*
Y3460472D01*
X1507008Y2631063D02*
Y3102126D01*
X1703960Y3299078D01*
X1530984Y2631063D02*
Y3094606D01*
X1717126Y3280748D01*
X1736929Y3264685D02*
Y3327677D01*
X1550551Y2631063D02*
Y3078307D01*
X1736929Y3264685D01*
X1758654Y3390110D02*
X1760630Y3392087D01*
X1570433Y2631063D02*
Y3061260D01*
X1750512Y3241338D01*
X1590315Y2631063D02*
Y3045709D01*
X1769740Y3225134D01*
X1610158Y3027323D02*
X1787126Y3204291D01*
X1629370Y3010315D02*
X1805118Y3186063D01*
X1629370Y2637598D02*
Y3010315D01*
X1819055Y3453937D02*
X1819181Y3453811D01*
X1651653Y2631063D02*
Y3001417D01*
X1819181Y3168945D01*
X1618740Y2433307D02*
Y2514094D01*
X1598661Y2433622D02*
Y2520079D01*
X1303189Y2446457D02*
Y2473780D01*
X1322362Y2453032D02*
Y2569764D01*
X1343110Y2457717D02*
Y2514567D01*
X1421181Y2438032D02*
Y2474764D01*
X1703960Y3431086D02*
X1723819Y3450945D01*
X1703960Y3299078D02*
Y3431086D01*
X1960827Y3452165D02*
X1965260Y3447732D01*
Y3299216D02*
Y3447732D01*
X2022470Y3303041D02*
X2028347Y3297165D01*
X2022470Y3303041D02*
Y3341368D01*
X2030827Y3349724D02*
Y3397008D01*
X2022470Y3341368D02*
X2030827Y3349724D01*
X1972480Y2428425D02*
Y2564095D01*
X2065078Y2281536D02*
X2107953D01*
X2065078Y2242166D02*
X2096103D01*
X2065078Y2222480D02*
X2100551D01*
X1375019Y886948D02*
X1649961Y1161890D01*
X1103483Y886948D02*
X1375019D01*
X1649961Y1161890D02*
Y1420630D01*
X1834075Y2631063D02*
Y2914272D01*
X1810944Y2926220D02*
X1927875Y3043151D01*
X1810944Y2926220D02*
X1810945Y2631063D01*
X1927874Y3386299D02*
X1927875Y3043151D01*
X1771575Y2947441D02*
X1897047Y3072913D01*
X1879661Y3387614D02*
X1886220Y3394173D01*
X1751890Y2961457D02*
X1879661Y3089228D01*
X1323268Y2452126D02*
Y2458976D01*
Y2450669D02*
Y2452126D01*
X1322362Y2444843D02*
Y2453032D01*
X1323268Y2452126D02*
X1323504Y2451890D01*
X1322362Y2453032D02*
X1323268Y2452126D01*
X1004387Y879115D02*
X1016968Y879114D01*
X981507Y901998D02*
X1004387Y879115D01*
X833208Y902008D02*
X981507Y901998D01*
X986358Y917756D02*
X1001870Y902244D01*
X833208Y917756D02*
X986358D01*
X1001870Y902244D02*
X1016968D01*
X997864Y921929D02*
X1016968D01*
X986289Y933504D02*
X997864Y921929D01*
X998898Y941339D02*
X1007913D01*
X990984Y949252D02*
X998898Y941339D01*
X841556Y933504D02*
X986289D01*
X841083Y949252D02*
X990984D01*
X513386Y1138228D02*
X527874Y1123740D01*
X488720Y1138228D02*
X513386D01*
X815262Y886260D02*
X833208D01*
X2113347Y2026260D02*
X2130512Y2043425D01*
X2085630Y2005276D02*
X2132835D01*
X2082677Y2026260D02*
X2113347D01*
X2196811Y3460827D02*
Y3561614D01*
X2145433Y3449528D02*
X2151063Y3455157D01*
X2145433Y3348740D02*
Y3449528D01*
X1927874Y3386299D02*
X1935512Y3393937D01*
X1732205Y2977992D02*
X1867142Y3112929D01*
X1819181Y3168945D02*
Y3453811D01*
X1805118Y3186063D02*
Y3386811D01*
X1769740Y3225134D02*
Y3342939D01*
X1787126Y3204291D02*
Y3328937D01*
X1717126Y3280748D02*
Y3385709D01*
X1750512Y3241338D02*
Y3303268D01*
X1758654Y3311410D01*
Y3390110D01*
X1771575Y2631063D02*
Y2947441D01*
X1689390Y2631063D02*
Y3005650D01*
X1832441Y3148701D01*
X1798819Y3393110D02*
X1805118Y3386811D01*
X1769740Y3342939D02*
X1779646Y3352844D01*
X1712520Y2631063D02*
Y2991772D01*
X1751890Y2631063D02*
Y2961457D01*
X1732205Y2631063D02*
Y2977992D01*
X1832441Y3387165D02*
X1840079Y3394803D01*
X1773386Y3453780D02*
X1779646Y3447520D01*
Y3352844D02*
Y3447520D01*
X1717126Y3385709D02*
X1723032Y3391614D01*
X2151063Y3455157D02*
Y3461220D01*
X2104213Y2356024D02*
Y2425394D01*
X1989646Y2539961D02*
X2104213Y2425394D01*
X1989646Y2539961D02*
Y2572165D01*
X2116063Y2338307D02*
Y2437323D01*
X2012776Y2540610D02*
X2116063Y2437323D01*
X2012776Y2540610D02*
Y2572165D01*
X2126083Y3344508D02*
X2152166Y3318425D01*
X2129449Y2332480D02*
Y2453740D01*
X2088071Y2339882D02*
X2104213Y2356024D01*
X2099488Y2321732D02*
X2116063Y2338307D01*
X2098268Y2301299D02*
X2129449Y2332480D01*
X1933898Y2419213D02*
Y2524016D01*
X1950276Y2540394D02*
Y2572165D01*
X1933898Y2524016D02*
X1950276Y2540394D01*
X1912992Y2417205D02*
Y2530866D01*
X1930591Y2548465D02*
Y2572165D01*
X1912992Y2530866D02*
X1930591Y2548465D01*
X1894134Y2427244D02*
Y2537283D01*
X1911299Y2554449D02*
Y2564488D01*
X1894134Y2537283D02*
X1911299Y2554449D01*
X1874016Y2430433D02*
Y2546102D01*
X1891181Y2563268D01*
X1855118Y2429646D02*
Y2559193D01*
X1868091Y2572165D01*
X1677126Y2427795D02*
Y2559744D01*
X1689390Y2572008D01*
X1697638Y2430984D02*
Y2537835D01*
X1712520Y2552716D02*
Y2572008D01*
X1697638Y2537835D02*
X1712520Y2552716D01*
X1735472Y2449291D02*
Y2567717D01*
X1753780Y2450000D02*
Y2568425D01*
X1773780Y2450512D02*
Y2568937D01*
X1835039Y2455866D02*
Y2574291D01*
X1795394Y2433110D02*
Y2567874D01*
X1791260Y2572008D02*
X1795394Y2567874D01*
X1815197Y2416024D02*
Y2567756D01*
X1810945Y2572008D02*
X1815197Y2567756D01*
X2084803Y2301299D02*
X2098268D01*
X2080669Y2321732D02*
X2099488D01*
X1578858Y2433110D02*
X1579512Y2433764D01*
X683996Y1512067D02*
X754055Y1582126D01*
X936575Y1764646D02*
X1040039Y1868110D01*
X929245Y1757315D02*
X936575Y1764646D01*
X924871Y1745234D02*
X929245Y1749608D01*
X905081Y1743419D02*
X906895Y1745234D01*
X900707Y1721069D02*
X905081Y1725443D01*
X880917Y1719255D02*
X882731Y1721069D01*
X876543Y1696905D02*
X880917Y1701279D01*
X856752Y1695090D02*
X858567Y1696905D01*
X852378Y1672741D02*
X856752Y1677115D01*
X832588Y1670926D02*
X834403Y1672741D01*
X828215Y1648577D02*
X832588Y1652950D01*
X808424Y1646762D02*
X810239Y1648577D01*
X804051Y1624413D02*
X808424Y1628786D01*
X784260Y1622598D02*
X786075Y1624413D01*
X779887Y1600249D02*
X784260Y1604622D01*
X760096Y1598434D02*
X761911Y1600249D01*
X754055Y1582126D02*
X760096Y1588167D01*
X1040039Y1868110D02*
X1230434D01*
X683996Y1418445D02*
Y1512067D01*
X1197795Y1730354D02*
X1230434D01*
X1097717Y1630276D02*
X1197795Y1730354D01*
X1053858Y1630276D02*
X1097717D01*
X941142D02*
X954803D01*
X1052598D02*
X1053858D01*
X1046929Y1605237D02*
Y1624606D01*
X1038425Y1599568D02*
X1041259D01*
X1032755Y1605237D02*
Y1630276D01*
Y1651041D01*
X1024252Y1656711D02*
X1027086D01*
X1018582Y1630276D02*
Y1651041D01*
Y1619028D02*
Y1630276D01*
X1010078Y1613359D02*
X1012913D01*
X1004409Y1619028D02*
Y1630276D01*
Y1651041D01*
X995905Y1656711D02*
X998740D01*
X990236Y1630276D02*
Y1651041D01*
Y1619028D02*
Y1630276D01*
X981732Y1613359D02*
X984567D01*
X976063Y1619028D02*
Y1630276D01*
Y1651041D01*
X967559Y1656711D02*
X970393D01*
X961889Y1635945D02*
Y1651041D01*
X954803Y1630276D02*
X956220D01*
X782421Y1471555D02*
X941142Y1630276D01*
X1019921Y1571614D02*
X1023071D01*
X1014252Y1577284D02*
Y1596654D01*
X1005748Y1602323D02*
X1008582D01*
X1000079Y1571614D02*
Y1596654D01*
Y1546575D02*
Y1571614D01*
X991575Y1540905D02*
X994409D01*
X985905Y1546575D02*
Y1571614D01*
Y1596654D01*
X977402Y1602323D02*
X980236D01*
X971732Y1571614D02*
Y1596654D01*
Y1546575D02*
Y1571614D01*
X963228Y1540905D02*
X966063D01*
X957559Y1546575D02*
Y1565945D01*
X943386Y1571614D02*
X951890D01*
X936299D02*
X943386D01*
X917598D02*
X936299D01*
X1066968D02*
X1205708Y1710354D01*
X1023071Y1571614D02*
X1066968D01*
X897933Y1551949D02*
X917598Y1571614D01*
X1184016Y1750040D02*
X1230434D01*
X1101772Y1667795D02*
X1184016Y1750040D01*
X942874Y1667795D02*
X1101772D01*
X902461Y1627382D02*
X942874Y1667795D01*
X762159Y1487080D02*
X802953Y1527874D01*
X902170Y1627091D02*
X902461Y1627382D01*
X893271Y1627973D02*
X894153Y1627091D01*
X883249Y1625968D02*
X885254Y1627973D01*
X883249Y1617951D02*
X888139Y1613061D01*
X894186Y1607014D01*
X892181Y1596992D02*
X894186Y1598997D01*
X878117Y1603039D02*
X884164Y1596992D01*
X873227Y1607929D02*
X878117Y1603039D01*
X863205Y1605924D02*
X865210Y1607929D01*
X863205Y1597907D02*
X868095Y1593017D01*
X874142Y1586970D01*
X872137Y1576948D02*
X874142Y1578953D01*
X858073Y1582995D02*
X864120Y1576948D01*
X853183Y1587885D02*
X858073Y1582995D01*
X843161Y1585880D02*
X845166Y1587885D01*
X843161Y1577863D02*
X848051Y1572973D01*
X854098Y1566926D01*
X852093Y1556904D02*
X854098Y1558909D01*
X838029Y1562951D02*
X844076Y1556904D01*
X833139Y1567841D02*
X838029Y1562951D01*
X823117Y1565836D02*
X825122Y1567841D01*
X823117Y1557819D02*
X828008Y1552929D01*
X834054Y1546882D01*
X832049Y1536860D02*
X834054Y1538865D01*
X817986Y1542907D02*
X824032Y1536860D01*
X813096Y1547797D02*
X817986Y1542907D01*
X803073Y1545793D02*
X805078Y1547797D01*
X803073Y1537775D02*
X803955Y1536894D01*
X802953Y1527874D02*
X803955Y1528876D01*
X1081102Y1200353D02*
X1124370D01*
X1223228Y1223976D02*
Y1237520D01*
X1200432Y1201180D02*
X1223228Y1223976D01*
Y1237520D02*
Y1240228D01*
X1127913Y1201180D02*
X1200432D01*
X1007913Y1000669D02*
X1016968D01*
X1003740Y996496D02*
X1007913Y1000669D01*
X841556Y996496D02*
X1003740D01*
X1095650Y879114D02*
X1103483Y886948D01*
X1076024Y879114D02*
X1095650D01*
X1099646Y905827D02*
X1369134D01*
X1094646Y900827D02*
X1099646Y905827D01*
X1084567Y900827D02*
X1094646D01*
X1099764Y925630D02*
X1365814D01*
X1094449Y920315D02*
X1099764Y925630D01*
X1084331Y920315D02*
X1094449D01*
X1097911Y947202D02*
X1358856D01*
X1083189Y940276D02*
X1090984D01*
X1097911Y947202D01*
X1090330Y965527D02*
X1350291D01*
X1076024Y961299D02*
X1086102D01*
X1090330Y965527D01*
X1089547Y985374D02*
X1343209D01*
X1084331Y980158D02*
X1089547Y985374D01*
X1094529Y1005946D02*
X1339054D01*
X1076024Y1000669D02*
X1089252D01*
X1094529Y1005946D01*
X1076021Y1025156D02*
X1127480Y1025267D01*
X1332550D01*
X1076024Y1074528D02*
X1333742D01*
X1075350Y1094134D02*
X1152956Y1093965D01*
X1153623Y1093917D02*
X1216457Y1093780D01*
X1075350Y1094134D02*
X1075787Y1095276D01*
X1401694Y1421260D02*
Y1598464D01*
Y1418498D02*
Y1421260D01*
X1393763Y1407150D02*
Y1410568D01*
X1400598Y1400316D02*
X1401694D01*
X1404368D01*
X1411203Y1390064D02*
Y1393481D01*
X1401694Y1383229D02*
X1404368D01*
X1400598D02*
X1401694D01*
X1393763Y1372977D02*
Y1376395D01*
X1400598Y1366143D02*
X1401694D01*
X1404368D01*
X1411203Y1355891D02*
Y1359308D01*
X1401694Y1349056D02*
X1404368D01*
X1400598D02*
X1401694D01*
X1393763Y1338804D02*
Y1342222D01*
X1400598Y1331969D02*
X1401694D01*
X1404368D01*
X1411203Y1321717D02*
Y1325135D01*
X1401694Y1314883D02*
X1404368D01*
X1400598D02*
X1401694D01*
X1393763Y1304631D02*
Y1308048D01*
X1400598Y1297796D02*
X1401694D01*
X1404368D01*
X1411203Y1287544D02*
Y1290962D01*
X1401694Y1280710D02*
X1404368D01*
X1400598D02*
X1401694D01*
X1393763Y1270458D02*
Y1273875D01*
X1400598Y1263623D02*
X1401694D01*
X1404368D01*
X1411203Y1253371D02*
Y1256789D01*
X1401694Y1229450D02*
Y1243862D01*
Y1220907D02*
Y1229450D01*
X1398327Y1217539D02*
X1401694Y1220907D01*
X1390393Y1209606D02*
X1398327Y1217539D01*
X1370014Y1207189D02*
X1372431Y1209606D01*
X1370014Y1197524D02*
X1374163Y1193375D01*
X1378418Y1189120D01*
X1376001Y1177038D02*
X1378418Y1179455D01*
X1354254Y1173466D02*
X1357825Y1177038D01*
X1351837Y1152874D02*
X1354254Y1155291D01*
X1337917Y1157129D02*
X1342172Y1152874D01*
X1337146Y1157900D02*
X1337917Y1157129D01*
X1325064Y1155483D02*
X1327481Y1157900D01*
X1325064Y1145818D02*
X1325834Y1145047D01*
X1336195Y1134687D01*
X1333778Y1122605D02*
X1336195Y1125021D01*
X1318585Y1128132D02*
X1324113Y1122605D01*
X1301670Y1120883D02*
X1308920Y1128132D01*
X1295629Y1114842D02*
X1301670Y1120883D01*
X1076024Y1114842D02*
X1177992D01*
X1289055D02*
X1295629D01*
X1273735D02*
X1289055D01*
X1261716Y1123443D02*
X1265134D01*
X1239562Y1114842D02*
X1253116D01*
X1227543Y1123443D02*
X1230961D01*
X1220709Y1114842D02*
Y1116608D01*
Y1113196D02*
Y1114842D01*
X1210457Y1106361D02*
X1213874D01*
X1203622Y1113196D02*
Y1114842D01*
Y1116608D01*
X1193370Y1123443D02*
X1196787D01*
X1177992Y1114842D02*
X1184769D01*
X1076024Y1134528D02*
X1281772D01*
X1076024Y1154212D02*
X1260511D01*
X1275787Y1285394D02*
Y1292874D01*
X1084053Y1174213D02*
X1252091D01*
X1083897Y1174369D02*
X1084053Y1174213D01*
X2065078Y2143740D02*
X2098897D01*
X839312Y963032D02*
X1014724D01*
X841556Y980748D02*
X1016968D01*
X1011752Y1059488D02*
X1016968Y1054272D01*
X851320Y1075079D02*
X1016976Y1075939D01*
X998473Y1096991D02*
X1016968Y1097087D01*
X993308Y1091772D02*
X998473Y1096991D01*
X998499Y1116769D02*
X1016968Y1116772D01*
X998500Y1136455D02*
X1016968Y1136457D01*
X997817Y1155609D02*
X1016968Y1156142D01*
X997963Y1175413D02*
X1016968Y1175827D01*
X977441Y1153976D02*
X997963Y1175413D01*
X999499Y1198855D02*
X1016968Y1198957D01*
X703681Y1508365D02*
X703681Y1462716D01*
X703681Y1418445D01*
X762159D02*
Y1487080D01*
X722789Y1418445D02*
Y1502671D01*
X743051Y1418445D02*
Y1501447D01*
X782421Y1418445D02*
Y1471555D01*
X805551Y1459567D02*
X835787Y1489803D01*
X805551Y1418445D02*
Y1459567D01*
Y1343071D02*
Y1359390D01*
X762992Y1339882D02*
Y1359390D01*
X782519Y1339723D02*
X782520Y1352677D01*
X743050Y1339624D02*
X743051Y1359390D01*
X723366Y1339626D02*
Y1359390D01*
X703681Y1338681D02*
Y1359390D01*
X683996Y1336654D02*
Y1359390D01*
X676712Y1329370D02*
X683996Y1336654D01*
X610236Y1335748D02*
Y1359409D01*
Y1335748D02*
X613720Y1332264D01*
Y1200236D02*
Y1332264D01*
X590551Y1334213D02*
Y1359409D01*
X570866Y1335276D02*
Y1359409D01*
X630827Y1423543D02*
Y1504646D01*
X1033701Y1907520D01*
X609252Y1426772D02*
Y1504134D01*
X570866Y1418465D02*
Y1512362D01*
X550354Y1425158D02*
Y1514567D01*
X531496Y1517086D02*
X531496Y1462716D01*
X531496Y1418465D01*
X529794Y1463966D02*
X529804Y1463976D01*
X510506Y1425158D02*
Y1515130D01*
X511811Y1335275D02*
Y1359409D01*
X531496Y1335276D02*
Y1359409D01*
X550551Y1335905D02*
Y1352323D01*
Y1335905D02*
X566476Y1319980D01*
X490414Y1423838D02*
Y1462716D01*
Y1521831D01*
X511811Y1335275D02*
X534980Y1312106D01*
X1137362Y1828780D02*
X1230434D01*
X1024094D02*
X1036299D01*
X1137110D02*
X1137362D01*
X1130275Y1835615D02*
Y1850190D01*
X1120024Y1857025D02*
X1123441D01*
X1113189Y1828780D02*
Y1850190D01*
Y1827014D02*
Y1828780D01*
X1102937Y1820179D02*
X1106354D01*
X1096102Y1827014D02*
Y1828780D01*
Y1850190D01*
X1085850Y1857025D02*
X1089268D01*
X1079016Y1828780D02*
Y1850190D01*
Y1827014D02*
Y1828780D01*
X1068764Y1820179D02*
X1072181D01*
X1061929Y1827014D02*
Y1828780D01*
Y1850190D01*
X1051677Y1857025D02*
X1055094D01*
X1044842Y1835615D02*
Y1850190D01*
X1036299Y1828780D02*
X1038008D01*
X944409Y1749096D02*
X1024094Y1828780D01*
X703681Y1508365D02*
X944409Y1749096D01*
X891331Y1545347D02*
X897933Y1551949D01*
X891331Y1530025D02*
X897723Y1523633D01*
X893893Y1504480D02*
X897723Y1508310D01*
X864517Y1518533D02*
X878570Y1504480D01*
X862458Y1520592D02*
X864517Y1518533D01*
X843305Y1516761D02*
X847135Y1520592D01*
X835787Y1489803D02*
X843305Y1497320D01*
X1176180Y1769566D02*
X1208898D01*
X1109016Y1702402D02*
X1176180Y1769566D01*
X1029803Y1702402D02*
X1109016D01*
X944006D02*
X956732D01*
X1026181D02*
X1029803D01*
X1020512Y1684550D02*
Y1696732D01*
X1012008Y1678880D02*
X1014842D01*
X1006338Y1684550D02*
Y1702402D01*
Y1723898D01*
X997835Y1729567D02*
X1000669D01*
X992165Y1702402D02*
Y1723898D01*
Y1684550D02*
Y1702402D01*
X983661Y1678880D02*
X986496D01*
X977992Y1684550D02*
Y1702402D01*
Y1723898D01*
X969488Y1729567D02*
X972323D01*
X963819Y1708071D02*
Y1723898D01*
X956732Y1702402D02*
X958150D01*
X743051Y1501447D02*
X944006Y1702402D01*
X1029212Y1809094D02*
X1230434D01*
X1025020Y1804901D02*
X1029212Y1809094D01*
X722789Y1502671D02*
X964823Y1744705D01*
X1024025Y1803907D02*
X1025020Y1804901D01*
X1024025Y1794241D02*
X1090696Y1727570D01*
X1088279Y1715488D02*
X1090696Y1717905D01*
X1007110Y1786992D02*
X1078613Y1715488D01*
X995028Y1784037D02*
X997982Y1786992D01*
X995028Y1774910D02*
X1012018Y1757920D01*
X1009601Y1745838D02*
X1012018Y1748255D01*
X982946Y1762828D02*
X999936Y1745838D01*
X970864Y1759873D02*
X973818Y1762828D01*
X964823Y1744705D02*
X970864Y1750746D01*
X490414Y1521831D02*
X1033583Y2065000D01*
X1422288Y1194256D02*
Y1597554D01*
X1404272Y1176240D02*
X1422288Y1194256D01*
X1402082Y1174051D02*
X1404272Y1176240D01*
X1392707Y1164675D02*
X1402082Y1174051D01*
X1375212Y1162259D02*
X1377629Y1164675D01*
X1375212Y1152593D02*
X1377918Y1149887D01*
X1380838Y1146967D01*
X1378422Y1134885D02*
X1380838Y1137301D01*
X1365836Y1137805D02*
X1368756Y1134885D01*
X1363130Y1140511D02*
X1365836Y1137805D01*
X1351048Y1138094D02*
X1353464Y1140511D01*
X1351048Y1128429D02*
X1353754Y1125723D01*
X1356674Y1122803D01*
X1354257Y1110721D02*
X1356674Y1113137D01*
X1329590Y1101559D02*
X1338752Y1110721D01*
X1323549Y1095517D02*
X1329590Y1101559D01*
X1316909Y1095344D02*
X1323549Y1095517D01*
X1302032Y1094955D02*
X1316909Y1095344D01*
X1289343Y1103666D02*
X1292759Y1103755D01*
X1265666Y1094004D02*
X1280543Y1094393D01*
X1257126Y1093780D02*
X1265666Y1094004D01*
X1243000Y1093780D02*
X1257126D01*
X1231835Y1101528D02*
X1235252D01*
X1216457Y1093780D02*
X1224086D01*
X1382678Y1254252D02*
Y1428504D01*
Y1248977D02*
Y1254252D01*
Y1235434D02*
Y1248977D01*
X1281772Y1134528D02*
X1293937Y1146693D01*
X1380126Y1232882D02*
X1382678Y1235434D01*
X1365946Y1218702D02*
X1380126Y1232882D01*
X1336847Y1214871D02*
X1340678Y1218702D01*
X1336847Y1199549D02*
X1341820Y1194576D01*
X1343092Y1193304D01*
X1339261Y1174151D02*
X1343092Y1177981D01*
X1322667Y1175423D02*
X1323938Y1174151D01*
X1317694Y1180395D02*
X1322667Y1175423D01*
X1298541Y1176565D02*
X1302371Y1180395D01*
X1293937Y1146693D02*
X1298541Y1151297D01*
X1382678Y1548347D02*
Y1576811D01*
Y1428504D02*
Y1430449D01*
X1360439Y1437284D02*
X1375843D01*
X1353605Y1444118D02*
Y1447536D01*
X1360439Y1454370D02*
X1382678D01*
X1383774D01*
X1390609Y1461205D02*
Y1464622D01*
X1382678Y1471457D02*
X1383774D01*
X1360439D02*
X1382678D01*
X1353605Y1478291D02*
Y1481709D01*
X1360439Y1488543D02*
X1382678D01*
X1383774D01*
X1390609Y1495378D02*
Y1498795D01*
X1382678Y1505630D02*
X1383774D01*
X1360439D02*
X1382678D01*
X1353605Y1512465D02*
Y1515882D01*
X1360439Y1522717D02*
X1375843D01*
X1382678Y1529551D02*
Y1539803D01*
Y1548347D01*
X1223228Y1491890D02*
X1302874Y1571536D01*
X1223228Y1461299D02*
Y1491890D01*
Y1451504D02*
Y1461299D01*
X1203355Y1440669D02*
X1212394D01*
X1192520Y1424417D02*
Y1429835D01*
X1203355Y1413583D02*
X1223228D01*
X1239716D01*
X1250551Y1397331D02*
Y1402748D01*
X1223228Y1386496D02*
X1239716D01*
X1203355D02*
X1223228D01*
X1192520Y1370244D02*
Y1375661D01*
X1203355Y1359409D02*
X1223228D01*
X1239716D01*
X1250551Y1343157D02*
Y1348575D01*
X1223228Y1332323D02*
X1239716D01*
X1203355D02*
X1223228D01*
X1192520Y1316071D02*
Y1321488D01*
X1203355Y1305236D02*
X1223228D01*
X1239716D01*
X1250551Y1288984D02*
Y1294402D01*
X1223228Y1278150D02*
X1239716D01*
X1203355D02*
X1223228D01*
X1192520Y1261898D02*
Y1267315D01*
X1203355Y1251063D02*
X1212394D01*
X1342520Y1425236D02*
Y1574488D01*
Y1236221D02*
Y1249173D01*
Y1408984D02*
Y1425236D01*
X1326190Y1398149D02*
X1331685D01*
X1315355Y1381897D02*
Y1387315D01*
X1326190Y1371063D02*
X1342520D01*
X1360758D01*
X1371593Y1354811D02*
Y1360228D01*
X1342520Y1343976D02*
X1360758D01*
X1326190D02*
X1342520D01*
X1315355Y1327724D02*
Y1333142D01*
X1326190Y1316890D02*
X1342520D01*
X1360758D01*
X1371593Y1300638D02*
Y1306055D01*
X1342520Y1289803D02*
X1360758D01*
X1327926D02*
X1342520D01*
X1317091Y1273551D02*
Y1278968D01*
X1327926Y1262716D02*
X1331685D01*
X1342520Y1249173D02*
Y1251882D01*
X1260511Y1154212D02*
X1342520Y1236221D01*
X749370Y1021260D02*
X791240D01*
X737284Y1009173D02*
X749370Y1021260D01*
X737284Y1008268D02*
Y1009173D01*
X797972Y1027992D02*
X833208D01*
X791240Y1021260D02*
X797972Y1027992D01*
X791240Y970610D02*
Y1021260D01*
X716476Y1015374D02*
X722362Y1021260D01*
X724192Y855984D02*
Y885886D01*
X717008Y893070D02*
X724192Y885886D01*
X805058Y896463D02*
Y956792D01*
X791240Y970610D02*
X805058Y956792D01*
X2065078Y2163426D02*
X2096497D01*
X2065078Y2183110D02*
X2093858D01*
X531496Y1335276D02*
X550728Y1316044D01*
Y1200236D02*
Y1316044D01*
X579803Y1078150D02*
X627579Y1030374D01*
X536890Y1078150D02*
X579803D01*
X527874Y1087165D02*
X536890Y1078150D01*
X1350291Y965527D02*
X1560630Y1175866D01*
X2068032Y2104056D02*
X2099410D01*
X2077166Y2124686D02*
X2100866D01*
X1632835Y1169527D02*
Y1422480D01*
X1369134Y905827D02*
X1632835Y1169527D01*
X1365814Y925630D02*
X1613013Y1172829D01*
X1613268Y1172574D02*
Y1421968D01*
X1583071Y1171417D02*
Y1438268D01*
X1358856Y947202D02*
X1583071Y1171417D01*
X1560630Y1175866D02*
Y1440079D01*
X1539488Y1181653D02*
Y1598464D01*
X1343209Y985374D02*
X1539488Y1181653D01*
X1519804Y1186692D02*
Y1598464D01*
X1339054Y1005946D02*
X1519804Y1186692D01*
X1500118Y1192835D02*
Y1598464D01*
X1332550Y1025267D02*
X1500118Y1192835D01*
X1649961Y1420630D02*
X1795551Y1566220D01*
X1632835Y1422480D02*
X1776299Y1565945D01*
X1613268Y1421968D02*
X1756535Y1565236D01*
Y1577716D01*
X1677008Y1532205D02*
Y1580276D01*
X1583071Y1438268D02*
X1677008Y1532205D01*
X1795551Y1566220D02*
Y1574803D01*
X1776299Y1565945D02*
Y1576063D01*
X1082009Y1053582D02*
X1338267D01*
X1460748Y1176063D02*
Y1598464D01*
X1338267Y1053582D02*
X1460748Y1176063D01*
X1421378Y1598464D02*
X1422288Y1597554D01*
X1323228Y1549015D02*
Y1575906D01*
X1275787Y1501575D02*
X1323228Y1549015D01*
X1275787Y1481378D02*
Y1501575D01*
Y1479771D02*
Y1481378D01*
X1286622Y1468937D02*
X1294604D01*
X1305438Y1452685D02*
Y1458102D01*
X1275787Y1441850D02*
X1294604D01*
X1266482D02*
X1275787D01*
X1255647Y1425598D02*
Y1431016D01*
X1266482Y1414764D02*
X1275787D01*
X1294604D01*
X1305438Y1398512D02*
Y1403929D01*
X1275787Y1387677D02*
X1294604D01*
X1268577D02*
X1275787D01*
X1257742Y1371425D02*
Y1376842D01*
X1268577Y1360590D02*
X1275787D01*
X1291932D01*
X1302766Y1344338D02*
Y1349756D01*
X1275787Y1333504D02*
X1291932D01*
X1268577D02*
X1275787D01*
X1257742Y1317252D02*
Y1322669D01*
X1275787Y1292874D02*
Y1299207D01*
X1232048Y1964488D02*
X1274488D01*
X1230434Y1966102D02*
X1232048Y1964488D01*
X1243170Y2340020D02*
X1274056D01*
X1180551Y2320138D02*
X1222481D01*
X661674Y1423838D02*
Y1465354D01*
Y1515689D01*
X510506Y1515130D02*
X1040571Y2045196D01*
X1033583Y2065000D02*
X1230434D01*
X1040571Y2045196D02*
X1204094D01*
X1208070Y2301220D02*
X1230434D01*
X1172598Y2265748D02*
X1208070Y2301220D01*
X1040038Y2025630D02*
X1230434D01*
X531496Y1517086D02*
X1040038Y2025630D01*
X1041731Y2005944D02*
X1230434D01*
X550354Y1514567D02*
X1041731Y2005944D01*
X570866Y1512362D02*
X1044764Y1986260D01*
X1230434D01*
X588838Y1423838D02*
Y1508563D01*
X1027285Y1947008D02*
X1213976D01*
X588838Y1508563D02*
X1027285Y1947008D01*
X1032322Y1927204D02*
X1230434D01*
X609252Y1504134D02*
X1032322Y1927204D01*
X1033701Y1907520D02*
X1230434D01*
X661674Y1515689D02*
X1034331Y1888346D01*
X1205078D01*
X473020Y1138228D02*
X488720D01*
X488569Y1043891D02*
X488720Y1043740D01*
X488569Y1028143D02*
X488720Y1027992D01*
X488569Y980899D02*
X488720Y980748D01*
X1275787Y1197909D02*
Y1211024D01*
X1282441Y1278740D02*
X1295662D01*
X1306496Y1262488D02*
Y1267906D01*
X1275787Y1251653D02*
X1295662D01*
X1255913D02*
X1275787D01*
X1245079Y1235401D02*
Y1240819D01*
X1255913Y1224567D02*
X1264953D01*
X1275787Y1211024D02*
Y1213732D01*
X1252091Y1174213D02*
X1275787Y1197909D01*
X805058Y896463D02*
X815262Y886260D01*
X676863Y855899D02*
Y876469D01*
X627579Y1030374D02*
X669744D01*
X692738Y1216417D02*
Y1327738D01*
X703681Y1338681D01*
X708208Y1324468D02*
X723366Y1339626D01*
X708208Y1200236D02*
Y1324468D01*
X971451Y1170479D02*
X999499Y1198855D01*
X841556Y1169724D02*
X971451Y1170479D01*
X841556Y1153976D02*
X977441D01*
X684744Y1015374D02*
X715610D01*
X669744Y1030374D02*
X684744Y1015374D01*
X1333742Y1074528D02*
X1441064Y1181850D01*
X1560630Y1440079D02*
X1658150Y1537598D01*
Y1579528D01*
X841556Y1122480D02*
X985315Y1123267D01*
X998500Y1136455D01*
X981379Y1138228D02*
X997817Y1155609D01*
X841556Y1138228D02*
X981379D01*
X676712Y1200236D02*
Y1329370D01*
X597500Y1200708D02*
Y1327263D01*
Y1200708D02*
X597972Y1200236D01*
X590551Y1334213D02*
X597500Y1327263D01*
X676863Y876469D02*
X693464Y893070D01*
X715610D01*
X833208Y1027992D02*
X875195D01*
X676712Y855748D02*
X676863Y855899D01*
X1480432Y2433112D02*
X1480434Y2433110D01*
X983405Y1012244D02*
X996693Y1025531D01*
X841556Y1012244D02*
X983405D01*
X841556Y1059488D02*
X1011752D01*
X1441064Y1181850D02*
Y1598464D01*
X845138Y1385020D02*
Y1417638D01*
X1078899Y1198149D02*
X1081102Y1200353D01*
X841556Y1090984D02*
X993308Y1091772D01*
X989253Y1107519D02*
X998499Y1116769D01*
X841556Y1106732D02*
X989253Y1107519D01*
X771200Y1308720D02*
X805551Y1343071D01*
X771200Y1200236D02*
Y1308720D01*
X755452Y1312658D02*
X782519Y1339723D01*
X755452Y1200236D02*
Y1312658D01*
X739704Y1316594D02*
X762992Y1339882D01*
X739704Y1200236D02*
Y1316594D01*
X723956Y1320532D02*
X743050Y1339624D01*
X723956Y1200236D02*
Y1320532D01*
X661674Y1221850D02*
Y1356910D01*
X660964Y1221142D02*
X661674Y1221850D01*
X660964Y1200236D02*
Y1221142D01*
X628995Y1216811D02*
Y1356753D01*
X570866Y1335276D02*
X582224Y1323918D01*
Y1200236D02*
Y1323918D01*
X566476Y1200236D02*
Y1319980D01*
X534980Y1200236D02*
Y1312106D01*
X490414Y1336988D02*
Y1356910D01*
Y1336988D02*
X519232Y1308170D01*
Y1200236D02*
Y1308170D01*
X723956Y855748D02*
X724192Y855984D01*
X996693Y1025531D02*
X1016615D01*
D11*
X316102Y1458661D02*
D03*
X339370Y1486063D02*
D03*
X2339331Y2850827D02*
D03*
X2196614Y2680905D02*
D03*
X2070354Y2707756D02*
D03*
X2108779D02*
D03*
X2151418D02*
D03*
X1890276D02*
D03*
X1929646D02*
D03*
X1970118D02*
D03*
X2012126D02*
D03*
X1710748D02*
D03*
X1750118D02*
D03*
X1790591D02*
D03*
X1832599D02*
D03*
X1530669D02*
D03*
X1570039D02*
D03*
X1610512D02*
D03*
X1652520D02*
D03*
X2167598Y2680945D02*
D03*
X2128032D02*
D03*
X2089173D02*
D03*
X2045945D02*
D03*
X1989606D02*
D03*
X1950000D02*
D03*
X1909606D02*
D03*
X1865945D02*
D03*
X1810827D02*
D03*
X1771220D02*
D03*
X1731220D02*
D03*
X1687205D02*
D03*
X1629606D02*
D03*
X1589606D02*
D03*
X1550000D02*
D03*
X1505709D02*
D03*
X2232165D02*
D03*
X2259173Y2850827D02*
D03*
X2340354Y2680945D02*
D03*
X2300394Y2680787D02*
D03*
X1459606Y2680945D02*
D03*
X1394488D02*
D03*
X1369449Y2850827D02*
D03*
X1324055Y2680945D02*
D03*
X1282047D02*
D03*
X2770197Y1513110D02*
D03*
X2747402Y1494882D02*
D03*
X2727992Y1513110D02*
D03*
X2707323Y1494882D02*
D03*
X2668504Y1513110D02*
D03*
X2649095Y1494882D02*
D03*
X2626732Y1513110D02*
D03*
X3137677Y1494882D02*
D03*
X3115354Y1513110D02*
D03*
X3091968Y1494882D02*
D03*
X3056850D02*
D03*
X3018465D02*
D03*
X2990512Y1513110D02*
D03*
X489882Y1462716D02*
D03*
X1153622Y887835D02*
D03*
Y925236D02*
D03*
Y966221D02*
D03*
Y1005433D02*
D03*
Y1053661D02*
D03*
Y1093583D02*
D03*
Y1135709D02*
D03*
Y1174528D02*
D03*
X1127480Y906968D02*
D03*
Y946142D02*
D03*
Y986063D02*
D03*
Y1025267D02*
D03*
Y1075039D02*
D03*
Y1115827D02*
D03*
Y1155394D02*
D03*
X1124370Y1201535D02*
D03*
X397244Y1459331D02*
D03*
X418425Y1489016D02*
D03*
X438012Y1460945D02*
D03*
X460276Y1490079D02*
D03*
X510236Y1492402D02*
D03*
X529794Y1462716D02*
D03*
X549370Y1492402D02*
D03*
X568967Y1462716D02*
D03*
X588543Y1492402D02*
D03*
X607913Y1462716D02*
D03*
X630276Y1492402D02*
D03*
X661438Y1462716D02*
D03*
X681929Y1492402D02*
D03*
X702047Y1462716D02*
D03*
X721339Y1492402D02*
D03*
X741378Y1462716D02*
D03*
X762559Y1492402D02*
D03*
X780354Y1462716D02*
D03*
X811181D02*
D03*
D12*
X524449Y1865315D02*
D03*
X579567D02*
D03*
X2854764Y338820D02*
D03*
X2799646D02*
D03*
X2148406Y1339154D02*
D03*
X2203524D02*
D03*
X2482204Y538189D02*
D03*
X2537322D02*
D03*
X469410Y3507284D02*
D03*
X524528D02*
D03*
X323516Y3167638D02*
D03*
X378634D02*
D03*
X469870Y2741158D02*
D03*
X524988D02*
D03*
D13*
X521259Y1927007D02*
D03*
X582283D02*
D03*
X2412520Y345945D02*
D03*
X2473543D02*
D03*
X2952362Y2229213D02*
D03*
X2891339D02*
D03*
X2952362Y2311024D02*
D03*
X2891339D02*
D03*
X2954488Y2403543D02*
D03*
X2893465D02*
D03*
X1602125Y793623D02*
D03*
X1663149D02*
D03*
X1450275Y345945D02*
D03*
X1511299D02*
D03*
X908779Y726379D02*
D03*
X847757D02*
D03*
X847874Y664448D02*
D03*
X908898D02*
D03*
D14*
X2253701Y345945D02*
D03*
X2318661D02*
D03*
X3031181Y2228622D02*
D03*
X3096142D02*
D03*
X3031181Y2311024D02*
D03*
X3096142D02*
D03*
X3033307Y2402481D02*
D03*
X3098268D02*
D03*
X1648267Y345945D02*
D03*
X1583307D02*
D03*
D15*
X2046594Y2572008D02*
D03*
X2191280D02*
D03*
Y2631063D02*
D03*
X2046594D02*
D03*
X1868091Y2572008D02*
D03*
X2012776D02*
D03*
Y2631063D02*
D03*
X1868091D02*
D03*
X1507815Y2572008D02*
D03*
X1652500D02*
D03*
Y2631063D02*
D03*
X1507815D02*
D03*
X1689390Y2572008D02*
D03*
X1834075D02*
D03*
Y2631063D02*
D03*
X1689390D02*
D03*
X660866Y1418445D02*
D03*
X805551D02*
D03*
Y1359390D02*
D03*
X660866D02*
D03*
X488681Y1359409D02*
D03*
X633366D02*
D03*
Y1418465D02*
D03*
X488681D02*
D03*
X2626358Y1464527D02*
D03*
X2771043D02*
D03*
Y1405472D02*
D03*
X2626358D02*
D03*
X316319Y1359409D02*
D03*
X461004D02*
D03*
Y1418465D02*
D03*
X316319D02*
D03*
X2994075Y1463819D02*
D03*
X3138760D02*
D03*
Y1404764D02*
D03*
X2994075D02*
D03*
D16*
X2069724Y2572008D02*
D03*
X2089409D02*
D03*
X2109095D02*
D03*
X2128780D02*
D03*
X2148465D02*
D03*
X2168150D02*
D03*
Y2631063D02*
D03*
X2148465D02*
D03*
X2128780D02*
D03*
X2109095D02*
D03*
X2089409D02*
D03*
X2069724D02*
D03*
X1891220Y2572008D02*
D03*
X1910906D02*
D03*
X1930591D02*
D03*
X1950276D02*
D03*
X1969961D02*
D03*
X1989646D02*
D03*
Y2631063D02*
D03*
X1969961D02*
D03*
X1950276D02*
D03*
X1930591D02*
D03*
X1910906D02*
D03*
X1891220D02*
D03*
X1530945Y2572008D02*
D03*
X1550630D02*
D03*
X1570315D02*
D03*
X1590000D02*
D03*
X1609685D02*
D03*
X1629370D02*
D03*
Y2631063D02*
D03*
X1609685D02*
D03*
X1590000D02*
D03*
X1570315D02*
D03*
X1550630D02*
D03*
X1530945D02*
D03*
X1712520Y2572008D02*
D03*
X1732205D02*
D03*
X1751890D02*
D03*
X1771575D02*
D03*
X1791260D02*
D03*
X1810945D02*
D03*
Y2631063D02*
D03*
X1791260D02*
D03*
X1771575D02*
D03*
X1751890D02*
D03*
X1732205D02*
D03*
X1712520D02*
D03*
X683996Y1418445D02*
D03*
X703681D02*
D03*
X723366D02*
D03*
X743051D02*
D03*
X762736D02*
D03*
X782421D02*
D03*
Y1359390D02*
D03*
X762736D02*
D03*
X743051D02*
D03*
X723366D02*
D03*
X703681D02*
D03*
X683996D02*
D03*
X511811Y1359409D02*
D03*
X531496D02*
D03*
X551181D02*
D03*
X570866D02*
D03*
X590551D02*
D03*
X610236D02*
D03*
Y1418465D02*
D03*
X590551D02*
D03*
X570866D02*
D03*
X551181D02*
D03*
X531496D02*
D03*
X511811D02*
D03*
X2649488Y1464527D02*
D03*
X2669173D02*
D03*
X2688858D02*
D03*
X2708543D02*
D03*
X2728228D02*
D03*
X2747913D02*
D03*
Y1405472D02*
D03*
X2728228D02*
D03*
X2708543D02*
D03*
X2688858D02*
D03*
X2669173D02*
D03*
X2649488D02*
D03*
X339449Y1359409D02*
D03*
X359134D02*
D03*
X378819D02*
D03*
X398504D02*
D03*
X418189D02*
D03*
X437874D02*
D03*
Y1418465D02*
D03*
X418189D02*
D03*
X398504D02*
D03*
X378819D02*
D03*
X359134D02*
D03*
X339449D02*
D03*
X3017205Y1463819D02*
D03*
X3036890D02*
D03*
X3056575D02*
D03*
X3076260D02*
D03*
X3095945D02*
D03*
X3115630D02*
D03*
Y1404764D02*
D03*
X3095945D02*
D03*
X3076260D02*
D03*
X3056575D02*
D03*
X3036890D02*
D03*
X3017205D02*
D03*
D17*
X2350472Y2753189D02*
D03*
Y2810276D02*
D03*
X2297204Y2574449D02*
D03*
Y2631535D02*
D03*
X2264646Y2750748D02*
D03*
Y2807835D02*
D03*
X1394173Y2574449D02*
D03*
Y2631535D02*
D03*
X1368583Y2750433D02*
D03*
Y2807520D02*
D03*
X2236535Y2631535D02*
D03*
Y2574449D02*
D03*
X2357953Y2631535D02*
D03*
Y2574449D02*
D03*
X1456890Y2631535D02*
D03*
Y2574449D02*
D03*
X1330551Y2631535D02*
D03*
Y2574449D02*
D03*
X1266890Y2631535D02*
D03*
Y2574449D02*
D03*
X243819Y3294882D02*
D03*
Y3237795D02*
D03*
X960276Y173307D02*
D03*
Y230394D02*
D03*
X259016Y319685D02*
D03*
Y376772D02*
D03*
D18*
X1766772Y1384449D02*
D03*
X1695276D02*
D03*
X2196142Y3577323D02*
D03*
X197480Y162322D02*
D03*
X201220Y3760354D02*
D03*
X3177638Y158937D02*
D03*
X792323Y3425118D02*
D03*
X463307Y2603583D02*
D03*
X2969095Y2985157D02*
D03*
X2985590Y3627913D02*
D03*
X1117992Y789803D02*
D03*
D19*
X355866Y673622D02*
D03*
Y760236D02*
D03*
X422795D02*
D03*
Y673622D02*
D03*
D20*
X2277874Y1046014D02*
D03*
Y983022D02*
D03*
X588662Y3306024D02*
D03*
Y3369016D02*
D03*
D21*
X2124488Y1062382D02*
D03*
X2150079D02*
D03*
X2175669D02*
D03*
X2201260D02*
D03*
X2124488Y1235610D02*
D03*
X2150079D02*
D03*
X2175669D02*
D03*
X2201260D02*
D03*
D22*
X2301772Y1566968D02*
D03*
X2244685D02*
D03*
X2948701Y3461102D02*
D03*
X3005787D02*
D03*
X2948740Y3223622D02*
D03*
X3005827D02*
D03*
X284094Y3504724D02*
D03*
X227008D02*
D03*
X2306222Y739645D02*
D03*
X2249133D02*
D03*
X2798662Y401850D02*
D03*
X2855748D02*
D03*
D23*
X2253898Y1861378D02*
D03*
Y1835787D02*
D03*
Y1810197D02*
D03*
Y1784606D02*
D03*
Y1759016D02*
D03*
Y1733425D02*
D03*
Y1707835D02*
D03*
Y1682244D02*
D03*
Y1656654D02*
D03*
Y1631063D02*
D03*
X2485236D02*
D03*
Y1656654D02*
D03*
Y1682244D02*
D03*
Y1707835D02*
D03*
Y1733425D02*
D03*
Y1759016D02*
D03*
Y1784606D02*
D03*
Y1810197D02*
D03*
Y1835787D02*
D03*
Y1861378D02*
D03*
D24*
X1076024Y1023799D02*
D03*
Y879114D02*
D03*
X1016968D02*
D03*
Y1023799D02*
D03*
Y1198957D02*
D03*
Y1054272D02*
D03*
X1076024D02*
D03*
Y1198957D02*
D03*
D25*
Y1000669D02*
D03*
Y980984D02*
D03*
Y961299D02*
D03*
Y941614D02*
D03*
Y921929D02*
D03*
Y902244D02*
D03*
X1016968D02*
D03*
Y921929D02*
D03*
Y941614D02*
D03*
Y961299D02*
D03*
Y980984D02*
D03*
Y1000669D02*
D03*
Y1175827D02*
D03*
Y1156142D02*
D03*
Y1136457D02*
D03*
Y1116772D02*
D03*
Y1097087D02*
D03*
Y1077402D02*
D03*
X1076024D02*
D03*
Y1097087D02*
D03*
Y1116772D02*
D03*
Y1136457D02*
D03*
Y1156142D02*
D03*
Y1175827D02*
D03*
D26*
X2402992Y1213071D02*
D03*
Y1250079D02*
D03*
X679528Y416811D02*
D03*
Y453819D02*
D03*
X722441D02*
D03*
Y416811D02*
D03*
D27*
X2773622Y719882D02*
D03*
X2810630D02*
D03*
D28*
X3110472Y3534567D02*
D03*
X3073071Y3627087D02*
D03*
X3147874D02*
D03*
X3055984Y3058780D02*
D03*
X3130787D02*
D03*
X3093386Y3151299D02*
D03*
D29*
X2358583Y1212087D02*
D03*
Y1249882D02*
D03*
X651024Y3376456D02*
D03*
Y3414252D02*
D03*
D30*
X438740Y573386D02*
D03*
X379685D02*
D03*
X3093347Y3461418D02*
D03*
X3152401D02*
D03*
X3129448Y3700000D02*
D03*
X3070394D02*
D03*
X3123150Y2983622D02*
D03*
X3064094D02*
D03*
X3076928Y3221516D02*
D03*
X3135984D02*
D03*
D31*
X274114Y776358D02*
D03*
Y717303D02*
D03*
D32*
X519232Y1200236D02*
D03*
X534980D02*
D03*
X550728D02*
D03*
X566476D02*
D03*
X582224D02*
D03*
X597972D02*
D03*
X613720D02*
D03*
X629468D02*
D03*
X645216D02*
D03*
X660964D02*
D03*
X676712D02*
D03*
X692460D02*
D03*
X708208D02*
D03*
X723956D02*
D03*
X739704D02*
D03*
X755452D02*
D03*
X771200D02*
D03*
X786948D02*
D03*
X802698D02*
D03*
Y855748D02*
D03*
X786948D02*
D03*
X771200D02*
D03*
X755452D02*
D03*
X739704D02*
D03*
X723956D02*
D03*
X708208D02*
D03*
X692460D02*
D03*
X676712D02*
D03*
X660964D02*
D03*
X645216D02*
D03*
X629468D02*
D03*
X613720D02*
D03*
X597972D02*
D03*
X582224D02*
D03*
X566476D02*
D03*
X550728D02*
D03*
X534980D02*
D03*
X519232D02*
D03*
D33*
X833208Y1169724D02*
D03*
Y1153976D02*
D03*
Y1138228D02*
D03*
Y1122480D02*
D03*
Y1106732D02*
D03*
Y1090984D02*
D03*
Y1075236D02*
D03*
Y1059488D02*
D03*
Y1043740D02*
D03*
Y1027992D02*
D03*
Y1012244D02*
D03*
Y996496D02*
D03*
Y980748D02*
D03*
Y965000D02*
D03*
Y949252D02*
D03*
Y933504D02*
D03*
Y917756D02*
D03*
Y902008D02*
D03*
Y886260D02*
D03*
X488720D02*
D03*
Y902008D02*
D03*
Y917756D02*
D03*
Y933504D02*
D03*
Y949252D02*
D03*
Y965000D02*
D03*
Y980748D02*
D03*
Y996496D02*
D03*
Y1012244D02*
D03*
Y1027992D02*
D03*
Y1043740D02*
D03*
Y1059488D02*
D03*
Y1075236D02*
D03*
Y1090984D02*
D03*
Y1106732D02*
D03*
Y1122480D02*
D03*
Y1138228D02*
D03*
Y1153976D02*
D03*
Y1169724D02*
D03*
D34*
X1898503Y561771D02*
D03*
Y611771D02*
D03*
Y661771D02*
D03*
Y711771D02*
D03*
X1617007Y561771D02*
D03*
Y611771D02*
D03*
Y661771D02*
D03*
Y711771D02*
D03*
D35*
X1122323Y525354D02*
D03*
Y460394D02*
D03*
X1839449Y1449803D02*
D03*
Y1384842D02*
D03*
D36*
X1121339Y600512D02*
D03*
Y661535D02*
D03*
X2785866Y2737441D02*
D03*
Y2676417D02*
D03*
X588032Y3427480D02*
D03*
Y3488504D02*
D03*
X1972755Y546259D02*
D03*
Y607283D02*
D03*
X2278346Y1172402D02*
D03*
Y1111378D02*
D03*
X2357716Y940000D02*
D03*
Y878976D02*
D03*
X2278371Y898583D02*
D03*
Y837559D02*
D03*
X2648110Y710275D02*
D03*
Y649251D02*
D03*
X1975629Y727677D02*
D03*
Y666653D02*
D03*
X1532755Y546259D02*
D03*
Y607283D02*
D03*
D37*
X563426Y372480D02*
D03*
X601260Y373150D02*
D03*
X639056D02*
D03*
X525631Y372480D02*
D03*
D38*
X2785787Y2606535D02*
D03*
Y2551417D02*
D03*
X2389568Y2016870D02*
D03*
Y2071988D02*
D03*
X1866024Y861457D02*
D03*
Y806339D02*
D03*
X422678Y320315D02*
D03*
Y375433D02*
D03*
X349134Y3437402D02*
D03*
Y3382284D02*
D03*
D39*
X846339Y1348504D02*
D03*
Y1383938D02*
D03*
D40*
X1303268Y2433110D02*
D03*
X1322952D02*
D03*
X1342638D02*
D03*
X1362324D02*
D03*
X1382008D02*
D03*
X1401694D02*
D03*
X1421378D02*
D03*
X1441064D02*
D03*
X1460748D02*
D03*
X1480434D02*
D03*
X1500118D02*
D03*
X1519804D02*
D03*
X1539488D02*
D03*
X1559174D02*
D03*
X1578858D02*
D03*
X1598544D02*
D03*
X1618228D02*
D03*
X1637914D02*
D03*
X1657598D02*
D03*
X1677284D02*
D03*
X1696968D02*
D03*
X1716654D02*
D03*
X1736338D02*
D03*
X1756024D02*
D03*
X1775708D02*
D03*
X1795394D02*
D03*
X1815078D02*
D03*
X1834764D02*
D03*
X1854448D02*
D03*
X1874134D02*
D03*
X1893820D02*
D03*
X1913504D02*
D03*
X1933190D02*
D03*
X1952874D02*
D03*
X1972560D02*
D03*
X1992244D02*
D03*
Y1598464D02*
D03*
X1972560D02*
D03*
X1952874D02*
D03*
X1933190D02*
D03*
X1913504D02*
D03*
X1893820D02*
D03*
X1874134D02*
D03*
X1854448D02*
D03*
X1834764D02*
D03*
X1815078D02*
D03*
X1795394D02*
D03*
X1775708D02*
D03*
X1756024D02*
D03*
X1736338D02*
D03*
X1716654D02*
D03*
X1696968D02*
D03*
X1677284D02*
D03*
X1657598D02*
D03*
X1637914D02*
D03*
X1618228D02*
D03*
X1598544D02*
D03*
X1578858D02*
D03*
X1559174D02*
D03*
X1539488D02*
D03*
X1519804D02*
D03*
X1500118D02*
D03*
X1480434D02*
D03*
X1460748D02*
D03*
X1441064D02*
D03*
X1421378D02*
D03*
X1401694D02*
D03*
X1382008D02*
D03*
X1362324D02*
D03*
X1342638D02*
D03*
X1322952D02*
D03*
X1303268D02*
D03*
D41*
X2065078Y2360276D02*
D03*
Y2340590D02*
D03*
Y2320906D02*
D03*
Y2301220D02*
D03*
Y2281536D02*
D03*
Y2261850D02*
D03*
Y2242166D02*
D03*
Y2222480D02*
D03*
Y2202796D02*
D03*
Y2183110D02*
D03*
Y2163426D02*
D03*
Y2143740D02*
D03*
Y2124056D02*
D03*
Y2104370D02*
D03*
Y2084686D02*
D03*
Y2065000D02*
D03*
Y2045314D02*
D03*
Y2025630D02*
D03*
Y2005944D02*
D03*
Y1986260D02*
D03*
Y1966574D02*
D03*
Y1946890D02*
D03*
Y1927204D02*
D03*
Y1907520D02*
D03*
Y1887834D02*
D03*
Y1868150D02*
D03*
Y1848464D02*
D03*
Y1828780D02*
D03*
Y1809094D02*
D03*
Y1789410D02*
D03*
Y1769724D02*
D03*
Y1750040D02*
D03*
Y1730354D02*
D03*
Y1710670D02*
D03*
Y1690984D02*
D03*
Y1671300D02*
D03*
X1230434D02*
D03*
Y1690984D02*
D03*
Y1710670D02*
D03*
Y1730354D02*
D03*
Y1750040D02*
D03*
Y1769724D02*
D03*
Y1789410D02*
D03*
Y1809094D02*
D03*
Y1828780D02*
D03*
Y1848464D02*
D03*
Y1868150D02*
D03*
Y1887834D02*
D03*
Y1907520D02*
D03*
Y1927204D02*
D03*
Y1946890D02*
D03*
Y1966574D02*
D03*
Y1986260D02*
D03*
Y2005944D02*
D03*
Y2025630D02*
D03*
Y2045314D02*
D03*
Y2065000D02*
D03*
Y2084686D02*
D03*
Y2104370D02*
D03*
Y2124056D02*
D03*
Y2143740D02*
D03*
Y2163426D02*
D03*
Y2183110D02*
D03*
Y2202796D02*
D03*
Y2222480D02*
D03*
Y2242166D02*
D03*
Y2261850D02*
D03*
Y2281536D02*
D03*
Y2301220D02*
D03*
Y2320906D02*
D03*
Y2340590D02*
D03*
Y2360276D02*
D03*
D42*
X2737716Y250276D02*
D03*
X2712126D02*
D03*
X2686536D02*
D03*
X2763306D02*
D03*
X2660944D02*
D03*
X739408Y250374D02*
D03*
X424448D02*
D03*
X526810D02*
D03*
X450038D02*
D03*
X501220D02*
D03*
X765000D02*
D03*
X790590D02*
D03*
X475630D02*
D03*
X713818D02*
D03*
X688228D02*
D03*
D43*
X2869606Y144960D02*
D03*
X2554646D02*
D03*
X318150Y145060D02*
D03*
D44*
X2759370Y144960D02*
D03*
X2664882D02*
D03*
X731534Y145060D02*
D03*
D45*
X415078Y3435826D02*
D03*
Y3398426D02*
D03*
Y3361024D02*
D03*
X523346D02*
D03*
Y3435826D02*
D03*
D46*
X2259568Y2013956D02*
D03*
Y2078918D02*
D03*
X2308780Y2013956D02*
D03*
Y2078918D02*
D03*
D47*
X2456496Y620000D02*
D03*
X2558858D02*
D03*
Y702678D02*
D03*
X2456496D02*
D03*
D48*
X428386Y125375D02*
D03*
X522874D02*
D03*
X633110D02*
D03*
D49*
X833898Y145060D02*
D03*
D50*
X626654Y750079D02*
D03*
Y691023D02*
D03*
D51*
X2500630Y891574D02*
D03*
Y911260D02*
D03*
Y930944D02*
D03*
Y950630D02*
D03*
Y970316D02*
D03*
Y990000D02*
D03*
Y1009686D02*
D03*
Y1029370D02*
D03*
Y1049056D02*
D03*
Y1068740D02*
D03*
Y1088426D02*
D03*
Y1108110D02*
D03*
Y1127796D02*
D03*
Y1147480D02*
D03*
Y1167166D02*
D03*
Y1186850D02*
D03*
X2937638D02*
D03*
Y1167166D02*
D03*
Y1147480D02*
D03*
Y1127796D02*
D03*
Y1108110D02*
D03*
Y1088426D02*
D03*
Y1068740D02*
D03*
Y1049056D02*
D03*
Y1029370D02*
D03*
Y1009686D02*
D03*
Y990000D02*
D03*
Y970316D02*
D03*
Y950630D02*
D03*
Y930944D02*
D03*
Y911260D02*
D03*
Y891574D02*
D03*
D52*
X2571496Y1257716D02*
D03*
X2591182D02*
D03*
X2610866D02*
D03*
X2630552D02*
D03*
X2650236D02*
D03*
X2669922D02*
D03*
X2689606D02*
D03*
X2709292D02*
D03*
X2728976D02*
D03*
X2748662D02*
D03*
X2768346D02*
D03*
X2788032D02*
D03*
X2807716D02*
D03*
X2827402D02*
D03*
X2847086D02*
D03*
X2866772D02*
D03*
Y820708D02*
D03*
X2847086D02*
D03*
X2827402D02*
D03*
X2807716D02*
D03*
X2788032D02*
D03*
X2768346D02*
D03*
X2748662D02*
D03*
X2728976D02*
D03*
X2709292D02*
D03*
X2689606D02*
D03*
X2669922D02*
D03*
X2650236D02*
D03*
X2630552D02*
D03*
X2610866D02*
D03*
X2591182D02*
D03*
X2571496D02*
D03*
D53*
X2862678Y712323D02*
D03*
X2925670D02*
D03*
D54*
X460078Y3572284D02*
D03*
X530944D02*
D03*
X386508Y3237638D02*
D03*
X315642D02*
D03*
X533294Y2666158D02*
D03*
X462428D02*
D03*
D55*
X411074Y2826102D02*
D03*
D56*
X320524Y3072166D02*
D03*
X411074D02*
D03*
X501626D02*
D03*
D57*
X284174Y3372008D02*
D03*
Y3442874D02*
D03*
D58*
X1180039Y2361378D02*
X1220867D01*
X1221653Y2360591D01*
X1244094Y2124566D02*
X1299742D01*
X3117046Y1463819D02*
Y1529843D01*
X1893700Y2373976D02*
X1924404D01*
X1670532Y2370414D02*
X1675316Y2365630D01*
X2005494Y2195944D02*
X2012346Y2202796D01*
X1717000Y2403353D02*
X1750670Y2369686D01*
X1717000Y2403353D02*
Y2432764D01*
X1815117Y1554409D02*
Y1603858D01*
X1696024Y1314961D02*
Y1435315D01*
X1815117Y1554409D01*
X2240925Y1685394D02*
X2261102D01*
X2214803Y1678780D02*
X2234311D01*
X2202599Y1690984D02*
X2214803Y1678780D01*
X2065078Y1690984D02*
X2202599D01*
X2204409Y1762165D02*
X2261102D01*
X2196851Y1769724D02*
X2204409Y1762165D01*
X2065078Y1769724D02*
X2196851D01*
X2238111Y1736575D02*
X2261102D01*
X2065078Y1730354D02*
X2231890D01*
X2238111Y1736575D01*
X2002834Y2336220D02*
X2026544Y2359930D01*
X1598544Y1544803D02*
Y1598464D01*
X2087638Y1828504D02*
X2169685D01*
X2083937Y1848622D02*
X2124016D01*
X2065288Y1808884D02*
X2256640D01*
X2261102Y1813346D01*
X2065078Y1809094D02*
X2065288Y1808884D01*
X2786220Y2606535D02*
Y2682795D01*
X2785787Y2603583D02*
X2827961D01*
X2785669Y2603465D02*
X2808543D01*
X2202717Y1972874D02*
X2539370D01*
X2176654Y1946811D02*
X2202717Y1972874D01*
X2083268Y1946811D02*
X2176654D01*
X2814488Y2376929D02*
X2831614D01*
X2814488D02*
X2841142Y2403583D01*
X2216457Y1954409D02*
X2559252D01*
X2169528Y1907480D02*
X2216457Y1954409D01*
X2080630Y1907480D02*
X2169528D01*
X2224095Y1932520D02*
X2568661D01*
X2179409Y1887835D02*
X2224095Y1932520D01*
X2084449Y1887835D02*
X2179409D01*
X2891339Y2229488D02*
X2892913D01*
X2803170D02*
X2891339D01*
X2235630Y1911850D02*
X2583662Y1911851D01*
X2192244Y1868465D02*
X2235630Y1911850D01*
X2081968Y1868465D02*
X2192244D01*
X3018917Y1468012D02*
Y1567460D01*
X1854448Y1448819D02*
Y1598464D01*
X1838386Y1315433D02*
Y1386417D01*
X1834684Y1517283D02*
Y1605511D01*
X1766772Y1384449D02*
Y1449370D01*
Y1314213D02*
Y1384449D01*
Y1449370D02*
X1834684Y1517283D01*
X380634Y575084D02*
X380926Y575374D01*
X325414Y575084D02*
X380634D01*
X2202953Y1038937D02*
X2217087Y1024803D01*
X2256663D01*
X2277874Y1046014D01*
X2278110Y1046250D01*
X2220926Y930944D02*
X2500630D01*
X2152874Y998996D02*
Y1043071D01*
Y998996D02*
X2220926Y930944D01*
X2176338Y1006458D02*
X2176339Y1045315D01*
X1933268Y1597480D02*
Y1679213D01*
X2770386Y1465992D02*
Y1630362D01*
X2589724Y1811024D02*
X2770386Y1630362D01*
X2507598Y1811024D02*
X2589724D01*
X2747827Y1467252D02*
Y1622173D01*
X2581535Y1788465D02*
X2747827Y1622173D01*
X2506181Y1788465D02*
X2581535D01*
X2728181Y1466386D02*
Y1606819D01*
X2574449Y1760551D02*
X2728181Y1606819D01*
X2506653Y1760551D02*
X2574449D01*
X2708536Y1466386D02*
Y1593590D01*
X2565945Y1736181D02*
X2708536Y1593590D01*
X2514213Y1736181D02*
X2565945D01*
X2669284Y1465992D02*
Y1598590D01*
X2557953Y1709921D02*
X2669284Y1598590D01*
X2507126Y1709921D02*
X2557953D01*
X2649638Y1463472D02*
Y1584653D01*
X2549843Y1684449D02*
X2649638Y1584653D01*
X2508465Y1684449D02*
X2549843D01*
X2627906Y1464732D02*
Y1578393D01*
X2548662Y1657638D02*
X2627906Y1578393D01*
X2513898Y1657638D02*
X2548662D01*
X833208Y886260D02*
X885282D01*
X888903Y882639D01*
X3096457Y1463819D02*
Y1496259D01*
X3079016Y1513701D02*
X3096457Y1496259D01*
X3057639Y1468602D02*
Y1545196D01*
X2053661Y824291D02*
Y1467677D01*
X1972480Y1548858D02*
X2053661Y1467677D01*
X2502126Y1678110D02*
X2508465Y1684449D01*
X2234311Y1678780D02*
X2240925Y1685394D01*
X2583662Y1911851D02*
X2786772Y2114961D01*
X2568661Y1932520D02*
X2755512Y2119370D01*
X2559252Y1954409D02*
X2732087Y2127244D01*
X2786772Y2114961D02*
Y2199921D01*
X2755512Y2119370D02*
Y2246575D01*
X2732087Y2127244D02*
Y2310157D01*
X2702559Y2136063D02*
Y2535788D01*
X2539370Y1972874D02*
X2702559Y2136063D01*
X2786772Y2199921D02*
X2814528Y2227677D01*
X2755512Y2246575D02*
X2822126Y2313189D01*
X2732087Y2310157D02*
X2817126Y2395197D01*
X2702559Y2535788D02*
X2770236Y2603465D01*
X1230355Y2360197D02*
X1230434Y2360276D01*
X1230355Y2360355D02*
X1230434Y2360276D01*
X2973268Y911260D02*
X3095945Y1033937D01*
X2937638Y911260D02*
X2973268D01*
X3095945Y1033937D02*
Y1404764D01*
X3115630D02*
X3115638Y1026468D01*
X3017205Y1044724D02*
Y1404764D01*
X2982513Y1010032D02*
X3017205Y1044724D01*
X3056890Y1045866D02*
Y1397874D01*
X2981340Y970316D02*
X3056890Y1045866D01*
X2892913Y2229488D02*
X2893189Y2229213D01*
X1382134Y2394992D02*
X1392835Y2384291D01*
X2065078Y1671300D02*
X2097953D01*
X2109450Y1659803D01*
X2261102D01*
X2260867Y1710749D02*
X2261102Y1710984D01*
X2065157Y1710749D02*
X2260867D01*
X2065078Y1710670D02*
X2065157Y1710749D01*
X2259527Y1789331D02*
X2261102Y1787756D01*
X2065157Y1789331D02*
X2259527D01*
X2065078Y1789410D02*
X2065157Y1789331D01*
X1979881Y3576771D02*
X2032126Y3524527D01*
X1884881Y3579606D02*
X1937126Y3527362D01*
X1791299Y3580157D02*
X1843543Y3527913D01*
X1555039Y3579015D02*
X1607283Y3526771D01*
X1696574Y3579331D02*
X1748818Y3527086D01*
X1103976Y789488D02*
X1109606Y783858D01*
X1018583Y789488D02*
X1103976D01*
X923661Y884410D02*
X1018583Y789488D01*
X2841142Y2403583D02*
X2893425D01*
X786575Y821457D02*
X849468Y758563D01*
Y727304D02*
Y758563D01*
X3000787Y1585591D02*
X3018917Y1567460D01*
X2992402Y1040551D02*
Y1404764D01*
X2948642Y1605374D02*
X2992087Y1561929D01*
Y1469764D02*
Y1561929D01*
X2727946Y1286772D02*
Y1402992D01*
X2708260Y1284882D02*
Y1402992D01*
X2629520Y1258748D02*
Y1402992D01*
Y1258748D02*
X2630552Y1257716D01*
X2649204Y1258748D02*
Y1402992D01*
Y1258748D02*
X2650236Y1257716D01*
X2668890Y1258748D02*
Y1402992D01*
Y1258748D02*
X2669922Y1257716D01*
X2980749Y891574D02*
X3115638Y1026468D01*
X2937638Y891574D02*
X2980749D01*
X2286830Y835390D02*
X2290930Y839488D01*
X2210434Y911438D02*
X2500454D01*
X2278346Y1172402D02*
Y1205264D01*
X2176106Y1257559D02*
X2176109Y1298772D01*
X2145820Y1329066D02*
X2176109Y1298772D01*
X2124488Y1307734D02*
X2145820Y1329066D01*
X2562795Y702678D02*
X2610866Y750749D01*
Y820708D01*
X2558858Y702678D02*
X2562795D01*
X2519842Y739528D02*
X2550512Y708858D01*
X607323Y801772D02*
X613562Y808011D01*
Y840571D01*
X601457Y985945D02*
X613720Y973682D01*
X592874Y985945D02*
X601457D01*
X613720Y869450D02*
Y973682D01*
X629468Y750079D02*
Y853268D01*
X788661Y1056535D02*
X801457Y1043740D01*
X636339Y897992D02*
X645216Y889115D01*
X575236Y891811D02*
X582421Y884626D01*
Y857008D02*
Y884626D01*
X570246Y994616D02*
Y1013032D01*
X2358582Y1212086D02*
X2359862Y1213366D01*
X2887634Y1049402D02*
X2937292D01*
X2854612Y1082422D02*
X2887634Y1049402D01*
X2937292D02*
X2937638Y1049056D01*
X2646122Y652440D02*
X2647874Y654192D01*
X2669922Y736278D02*
Y820708D01*
X2655242Y721600D02*
X2669922Y736278D01*
X2937984Y1010032D02*
X2982513D01*
X2937638Y1009686D02*
X2937984Y1010032D01*
X2981220Y1029370D02*
X2992402Y1040551D01*
X2937638Y970316D02*
X2981340D01*
X2937638Y1029370D02*
X2981220D01*
X2045591Y816221D02*
X2053661Y824291D01*
X3136418Y1468366D02*
Y1575846D01*
X1953800Y1515334D02*
Y1644586D01*
X1898503Y611771D02*
X2014763D01*
X1953800Y1515334D02*
X2021417Y1447716D01*
Y618425D02*
Y1447716D01*
X2014763Y611771D02*
X2021417Y618425D01*
X1828307Y613032D02*
X1875276Y566063D01*
X1828307Y613032D02*
Y987402D01*
X1837047Y996142D01*
X2542087Y803268D02*
X2549369Y810550D01*
X1692125Y661771D02*
X1749724Y719370D01*
X1617007Y661771D02*
X1692125D01*
X1749724Y719370D02*
Y982795D01*
X1811142Y1044213D01*
X1890197D01*
X1678464Y713425D02*
Y716045D01*
Y711771D02*
Y713425D01*
X1617007Y711771D02*
X1678464D01*
X1674882Y719628D02*
X1678464Y716045D01*
X1674882Y719628D02*
Y781890D01*
X1663149Y793623D02*
X1674882Y781890D01*
X1898503Y661771D02*
X1982205D01*
X1888503D02*
X1898503D01*
X1927638Y996299D02*
X1980472Y1049134D01*
Y1139331D01*
X1972480Y1548858D02*
Y1583032D01*
X2736378Y244725D02*
Y251379D01*
X2794370Y338820D02*
Y353642D01*
X2794074D02*
Y384824D01*
X786575Y821457D02*
Y840551D01*
X422678Y318150D02*
X424448Y316379D01*
X2838012Y2303504D02*
X2883386D01*
X2890905Y2311024D01*
X2770236Y2603465D02*
X2785669D01*
X2881291Y2550449D02*
X3137095D01*
X2881095D02*
X2881291D01*
X3136220Y1018386D02*
Y1401082D01*
X2987559Y869724D02*
X3136220Y1018386D01*
X2915788Y869724D02*
X2987559D01*
X2866772Y820708D02*
X2915788Y869724D01*
X3106260Y1540630D02*
X3117046Y1529843D01*
X3042402Y1560433D02*
X3057639Y1545196D01*
X2202086Y738618D02*
X2248050D01*
X890807Y884410D02*
X923661D01*
X519173Y872795D02*
Y895197D01*
X533032Y909056D01*
X550728Y811634D02*
Y855748D01*
X463090Y723996D02*
X550728Y811634D01*
X2881426Y1166820D02*
X2937292D01*
X2854434Y1139826D02*
X2881426Y1166820D01*
X2854434Y1139826D02*
X2854434Y1117942D01*
X2785669Y2603465D02*
X2785787Y2603583D01*
X2781929Y2599724D02*
X2785669Y2603465D01*
X2827961Y2603583D02*
X2881095Y2550449D01*
X1636299Y1699016D02*
X1662165Y1724882D01*
X1636299Y1662480D02*
Y1699016D01*
Y1654685D02*
Y1662480D01*
Y1654685D02*
X1637914Y1653070D01*
Y1598464D02*
Y1653070D01*
X1361850Y1703858D02*
X1382874Y1724882D01*
X1361850Y1660708D02*
Y1703858D01*
Y1660708D02*
X1362245Y1660313D01*
Y1598543D02*
Y1660313D01*
Y1598543D02*
X1362324Y1598464D01*
X2000276Y2044373D02*
X2001564Y2045662D01*
X1998422Y2042518D02*
X2000276Y2044373D01*
X1826653Y1680158D02*
X1854448Y1652363D01*
Y1598464D02*
Y1652363D01*
X1874213Y1680276D02*
X1874764Y1680827D01*
X1874213Y1598543D02*
Y1680276D01*
X1874134Y1598464D02*
X1874213Y1598543D01*
X1991898Y1598810D02*
Y1686268D01*
X1890197Y1044213D02*
X1934409Y1088425D01*
X2784272Y2501299D02*
Y2549902D01*
X2794370Y332048D02*
Y338820D01*
X2794074D02*
Y353642D01*
X2738268Y250749D02*
Y280433D01*
X2735631Y250749D02*
X2736260Y251379D01*
X2736023Y248505D02*
X2738268Y250749D01*
Y280433D02*
X2792126Y334292D01*
X2785433Y2737874D02*
X2785866Y2737441D01*
X2785433Y2737874D02*
Y2783937D01*
X2784272Y2549902D02*
X2785787Y2551417D01*
X2762520Y884250D02*
Y886870D01*
Y884249D02*
Y884250D01*
Y884249D02*
X2768346Y878423D01*
Y820708D02*
Y878423D01*
X1913504Y1206299D02*
X1980472Y1139331D01*
X1936732Y996142D02*
X1937047D01*
X1913504Y1206299D02*
Y1598464D01*
X1842874Y1102008D02*
X1893582Y1152716D01*
X1953800Y1644586D02*
X1962638Y1653426D01*
X1893582Y1152716D02*
Y1579370D01*
X1480452Y1598484D02*
Y1661954D01*
X2500630Y1167166D02*
X2570072D01*
X1877835Y661771D02*
X1888503D01*
X1898503D01*
X271792Y666654D02*
Y715964D01*
X1243190Y2103780D02*
X1298836D01*
X1624670Y2368850D02*
X1637914Y2382094D01*
X2808064Y688622D02*
Y820362D01*
X2858874Y885182D02*
Y887804D01*
X2847086Y873396D02*
X2858874Y885182D01*
X1997716Y1923628D02*
X2000336D01*
X2003914Y1927204D01*
X2002166Y2269528D02*
X2004786D01*
X1305484Y2298558D02*
X1306574D01*
X1288462Y2281536D02*
X1305484Y2298558D01*
X2623386Y886812D02*
X2630552Y879646D01*
X2650236Y879410D02*
X2657834Y887008D01*
X2456046Y874960D02*
X2456132Y849762D01*
X2456134Y848870D01*
X2456046Y874960D02*
X2470906Y889922D01*
X2860602Y986154D02*
X2896126Y950630D01*
X2937638D01*
X2558188Y1147480D02*
X2569776Y1135892D01*
X2924332Y713662D02*
X2925670Y712323D01*
X2924332Y713662D02*
Y756812D01*
X2774100Y719960D02*
Y754800D01*
X2402126Y1249370D02*
X2402992Y1248504D01*
X2402126Y1249370D02*
Y1295748D01*
X2357834Y1294804D02*
X2358208Y1294430D01*
Y1250256D02*
Y1294430D01*
Y1250256D02*
X2358582Y1249882D01*
X2854764Y338820D02*
X2857402Y336182D01*
X2855748Y401850D02*
X2858662Y404764D01*
X442304Y770492D02*
X472028D01*
X428956Y757146D02*
X442304Y770492D01*
X271792Y715964D02*
X274114Y718288D01*
X626300Y649449D02*
Y690669D01*
X540630Y965000D02*
X570246Y994616D01*
X504764Y965000D02*
X540630D01*
X1555866Y2372952D02*
Y2373600D01*
X1559174Y2376908D01*
Y2433110D01*
X1657598Y2383346D02*
X1670532Y2370414D01*
X1502480Y2373464D02*
X1520964D01*
X1539142Y2391642D01*
X1924404Y2373976D02*
X1952528Y2402100D01*
X1285874Y1789064D02*
X1287300Y1787638D01*
X1287992D01*
X1230780Y1789064D02*
X1285874D01*
X1230434Y1789410D02*
X1230780Y1789064D01*
X1230512Y1848384D02*
X1277246D01*
X2571496Y811388D02*
Y820708D01*
X2549369Y810550D02*
X2570660D01*
X2749008Y870738D02*
X2762520Y884250D01*
X2748662Y820708D02*
X2749008Y821056D01*
X2788378D02*
Y864314D01*
X2788032Y820708D02*
X2788378Y821056D01*
X2827402Y1192620D02*
Y1257716D01*
X2727678Y887618D02*
X2728630Y886664D01*
X2500384Y1187098D02*
X2500630Y1186850D01*
X2788032Y1197044D02*
Y1257716D01*
X2630552Y820708D02*
Y879646D01*
X2500630Y1147480D02*
X2558188D01*
X2689540Y1257650D02*
X2689606Y1257716D01*
X2650236Y820708D02*
Y879410D01*
X2570436Y1048708D02*
X2571124Y1048020D01*
X2728630Y821056D02*
Y886664D01*
X2500384Y1187098D02*
Y1219960D01*
X2490158Y891574D02*
X2500630D01*
Y1049056D02*
X2500976Y1048708D01*
X2749008Y821056D02*
Y870738D01*
X2689540Y1166928D02*
Y1257650D01*
X2591182Y1257716D02*
Y1321590D01*
X2788378Y864314D02*
X2810068Y886006D01*
X2570660Y810550D02*
X2571496Y811388D01*
X2728630Y821056D02*
X2728976Y820708D01*
X2689474Y1166862D02*
X2689540Y1166928D01*
X2847086Y820708D02*
Y873396D01*
X2489322Y890738D02*
X2490158Y891574D01*
X2500976Y1048708D02*
X2570436D01*
X2937292Y1166820D02*
X2937638Y1167166D01*
X2309646Y739528D02*
X2519842D01*
X1991898Y1598810D02*
X1992244Y1598464D01*
X3066260Y3750906D02*
X3067480Y3752126D01*
X1286080Y2261850D02*
X1305138Y2242794D01*
X1230434Y2261850D02*
X1286080D01*
X845138Y1417638D02*
X845354Y1417854D01*
X844922Y1384804D02*
X845138Y1385020D01*
X1382134Y2394992D02*
Y2412842D01*
X2228307Y833461D02*
X2274271D01*
X2356968Y834444D02*
Y878228D01*
X2357716Y878976D01*
X2004786Y2269528D02*
X2012464Y2261850D01*
X2065078D01*
X2012346Y2202796D02*
X2065078D01*
X1952528Y2402100D02*
Y2432764D01*
X1952874Y2433110D01*
X2026544Y2359930D02*
X2064732D01*
X2065078Y2360276D01*
X1716654Y2433110D02*
X1717000Y2432764D01*
X1657598Y2383346D02*
Y2433110D01*
X1624670Y2366230D02*
Y2368850D01*
X1637914Y2382094D02*
Y2433110D01*
X2001564Y2045662D02*
X2064732D01*
X2065078Y2045314D01*
X2003914Y1927204D02*
X2065078D01*
X1999016Y1984762D02*
X2000166Y1985914D01*
X2064732D01*
X2065078Y1986260D01*
X1749748Y1661612D02*
Y1664232D01*
X1736338Y1648202D02*
X1749748Y1661612D01*
X1736338Y1598464D02*
Y1648202D01*
X1693728Y1660352D02*
Y1662974D01*
Y1660352D02*
X1696968Y1657112D01*
Y1598464D02*
Y1657112D01*
X1573640Y1662222D02*
X1575494Y1660370D01*
X1586988D01*
X1617882Y1629474D01*
Y1598810D02*
Y1629474D01*
Y1598810D02*
X1618228Y1598464D01*
X1480452Y1661954D02*
X1480472Y1661974D01*
X1480434Y1598464D02*
X1480452Y1598484D01*
X1230434Y1848464D02*
X1230512Y1848384D01*
X1230434Y2281536D02*
X1288462D01*
X1539142Y2391642D02*
Y2432764D01*
X1539488Y2433110D01*
X2767316Y1285000D02*
Y1402992D01*
X2747630Y1287716D02*
Y1402992D01*
X2925670Y712323D02*
X2926060Y711932D01*
X2827402Y767078D02*
Y820708D01*
Y767078D02*
X2864056Y730426D01*
Y728456D02*
Y730426D01*
X2807716Y820708D02*
X2808064Y820362D01*
X2774100Y754800D02*
X2788032Y768732D01*
Y820708D01*
X2648858Y715216D02*
X2655242Y721600D01*
X2647874Y715216D02*
X2648858D01*
X2122874Y998996D02*
X2210434Y911438D01*
X2122874Y998996D02*
Y1046535D01*
X2213208Y969586D02*
X2433130D01*
X2176338Y1006458D02*
X2213208Y969586D01*
X2144824Y1342736D02*
Y1394154D01*
Y1342736D02*
X2148406Y1339154D01*
X2124488Y1256063D02*
Y1307734D01*
X2433130Y969586D02*
X2452086Y950630D01*
X2500454Y911438D02*
X2500630Y911260D01*
X2452086Y950630D02*
X2500630D01*
X645216Y855748D02*
Y889115D01*
Y1165374D02*
Y1200236D01*
X787648Y1161072D02*
X788346Y1160374D01*
X787648Y1161072D02*
Y1199538D01*
X801457Y1043740D02*
X833208D01*
X454902Y687186D02*
X463090Y695374D01*
X444626Y687186D02*
X454902D01*
X428956Y671516D02*
X444626Y687186D01*
X428956Y666594D02*
Y671516D01*
X463090Y695374D02*
Y723996D01*
X356792Y757816D02*
Y785374D01*
X356122Y757146D02*
X356792Y757816D01*
Y785374D02*
X370610Y799192D01*
X512264D01*
X534980Y821910D01*
Y855748D01*
X428956Y584430D02*
X438012Y575374D01*
X428956Y584430D02*
Y666594D01*
X340452Y772816D02*
X356122Y757146D01*
X276674Y772816D02*
X340452D01*
X274114Y775374D02*
X276674Y772816D01*
D59*
X516417Y1922165D02*
X521259Y1927007D01*
X420354Y1922165D02*
X425196Y1927007D01*
D60*
X3066260Y3700000D02*
Y3750906D01*
X2986642Y3627500D02*
X3065413D01*
X3033819Y2898150D02*
X3100590D01*
X2969095Y2962874D02*
X3033819Y2898150D01*
X2969095Y2962874D02*
Y2985157D01*
X373425Y318150D02*
X422678D01*
X3100590Y2898150D02*
X3137952Y2935512D01*
X523346Y3435826D02*
X571792Y3484272D01*
X371457Y375433D02*
X420709D01*
X2986228Y3627913D02*
X2986642Y3627500D01*
X3126810Y2933228D02*
Y2984134D01*
X3062056Y2935148D02*
Y2984646D01*
X3130512Y2982402D02*
Y3055098D01*
X2323622Y2077894D02*
X2438386D01*
X3059222Y2985945D02*
Y3053595D01*
X3133574Y3700000D02*
Y3749496D01*
X3143378Y3632626D02*
Y3700276D01*
X596988Y3486674D02*
X646752D01*
X530118Y3512872D02*
X562678D01*
X587048Y3488504D01*
D61*
X1277246Y1848740D02*
X1336616D01*
X2407638Y1664095D02*
Y1689213D01*
X2440144Y1631589D02*
X2471811D01*
X2407638Y1664095D02*
X2440144Y1631589D01*
X1852834Y2121142D02*
X1947362D01*
X1811418Y2162558D02*
X1852834Y2121142D01*
X1947362D02*
X2000276Y2068228D01*
X2296990Y1835984D02*
X2334252Y1798723D01*
X2274409Y1835984D02*
X2296990D01*
X2246850Y1566968D02*
Y1625039D01*
X2363740Y1623504D02*
Y1770039D01*
X2317264Y1577028D02*
X2363740Y1623504D01*
X2338307Y1795473D02*
X2363740Y1770039D01*
X2407991Y1796968D02*
X2446693Y1835669D01*
X2461299D01*
X2472481Y478130D02*
Y528130D01*
X2429607Y1186850D02*
X2500630D01*
X2403091Y1213366D02*
X2429607Y1186850D01*
X2359862Y1213366D02*
X2403091D01*
X2646122Y612520D02*
Y652440D01*
X739782Y257776D02*
Y306832D01*
X424448Y250374D02*
Y316379D01*
X526850Y272716D02*
Y307638D01*
X1662165Y1724882D02*
X1800552D01*
X1382874D02*
X1662165D01*
X1362004Y1745752D02*
X1382874Y1724882D01*
X2000276Y2044373D02*
Y2046950D01*
Y2033702D02*
Y2044373D01*
Y2046950D02*
Y2068228D01*
X1856772Y2372874D02*
X1893700D01*
X1811418Y2327520D02*
X1856772Y2372874D01*
X1713417Y2327525D02*
X1811418Y2327520D01*
X1800552Y1724882D02*
X1898780Y1823110D01*
Y1995000D01*
X2823859Y295276D02*
X2852994Y324410D01*
X2791378Y295276D02*
X2823859D01*
X2777992Y281890D02*
X2791378Y295276D01*
X2763957Y267854D02*
X2777992Y281890D01*
X739467Y200295D02*
Y249351D01*
X2851162Y338820D02*
Y384824D01*
X1532755Y611771D02*
X1617007D01*
X2858662Y404764D02*
X2897678D01*
X1811418Y2162558D02*
Y2327520D01*
X2857402Y336182D02*
X2897756D01*
X1980748Y2014174D02*
X2000276Y2033702D01*
X1917952Y2014174D02*
X1980748D01*
X1898780Y1995000D02*
X1917952Y2014174D01*
X1336616Y1848740D02*
X1362004Y1823350D01*
Y1745752D02*
Y1823350D01*
X1675316Y2365630D02*
X1713417Y2327525D01*
D62*
X3072677Y3634764D02*
Y3684921D01*
D63*
X464692Y2826102D02*
Y2859456D01*
Y2668420D02*
Y2826102D01*
X462868Y2604022D02*
Y2665719D01*
Y2604022D02*
X463307Y2603583D01*
X462428Y2666158D02*
X462868Y2665719D01*
X524988Y2615078D02*
X533846Y2606220D01*
X524988Y2615078D02*
Y2741158D01*
X188465Y3506693D02*
X227125D01*
X571792Y3484272D02*
X583800D01*
X1922323Y715079D02*
X1934527Y727283D01*
X1881260Y792322D02*
X1908976D01*
X1880433Y872834D02*
X1908149D01*
X1600353Y798544D02*
Y839764D01*
X240394Y3374724D02*
X341574D01*
X342992Y3376142D01*
X415078Y3435826D02*
X415768Y3435138D01*
X408010Y3442874D02*
X415078Y3435826D01*
X792834Y3425629D02*
Y3483366D01*
X792323Y3425118D02*
X792834Y3425629D01*
X1491535Y541259D02*
X1532755D01*
X502520Y3000472D02*
Y3141142D01*
X378634Y3167756D02*
X432086D01*
X347124Y3395394D02*
X408582D01*
X414056Y3505040D02*
X471692D01*
X415078Y3575276D02*
X472716D01*
X475708Y3507284D02*
Y3572284D01*
X388672Y3239802D02*
X391940Y3236536D01*
X432086Y3167756D02*
X475906D01*
X378634D02*
Y3229764D01*
Y3167638D02*
Y3167756D01*
X475906D02*
X502520Y3141142D01*
X391940Y3236536D02*
X432834D01*
X386508Y3237638D02*
X388672Y3239802D01*
X378634Y3229764D02*
X386508Y3237638D01*
X411074Y2826102D02*
X464692D01*
X1934527Y727283D02*
X1972755D01*
X651024Y3342834D02*
X651378Y3342480D01*
X651024Y3342834D02*
Y3376456D01*
X588662Y3269764D02*
Y3306024D01*
X588346Y3427166D02*
X592264Y3423248D01*
X588032Y3427480D02*
X588346Y3427166D01*
X642028Y3423248D02*
X651024Y3414252D01*
X592264Y3423248D02*
X642028D01*
X588346Y3369330D02*
X588662Y3369016D01*
X588346Y3369330D02*
Y3427166D01*
X586692Y3369016D02*
X588662D01*
X579390Y3361712D02*
X586692Y3369016D01*
X524036Y3361712D02*
X579390D01*
X523346Y3361024D02*
X524036Y3361712D01*
X528682Y3511436D02*
X530118Y3512872D01*
X524528Y3507284D02*
X528682Y3511436D01*
Y3570020D01*
X530944Y3572284D01*
X587048Y3488504D02*
X588032D01*
X583800Y3484272D02*
X588032Y3488504D01*
X345652Y3393012D02*
X347124Y3395394D01*
X472716Y3575276D02*
X475708Y3572284D01*
X455216Y3435138D02*
X470866Y3419488D01*
X415768Y3435138D02*
X455216D01*
X470866Y3381614D02*
Y3419488D01*
X450964Y3361712D02*
X470866Y3381614D01*
X415768Y3361712D02*
X450964D01*
X415078Y3361024D02*
X415768Y3361712D01*
X1614763Y561083D02*
X1615453Y561771D01*
X1614763Y526771D02*
Y561083D01*
X1615453Y561771D02*
X1617007D01*
X1972755Y546259D02*
X2013977D01*
X462428Y2666158D02*
X464692Y2668420D01*
D64*
X2198425Y345945D02*
X2252283D01*
X2318661D02*
X2411968D01*
X2473543D02*
X2582086D01*
X2470591D02*
X2473473Y345495D01*
X2582086Y345945D02*
X2657343Y270689D01*
X908898Y617756D02*
Y664448D01*
X848671Y665245D02*
Y726507D01*
X633110Y124784D02*
X822126D01*
X522874D02*
X633110D01*
X318070D02*
X522874D01*
X960276Y230394D02*
Y271890D01*
X2278110Y1046250D02*
Y1111142D01*
X2278346Y1111378D01*
X2403110Y680669D02*
X2425119Y702678D01*
X2403110Y642284D02*
Y680669D01*
Y642284D02*
X2421457Y623937D01*
X2425119Y702678D02*
X2456496D01*
X2460394Y559999D02*
Y620000D01*
X2421457Y623937D02*
X2452559D01*
X2456496Y620000D01*
X2537322Y538189D02*
X2558858Y559725D01*
X2460394Y559999D02*
X2482204Y538189D01*
X2541968Y477361D02*
Y524921D01*
X2917252Y3461267D02*
X2948536D01*
X3094843Y2310236D02*
X3147764D01*
X3158670Y2321142D01*
X3093464Y2227598D02*
X3172622D01*
X1877834Y711771D02*
X1898503D01*
X1866024Y723582D02*
X1877834Y711771D01*
X1866024Y723582D02*
Y806339D01*
X3153110Y3425433D02*
Y3460709D01*
X3152401Y3461418D02*
X3153110Y3460709D01*
X315563Y3237717D02*
X315642Y3237638D01*
X243897Y3237717D02*
X315563D01*
X243819Y3237795D02*
X243897Y3237717D01*
X320524Y3072166D02*
X322020Y3073662D01*
Y3166142D01*
X323516Y3167638D01*
X318595Y3172559D02*
X323516Y3167638D01*
X318595Y3172559D02*
Y3234686D01*
X315642Y3237638D02*
X318595Y3234686D01*
X847874Y664448D02*
X848671Y665245D01*
X908898Y664448D02*
X1114921D01*
X1122323Y525354D02*
Y602874D01*
X1124016Y409598D02*
Y462008D01*
X2954685Y2226614D02*
X3032205D01*
X2954291Y2311024D02*
X3031811D01*
X2955787Y2402481D02*
X3033307D01*
X3096417Y2402323D02*
X3148827D01*
X1505787Y345945D02*
X1583307D01*
X3133130Y3221220D02*
Y3273878D01*
X2259568Y2013956D02*
X2386654D01*
X3129448Y3700000D02*
X3130432D01*
X2391534Y2014902D02*
X2438058D01*
X2558858Y559725D02*
Y620000D01*
X1648267Y345945D02*
X1700677Y345945D01*
X1395787D02*
X1450275D01*
D65*
X739704Y840454D02*
Y855748D01*
Y840454D02*
X742121Y838037D01*
X587681Y373150D02*
Y828340D01*
Y227327D02*
Y373150D01*
X601260D01*
X563783Y372838D02*
X576767D01*
X563426Y372480D02*
X563783Y372838D01*
X471457Y214429D02*
Y243543D01*
Y214429D02*
X480256Y205630D01*
X471457Y243543D02*
X478288Y250374D01*
X449606Y251535D02*
X452696Y248446D01*
X706480Y403135D02*
X710121Y406776D01*
X706480Y343510D02*
Y403135D01*
X692279Y406776D02*
X695566Y403488D01*
Y276413D02*
Y403488D01*
X706480Y276413D02*
Y343156D01*
X705791Y468184D02*
Y838037D01*
Y468184D02*
X710121Y463854D01*
X694877Y466452D02*
Y838037D01*
X692279Y463854D02*
X694877Y466452D01*
X566476Y838631D02*
X576767Y828340D01*
Y416142D02*
Y828340D01*
Y409505D02*
Y416142D01*
X575584Y408322D02*
X576767Y409505D01*
X574993Y408322D02*
X575584D01*
X573810Y407139D02*
X574993Y408322D01*
X573810Y397676D02*
Y407139D01*
Y397676D02*
X574993Y396494D01*
X575584D01*
X576767Y395311D01*
Y384666D02*
Y395311D01*
Y372838D02*
Y384666D01*
Y361010D02*
Y372838D01*
Y349182D02*
Y361010D01*
Y343268D02*
Y349182D01*
Y255591D02*
Y269268D01*
X574380Y271655D02*
X576767Y269268D01*
X568013Y271655D02*
X574380D01*
X565625Y274042D02*
X568013Y271655D01*
X565625Y274042D02*
Y285182D01*
X568013Y287569D01*
X574380D01*
X576767Y289956D01*
Y301096D01*
X574380Y303483D02*
X576767Y301096D01*
X568013Y303483D02*
X574380D01*
X565625Y305870D02*
X568013Y303483D01*
X565625Y305870D02*
Y317010D01*
X568013Y319397D01*
X574380D01*
X576767Y321784D01*
Y335311D01*
Y343268D01*
Y231000D02*
Y255591D01*
X587681Y828340D02*
X597972Y838631D01*
X551284Y205630D02*
X576654Y231000D01*
X480256Y205630D02*
X551284D01*
X452696Y217755D02*
Y248446D01*
Y217755D02*
X475735Y194716D01*
X2710788Y251379D02*
Y270080D01*
X2685198Y251379D02*
Y270080D01*
X2682561Y251182D02*
Y251379D01*
X2709292Y789585D02*
Y820708D01*
X2704906Y785199D02*
X2709292Y789585D01*
X2704906Y270118D02*
Y785199D01*
X2689606Y789585D02*
X2693992Y785199D01*
X2689606Y789585D02*
Y820708D01*
X2693992Y269606D02*
Y785199D01*
X597972Y838631D02*
Y855748D01*
X587567Y227213D02*
X587681Y227327D01*
X587567Y226479D02*
Y227213D01*
X555805Y194716D02*
X587567Y226479D01*
X475735Y194716D02*
X555805D01*
X566476Y838631D02*
Y855748D01*
X742121Y821462D02*
Y838037D01*
X753035Y825982D02*
Y838037D01*
X755452Y840454D01*
Y855748D01*
X753035Y825982D02*
X783252Y795765D01*
X742121Y821462D02*
X772338Y791245D01*
X765000Y250374D02*
Y269075D01*
X772338Y276413D01*
Y791245D01*
X790590Y250374D02*
Y269075D01*
X783252Y276413D02*
X790590Y269075D01*
X783252Y276413D02*
Y795765D01*
X680826Y452244D02*
Y453425D01*
X691255Y463854D01*
X692279D01*
X692460Y840454D02*
X694877Y838037D01*
X692460Y840454D02*
Y855748D01*
X721574Y452244D02*
Y453425D01*
X711145Y463854D02*
X721574Y453425D01*
X710121Y463854D02*
X711145D01*
X705791Y838037D02*
X708208Y840454D01*
Y855748D01*
X688228Y250374D02*
Y269075D01*
X695566Y276413D01*
X691255Y406776D02*
X692279D01*
X680826Y417205D02*
X691255Y406776D01*
X680826Y417205D02*
Y418386D01*
X713818Y250374D02*
Y269075D01*
X706480Y276413D02*
X713818Y269075D01*
X710121Y406776D02*
X711145D01*
X721574Y417205D01*
Y418386D01*
D66*
X802638Y865472D02*
Y877558D01*
X785754Y894442D02*
X802638Y877558D01*
X3109095Y3516378D02*
Y3540787D01*
X785754Y894442D02*
Y928500D01*
D67*
X516043Y1154862D02*
X524921Y1163740D01*
X499567Y1154862D02*
X516043D01*
X474862Y1170394D02*
Y1250236D01*
X494666Y372638D02*
X524665D01*
X770945Y869055D02*
Y875998D01*
X766162Y880781D02*
X770945Y875998D01*
X752345Y932818D02*
X766162Y919001D01*
Y880781D02*
Y919001D01*
X640434Y373150D02*
X667402D01*
X661850Y856634D02*
Y967756D01*
X2203130Y1250630D02*
Y1394154D01*
X643780Y985826D02*
X661850Y967756D01*
X633858Y985826D02*
X643780D01*
X3141606Y3633354D02*
X3147874Y3627086D01*
X3131654Y3751418D02*
X3133574Y3749496D01*
X342992Y3376142D02*
X349134Y3382284D01*
X674240Y802296D02*
Y822716D01*
X661850Y835106D02*
X674240Y822716D01*
X661850Y835106D02*
Y854862D01*
D68*
X3035394Y3223622D02*
X3085413Y3173602D01*
X2917252Y3461267D02*
X2918210Y3644564D01*
X2916081Y3237309D02*
X2917252Y3461267D01*
X190394Y3514842D02*
X301024Y3625472D01*
X188465Y3343307D02*
Y3506693D01*
Y3343307D02*
X233071Y3298701D01*
X3005827Y3223622D02*
X3035394D01*
X2916081Y3237309D02*
X2927756Y3225512D01*
X517586Y3785736D02*
X2778504D01*
X357322Y3625472D02*
X517586Y3785736D01*
X2778504D02*
X2918210Y3644564D01*
X310727Y152483D02*
X318150Y145060D01*
X301024Y3625472D02*
X357322D01*
D69*
X2239331Y2064961D02*
X2248543Y2074173D01*
X2086339Y2064961D02*
X2239331D01*
D70*
X2079252Y3581181D02*
X2124153Y3536280D01*
X792913Y3581181D02*
X2079252D01*
X938229Y160985D02*
X950669Y173425D01*
X849823Y160985D02*
X938229D01*
X3095512Y3461418D02*
Y3502795D01*
X720906Y3509174D02*
X792913Y3581181D01*
X720906Y3115670D02*
Y3509174D01*
X3095512Y3502795D02*
X3109095Y3516378D01*
X956221Y726379D02*
X956614Y726772D01*
X908779Y726379D02*
X956221D01*
X833898Y145060D02*
X849823Y160985D01*
X258268Y418819D02*
X259016Y418071D01*
Y376772D02*
Y418071D01*
X260039Y314055D02*
X310727Y263367D01*
Y152483D02*
Y263367D01*
X464692Y2859456D02*
X720906Y3115670D01*
D71*
X3005787Y3461102D02*
X3093032D01*
X284174Y3442874D02*
X408010D01*
X284094Y3442954D02*
Y3504724D01*
D72*
X1230434Y2320906D02*
X1230651Y2320689D01*
D73*
X760748Y2285079D02*
D03*
X3095315Y1788465D02*
D03*
X2844291D02*
D03*
X1837047Y1096142D02*
D03*
X301024Y3625472D02*
D03*
D74*
X860748Y2285079D02*
D03*
X760748Y2185079D02*
D03*
X860748D02*
D03*
X760748Y2085079D02*
D03*
X860748D02*
D03*
X223425Y1678150D02*
D03*
X323425D02*
D03*
X222401Y1801220D02*
D03*
X322401D02*
D03*
X220354Y1922165D02*
D03*
X320354D02*
D03*
X318307Y2402323D02*
D03*
X218307D02*
D03*
X217283Y2283386D02*
D03*
X317283D02*
D03*
X217677Y2165197D02*
D03*
X317677D02*
D03*
X316654Y2045236D02*
D03*
X216654D02*
D03*
X2995315Y1888465D02*
D03*
X3095315D02*
D03*
X2995315Y1788465D02*
D03*
X2844291Y1888465D02*
D03*
X1971574Y834725D02*
D03*
X1937047Y996142D02*
D03*
X1837047D02*
D03*
X1937047Y1096142D02*
D03*
X301024Y3725472D02*
D03*
D75*
X423425Y1678150D02*
D03*
X422401Y1801220D02*
D03*
X420354Y1922165D02*
D03*
X418307Y2402323D02*
D03*
X417283Y2283386D02*
D03*
X417677Y2165197D02*
D03*
X416654Y2045236D02*
D03*
X2071574Y834725D02*
D03*
D76*
X2291417Y1456890D02*
D03*
X1769449Y1314213D02*
D03*
X1696024D02*
D03*
D77*
X2822126Y2226890D02*
D03*
Y2313189D02*
D03*
X3159016Y2226890D02*
D03*
Y2313189D02*
D03*
X3161142Y2404961D02*
D03*
X2824252Y2399331D02*
D03*
D78*
X3137291Y2550449D02*
D03*
X2881291D02*
D03*
X3137291Y2728449D02*
D03*
X2881291D02*
D03*
D79*
X2793818Y241416D02*
D03*
X2630432D02*
D03*
D80*
X573583Y2103386D02*
D03*
X396890Y981457D02*
D03*
X438976Y1099803D02*
D03*
X514961Y1806890D02*
D03*
X474961Y1250236D02*
D03*
D81*
X1180039Y2361378D02*
D03*
X433721Y933042D02*
D03*
X359646Y1457756D02*
D03*
X378701Y1487402D02*
D03*
X1295708Y2124620D02*
D03*
X2668714Y511857D02*
D03*
Y433117D02*
D03*
Y354377D02*
D03*
X2680711Y201624D02*
D03*
X2730184Y328797D02*
D03*
Y407537D02*
D03*
Y486277D02*
D03*
Y565018D02*
D03*
Y643758D02*
D03*
Y722498D02*
D03*
X747060Y332818D02*
D03*
X793027Y201721D02*
D03*
X820542Y275498D02*
D03*
X808531Y353316D02*
D03*
Y432056D02*
D03*
Y510796D02*
D03*
Y589536D02*
D03*
Y668277D02*
D03*
Y747017D02*
D03*
X669599Y733011D02*
D03*
Y654271D02*
D03*
Y575531D02*
D03*
Y496791D02*
D03*
X731069Y504557D02*
D03*
Y583297D02*
D03*
Y662037D02*
D03*
Y740777D02*
D03*
X551489Y778841D02*
D03*
Y700100D02*
D03*
Y621360D02*
D03*
Y542620D02*
D03*
Y463880D02*
D03*
X494115Y295901D02*
D03*
X591169Y194331D02*
D03*
X612959Y269996D02*
D03*
X628594Y347168D02*
D03*
X612959Y424340D02*
D03*
Y503080D02*
D03*
Y581821D02*
D03*
X737441Y372283D02*
D03*
X668268Y304842D02*
D03*
X1440787Y2743110D02*
D03*
X1397598Y2916417D02*
D03*
X1346811Y2917047D02*
D03*
X3137480Y1623189D02*
D03*
X2947913Y1657992D02*
D03*
X3085236Y1583701D02*
D03*
X3041024Y1606260D02*
D03*
X2343071Y2231968D02*
D03*
X2517008Y2230827D02*
D03*
X2178661Y1982559D02*
D03*
X2167716Y2006535D02*
D03*
X2220787Y2103937D02*
D03*
X2216142Y2005000D02*
D03*
X2323504Y2527520D02*
D03*
X2379803Y2673583D02*
D03*
X2276339Y2672598D02*
D03*
X2379213Y2706969D02*
D03*
X2366220Y2853740D02*
D03*
X2366181Y2905039D02*
D03*
X2275984Y2906220D02*
D03*
X2338898Y2884095D02*
D03*
X2198425Y345945D02*
D03*
X2292362Y3454213D02*
D03*
X2267008D02*
D03*
X2340945Y2708386D02*
D03*
X2169679Y1827727D02*
D03*
X2134291Y3302835D02*
D03*
X2258701Y2884095D02*
D03*
X1897047Y3328937D02*
D03*
X1850118D02*
D03*
X2311260Y3397087D02*
D03*
X2296732Y2708386D02*
D03*
X1421457D02*
D03*
X1369842Y2880748D02*
D03*
X2294606Y2527402D02*
D03*
X2257835Y2708386D02*
D03*
X2231929Y3328937D02*
D03*
X2209449Y3392205D02*
D03*
X2185748Y3412047D02*
D03*
X2163583Y3392205D02*
D03*
X325414Y575084D02*
D03*
X2406850Y1799764D02*
D03*
X2407638Y1689213D02*
D03*
X1960827Y3454213D02*
D03*
X1987559Y3392205D02*
D03*
X1947874Y3328937D02*
D03*
X533846Y2606220D02*
D03*
X888903Y882639D02*
D03*
X2130512Y2043425D02*
D03*
X2132835Y2005276D02*
D03*
X2196811Y3454213D02*
D03*
X1686574Y3328937D02*
D03*
X1615433D02*
D03*
X2088189D02*
D03*
X2039856D02*
D03*
X1787126D02*
D03*
X1993976D02*
D03*
X2122126Y3392205D02*
D03*
X2077677D02*
D03*
X2030827D02*
D03*
X1935512D02*
D03*
X1886220D02*
D03*
X1840079D02*
D03*
X1798819D02*
D03*
X1665039D02*
D03*
X1737441Y3328937D02*
D03*
X1723032Y3392205D02*
D03*
X1642283Y3328937D02*
D03*
X1760197Y3392205D02*
D03*
X2151063Y3454213D02*
D03*
X2102756D02*
D03*
X2057008D02*
D03*
X2008071D02*
D03*
X1915827D02*
D03*
X1865551D02*
D03*
X1819134D02*
D03*
X1772520D02*
D03*
X1724961D02*
D03*
X1676771D02*
D03*
X2123189Y1847913D02*
D03*
X1392835Y2384291D02*
D03*
X1305138Y2242794D02*
D03*
X1306574Y2298558D02*
D03*
X2333937Y1689842D02*
D03*
X2334252Y1798723D02*
D03*
X2386575Y2147598D02*
D03*
X2438058Y2014902D02*
D03*
X2126299Y3523701D02*
D03*
X2032126D02*
D03*
X1937126D02*
D03*
X1843543D02*
D03*
X1607283D02*
D03*
X1748818D02*
D03*
X2327125Y3328937D02*
D03*
X1567993Y3523701D02*
D03*
X1700867D02*
D03*
X1795670D02*
D03*
X1889843D02*
D03*
X1984646D02*
D03*
X2079134D02*
D03*
X2173268D02*
D03*
X2220512D02*
D03*
X2243898D02*
D03*
X2424804D02*
D03*
X2314842D02*
D03*
X2386300D02*
D03*
X2363740D02*
D03*
X2340040D02*
D03*
X2278346Y1205264D02*
D03*
X2470905Y477047D02*
D03*
X2543780Y475906D02*
D03*
X607323Y801772D02*
D03*
X716496Y895827D02*
D03*
X751614Y932087D02*
D03*
X577087Y895827D02*
D03*
X540749Y944488D02*
D03*
X542008Y910118D02*
D03*
X627953Y987402D02*
D03*
X1180551Y2320138D02*
D03*
X291989Y932579D02*
D03*
X578858Y1129685D02*
D03*
X2623386Y886812D02*
D03*
X2657834Y887008D02*
D03*
X2646850Y612520D02*
D03*
X2640079Y755275D02*
D03*
X2737913Y753543D02*
D03*
X2727678Y887618D02*
D03*
X2792598Y961535D02*
D03*
X2687402Y977480D02*
D03*
X2591654Y960708D02*
D03*
X1908228Y874291D02*
D03*
X1909134Y790079D02*
D03*
X2014763Y611771D02*
D03*
X1678464Y713425D02*
D03*
X1601378Y840749D02*
D03*
X494666Y372638D02*
D03*
X2758662Y147166D02*
D03*
X2553938D02*
D03*
X2664174D02*
D03*
X2868898D02*
D03*
X3153110Y3425433D02*
D03*
X956614Y726772D02*
D03*
X1124016Y409598D02*
D03*
X258268Y418819D02*
D03*
X371457Y375433D02*
D03*
X373425Y318150D02*
D03*
X2948150Y1604882D02*
D03*
X3041142Y1561535D02*
D03*
X3106260Y1540630D02*
D03*
X3136418Y1575846D02*
D03*
X3079016Y1513701D02*
D03*
X2198740Y739012D02*
D03*
X1274488Y1964488D02*
D03*
X1276968Y2340787D02*
D03*
X960276Y271890D02*
D03*
Y366850D02*
D03*
Y480512D02*
D03*
Y586811D02*
D03*
X240394Y3374724D02*
D03*
X1636299Y1662480D02*
D03*
X1826653Y1680158D02*
D03*
X1874764Y1680827D02*
D03*
X1991898Y1686268D02*
D03*
X3000787Y1585591D02*
D03*
X1837756Y1315433D02*
D03*
X1597835Y1544803D02*
D03*
X919724Y3729095D02*
D03*
X2608150Y3725787D02*
D03*
X2234173Y3730276D02*
D03*
X1867992Y3729134D02*
D03*
X1535433D02*
D03*
X1165945D02*
D03*
X739467Y200295D02*
D03*
X2969547Y2889468D02*
D03*
X2779291Y2911575D02*
D03*
X2779705Y3054941D02*
D03*
Y3223602D02*
D03*
Y3411358D02*
D03*
X2778642Y3594862D02*
D03*
X271890Y599252D02*
D03*
X264842Y2601024D02*
D03*
X196024D02*
D03*
X197520Y2675669D02*
D03*
X201220Y3024921D02*
D03*
X202795Y3157284D02*
D03*
X693780Y3657165D02*
D03*
X636969Y3714448D02*
D03*
X695827Y3714409D02*
D03*
X636024Y2606102D02*
D03*
X785754Y932087D02*
D03*
X876497Y1032361D02*
D03*
X669409Y895827D02*
D03*
X667402Y373150D02*
D03*
X2785433Y2783937D02*
D03*
X2784272Y2501299D02*
D03*
X737992Y306832D02*
D03*
X3062056Y2935148D02*
D03*
X2762520Y886870D02*
D03*
X502126Y3000472D02*
D03*
X432086Y3167756D02*
D03*
X432834Y3236536D02*
D03*
X412598Y3505000D02*
D03*
X2809764Y688622D02*
D03*
X2402126Y1295748D02*
D03*
X2897678Y404764D02*
D03*
X472028Y770492D02*
D03*
X737284Y1008268D02*
D03*
X531260Y1092835D02*
D03*
X594370Y986575D02*
D03*
X1482244Y1658268D02*
D03*
X1484686Y1803200D02*
D03*
X1502456Y2371466D02*
D03*
X1555840Y2370954D02*
D03*
X1622756Y2370906D02*
D03*
X1672048Y2371930D02*
D03*
X1750670Y2369686D02*
D03*
X1748898Y2227206D02*
D03*
X1842836Y2200118D02*
D03*
X2006576Y2200512D02*
D03*
X2003582Y2335670D02*
D03*
X2002678Y2273228D02*
D03*
X1894922Y2234724D02*
D03*
X1893700Y2372874D02*
D03*
X2000276Y2046950D02*
D03*
X1998504Y1983386D02*
D03*
Y1926064D02*
D03*
X1418464Y1660000D02*
D03*
X1361850Y1660708D02*
D03*
X1573640Y1662222D02*
D03*
X1693728Y1662974D02*
D03*
X1749748Y1664232D02*
D03*
X1287992Y1787638D02*
D03*
Y1847716D02*
D03*
X1429448Y1849686D02*
D03*
X1430078Y1785316D02*
D03*
X2857722Y990758D02*
D03*
X2858268Y885236D02*
D03*
X2810068Y886006D02*
D03*
X1934606Y1686772D02*
D03*
X3067480Y3752126D02*
D03*
X3131654Y3751418D02*
D03*
X887894Y789822D02*
D03*
X651417Y1010591D02*
D03*
X845354Y1417854D02*
D03*
X1295708Y2102572D02*
D03*
X588662Y3269764D02*
D03*
X651378Y3342480D02*
D03*
X415078Y3575276D02*
D03*
X3126810Y2933228D02*
D03*
X1962638Y1653426D02*
D03*
X1981063Y1539961D02*
D03*
X1614763Y526771D02*
D03*
X2924332Y756812D02*
D03*
X2897756Y336182D02*
D03*
X2203878Y1394154D02*
D03*
X2144824D02*
D03*
X637008Y1926378D02*
D03*
X3133130Y3273878D02*
D03*
X2013977Y546259D02*
D03*
X1490551Y542283D02*
D03*
X634370Y1864291D02*
D03*
X674626Y801772D02*
D03*
X645216Y1159449D02*
D03*
X786752D02*
D03*
X791339Y1055354D02*
D03*
X636339Y895827D02*
D03*
X570433Y1013032D02*
D03*
X570276Y1049488D02*
D03*
X645216Y1055374D02*
D03*
X697402Y1055354D02*
D03*
X697874Y1159449D02*
D03*
X909055Y617756D02*
D03*
X272598Y666654D02*
D03*
X626300Y649449D02*
D03*
X1700677Y345945D02*
D03*
X1840590Y2047362D02*
D03*
X526496Y307638D02*
D03*
X1391319Y345945D02*
D03*
X2542087Y803268D02*
D03*
X2456818Y809410D02*
D03*
X2791654Y1192048D02*
D03*
X2830040Y1192244D02*
D03*
X2854612Y1082422D02*
D03*
X2854434Y1117942D02*
D03*
X2690018Y1131450D02*
D03*
X2689474Y1166862D02*
D03*
X2571124Y1048020D02*
D03*
X2569776Y1135892D02*
D03*
X2570072Y1171268D02*
D03*
X2504803Y2016732D02*
D03*
X2456930Y849764D02*
D03*
X2590276Y1322496D02*
D03*
X2500384Y1219960D02*
D03*
X2357834Y1294804D02*
D03*
X2228307Y833461D02*
D03*
X2356968Y834444D02*
D03*
X2438386Y2078661D02*
D03*
X2674056Y1048818D02*
D03*
D82*
X481457Y2817126D02*
D03*
D83*
X524921Y1163740D02*
D03*
D84*
X792834Y3485906D02*
D03*
X647362Y3487204D02*
D03*
%TF.MD5,1efdeaf56589ab22e90893cd0bca258a*%
M02*
