%TF.GenerationSoftware,Altium Limited,Altium Designer,18.1.7 (191)*%
G04 Layer_Color=32896*
%FSLAX26Y26*%
%MOIN*%
%TF.FileFunction,Other,Top_Courtyard*%
%TF.Part,Single*%
G01*
G75*
%TA.AperFunction,NonConductor*%
%ADD108C,0.003937*%
%ADD176C,0.001968*%
D108*
X552009Y1847599D02*
Y1883031D01*
X534291Y1865315D02*
X569725D01*
X551771Y1909291D02*
Y1944725D01*
X534055Y1927007D02*
X569487D01*
X2443031Y328228D02*
Y363661D01*
X2425315Y345945D02*
X2460748D01*
X2286181Y328228D02*
Y363661D01*
X2268464Y345945D02*
X2303898D01*
X2350472Y2764016D02*
Y2799449D01*
X2332756Y2781732D02*
X2368189D01*
X2297204Y2585276D02*
Y2620709D01*
X2279488Y2602992D02*
X2314921D01*
X2264646Y2761575D02*
Y2797008D01*
X2246929Y2779291D02*
X2282362D01*
X1394173Y2585276D02*
Y2620709D01*
X1376457Y2602992D02*
X1411890D01*
X1368583Y2761260D02*
Y2796693D01*
X1350866Y2778976D02*
X1386299D01*
X2277874Y996802D02*
Y1032234D01*
X2260158Y1014518D02*
X2295590D01*
X2162874Y1129311D02*
Y1168681D01*
X2143189Y1148996D02*
X2182559D01*
X2273228Y1549252D02*
Y1584685D01*
X2255512Y1566968D02*
X2290945D01*
X2218819Y2602992D02*
X2254252D01*
X2236535Y2585276D02*
Y2620709D01*
X2340236Y2602992D02*
X2375669D01*
X2357953Y2585276D02*
Y2620709D01*
X1439173Y2602992D02*
X1474606D01*
X1456890Y2585276D02*
Y2620709D01*
X1312835Y2602992D02*
X1348268D01*
X1330551Y2585276D02*
Y2620709D01*
X1249173Y2602992D02*
X1284606D01*
X1266890Y2585276D02*
Y2620709D01*
X2390197Y1231575D02*
X2415787D01*
X2402992Y1218780D02*
Y1244370D01*
X679528Y422520D02*
Y448110D01*
X666732Y435315D02*
X692323D01*
X709646D02*
X735236D01*
X722441Y422520D02*
Y448110D01*
X2792126Y707087D02*
Y732677D01*
X2779331Y719882D02*
X2804921D01*
X3090787Y3580827D02*
X3130157D01*
X3110472Y3561142D02*
Y3600512D01*
X3093386Y3085354D02*
Y3124725D01*
X3073700Y3105039D02*
X3113071D01*
X2347756Y1230984D02*
X2369409D01*
X2358583Y1220158D02*
Y1241811D01*
X409213Y554685D02*
Y592087D01*
X390512Y573386D02*
X427913D01*
X255413Y746831D02*
X292815D01*
X274114Y728130D02*
Y765532D01*
X660964Y1008308D02*
Y1047678D01*
X641280Y1027992D02*
X680650D01*
X1757755Y617087D02*
Y656457D01*
X1738071Y636771D02*
X1777441D01*
X2959528Y3461102D02*
X2994961D01*
X2977244Y3443386D02*
Y3478819D01*
X2959567Y3223622D02*
X2995000D01*
X2977284Y3205905D02*
Y3241338D01*
X243819Y3248622D02*
Y3284055D01*
X226102Y3266339D02*
X261535D01*
X237835Y3504724D02*
X273268D01*
X255551Y3487008D02*
Y3522441D01*
X1122323Y475157D02*
Y510590D01*
X1104606Y492874D02*
X1140039D01*
X1103622Y631024D02*
X1139055D01*
X1121339Y613307D02*
Y648740D01*
X960276Y184134D02*
Y219567D01*
X942559Y201850D02*
X977992D01*
X259016Y330512D02*
Y365945D01*
X241299Y348228D02*
X276732D01*
X1839449Y1399606D02*
Y1435039D01*
X1821732Y1417323D02*
X1857165D01*
X2768150Y2706929D02*
X2803583D01*
X2785866Y2689213D02*
Y2724646D01*
X2768071Y2578976D02*
X2803504D01*
X2785787Y2561260D02*
Y2596693D01*
X3045945Y2228622D02*
X3081378D01*
X3063661Y2210906D02*
Y2246339D01*
X3045945Y2311024D02*
X3081378D01*
X3063661Y2293307D02*
Y2328740D01*
X3048071Y2402481D02*
X3083504D01*
X3065787Y2384764D02*
Y2420197D01*
X2921850Y2211496D02*
Y2246929D01*
X2904134Y2229213D02*
X2939567D01*
X2921850Y2293307D02*
Y2328740D01*
X2904134Y2311024D02*
X2939567D01*
X2923976Y2385827D02*
Y2421260D01*
X2906260Y2403543D02*
X2941693D01*
X846339Y1355394D02*
Y1377048D01*
X835511Y1366220D02*
X857165D01*
X2259961Y739645D02*
X2295394D01*
X2277677Y721929D02*
Y757363D01*
X3104173Y3461418D02*
X3141575D01*
X3122873Y3442716D02*
Y3480118D01*
X3099922Y3681300D02*
Y3718700D01*
X3081220Y3700000D02*
X3118622D01*
X588032Y3440276D02*
Y3475708D01*
X570314Y3457992D02*
X605748D01*
X588662Y3319802D02*
Y3355236D01*
X570944Y3337520D02*
X606378D01*
X1955039Y576771D02*
X1990473D01*
X1972755Y559055D02*
Y594487D01*
X2260630Y1141890D02*
X2296062D01*
X2278346Y1124174D02*
Y1159606D01*
X651024Y3376654D02*
Y3414054D01*
X632322Y3395354D02*
X669724D01*
X2809488Y401850D02*
X2844922D01*
X2827204Y384134D02*
Y419568D01*
Y321102D02*
Y356536D01*
X2809488Y338820D02*
X2844922D01*
X2371850Y2044428D02*
X2407284D01*
X2389568Y2026712D02*
Y2062146D01*
X2175964Y1321438D02*
Y1356870D01*
X2158248Y1339154D02*
X2193682D01*
X2509764Y520473D02*
Y555905D01*
X2492048Y538189D02*
X2527480D01*
X2357716Y891772D02*
Y927204D01*
X2340000Y909488D02*
X2375434D01*
X2278371Y850355D02*
Y885787D01*
X2260655Y868071D02*
X2296087D01*
X2630394Y679763D02*
X2665826D01*
X2648110Y662047D02*
Y697481D01*
X609134Y373150D02*
X631182D01*
X620158Y362126D02*
Y384174D01*
X533505Y372480D02*
X555552D01*
X544529Y361456D02*
Y383504D01*
X3074920Y2983622D02*
X3112322D01*
X3093622Y2964920D02*
Y3002322D01*
X3087756Y3221516D02*
X3125158D01*
X3106456Y3202816D02*
Y3240216D01*
X1866024Y816181D02*
Y851615D01*
X1848306Y833899D02*
X1883740D01*
X1957913Y697165D02*
X1993347D01*
X1975629Y679449D02*
Y714881D01*
X1515039Y576771D02*
X1550473D01*
X1532755Y559055D02*
Y594487D01*
X1632637Y775905D02*
Y811339D01*
X1614921Y793623D02*
X1650353D01*
X1463071Y345945D02*
X1498503D01*
X1480787Y328229D02*
Y363661D01*
X1615787Y328229D02*
Y363661D01*
X1598071Y345945D02*
X1633503D01*
X860551Y726379D02*
X895985D01*
X878269Y708660D02*
Y744095D01*
X607954Y720551D02*
X645354D01*
X626654Y701851D02*
Y739251D01*
X2894174Y694606D02*
Y730039D01*
X2876458Y712323D02*
X2911890D01*
X404962Y347873D02*
X440394D01*
X422678Y330157D02*
Y365591D01*
X479252Y3507284D02*
X514686D01*
X496968Y3489566D02*
Y3525000D01*
X476812Y3572284D02*
X514212D01*
X495512Y3553582D02*
Y3590984D01*
X351074Y3149922D02*
Y3185354D01*
X333358Y3167638D02*
X368792D01*
X332374Y3237638D02*
X369776D01*
X351074Y3218938D02*
Y3256338D01*
X479160Y2666158D02*
X516562D01*
X497862Y2647456D02*
Y2684858D01*
X497428Y2723440D02*
Y2758874D01*
X479712Y2741158D02*
X515146D01*
X331418Y3409842D02*
X366850D01*
X349134Y3392126D02*
Y3427558D01*
X284174Y3388740D02*
Y3426142D01*
X265472Y3407440D02*
X302874D01*
X860668Y664448D02*
X896102D01*
X878386Y646732D02*
Y682164D01*
D176*
X492953Y1894843D02*
X611063D01*
X492953Y1835787D02*
X611063D01*
X492953D02*
Y1894843D01*
X611063Y1835787D02*
Y1894843D01*
X494685Y1954567D02*
X608857D01*
X494685Y1899449D02*
X608857D01*
X494685D02*
Y1954567D01*
X608857Y1899449D02*
Y1954567D01*
X2385945Y373504D02*
X2500118D01*
X2385945Y318386D02*
X2500118D01*
X2385945D02*
Y373504D01*
X2500118Y318386D02*
Y373504D01*
X2227126Y375472D02*
X2345236D01*
X2227126Y316417D02*
X2345236D01*
X2227126D02*
Y375472D01*
X2345236Y316417D02*
Y375472D01*
X2322913Y2724646D02*
X2378032D01*
X2322913Y2838819D02*
X2378032D01*
X2322913Y2724646D02*
Y2838819D01*
X2378032Y2724646D02*
Y2838819D01*
X2269646Y2545905D02*
X2324764D01*
X2269646Y2660079D02*
X2324764D01*
X2269646Y2545905D02*
Y2660079D01*
X2324764Y2545905D02*
Y2660079D01*
X2237087Y2722205D02*
X2292205D01*
X2237087Y2836378D02*
X2292205D01*
X2237087Y2722205D02*
Y2836378D01*
X2292205Y2722205D02*
Y2836378D01*
X1366614Y2545905D02*
X1421732D01*
X1366614Y2660079D02*
X1421732D01*
X1366614Y2545905D02*
Y2660079D01*
X1421732Y2545905D02*
Y2660079D01*
X1341024Y2721890D02*
X1396142D01*
X1341024Y2836063D02*
X1396142D01*
X1341024Y2721890D02*
Y2836063D01*
X1396142Y2721890D02*
Y2836063D01*
X2250316Y1071604D02*
X2305434D01*
X2250316Y957432D02*
X2305434D01*
Y1071604D01*
X2250316Y957432D02*
Y1071604D01*
X2093977Y1025965D02*
X2231772D01*
X2093977Y1272027D02*
X2231772D01*
X2093977Y1025965D02*
Y1272027D01*
X2231772Y1025965D02*
Y1272027D01*
X2216142Y1539409D02*
X2330315D01*
X2216142Y1594527D02*
X2330315D01*
Y1539409D02*
Y1594527D01*
X2216142Y1539409D02*
Y1594527D01*
X2264095Y2545905D02*
Y2660079D01*
X2208976Y2545905D02*
Y2660079D01*
X2264095D01*
X2208976Y2545905D02*
X2264095D01*
X2385512D02*
Y2660079D01*
X2330394Y2545905D02*
Y2660079D01*
X2385512D01*
X2330394Y2545905D02*
X2385512D01*
X1484449D02*
Y2660079D01*
X1429331Y2545905D02*
Y2660079D01*
X1484449D01*
X1429331Y2545905D02*
X1484449D01*
X1358110D02*
Y2660079D01*
X1302992Y2545905D02*
Y2660079D01*
X1358110D01*
X1302992Y2545905D02*
X1358110D01*
X1294449D02*
Y2660079D01*
X1239331Y2545905D02*
Y2660079D01*
X1294449D01*
X1239331Y2545905D02*
X1294449D01*
X2383307Y1194173D02*
Y1268976D01*
X2422677Y1194173D02*
Y1268976D01*
X2383307Y1194173D02*
X2422677D01*
X2383307Y1268976D02*
X2422677D01*
X659843Y397913D02*
X699213D01*
X659843Y472717D02*
X699213D01*
X659843Y397913D02*
Y472717D01*
X699213Y397913D02*
Y472717D01*
X742126Y397913D02*
Y472717D01*
X702756Y397913D02*
Y472717D01*
X742126D01*
X702756Y397913D02*
X742126D01*
X2754724Y739567D02*
X2829528D01*
X2754724Y700197D02*
X2829528D01*
X2754724D02*
Y739567D01*
X2829528Y700197D02*
Y739567D01*
X3039606Y3506024D02*
Y3655630D01*
X3181338Y3506024D02*
Y3655630D01*
X3039606Y3506024D02*
X3181338D01*
X3039606Y3655630D02*
X3181338D01*
X3022519Y3030236D02*
X3164252D01*
X3022519Y3179843D02*
X3164252D01*
X3022519Y3030236D02*
Y3179843D01*
X3164252Y3030236D02*
Y3179843D01*
X2340866Y1193583D02*
Y1268386D01*
X2376299Y1193583D02*
Y1268386D01*
X2340866Y1193583D02*
X2376299D01*
X2340866Y1268386D02*
X2376299D01*
X350157Y543858D02*
X468268D01*
X350157Y602913D02*
X468268D01*
Y543858D02*
Y602913D01*
X350157Y543858D02*
Y602913D01*
X303642Y687776D02*
Y805886D01*
X244587Y687776D02*
Y805886D01*
X303642D01*
X244587Y687776D02*
X303642D01*
X460178Y827204D02*
X861752D01*
X460178Y1228780D02*
X861752D01*
Y827204D02*
Y1228780D01*
X460178Y827204D02*
Y1228780D01*
X1574685Y518661D02*
X1940827D01*
X1574685Y754881D02*
X1940827D01*
Y518661D02*
Y754881D01*
X1574685Y518661D02*
Y754881D01*
X2920157Y3433543D02*
Y3488661D01*
X3034331Y3433543D02*
Y3488661D01*
X2920157D02*
X3034331D01*
X2920157Y3433543D02*
X3034331D01*
X2920197Y3196063D02*
Y3251181D01*
X3034370Y3196063D02*
Y3251181D01*
X2920197D02*
X3034370D01*
X2920197Y3196063D02*
X3034370D01*
X216260Y3323425D02*
X271378D01*
X216260Y3209252D02*
X271378D01*
Y3323425D01*
X216260Y3209252D02*
Y3323425D01*
X312638Y3477165D02*
Y3532284D01*
X198465Y3477165D02*
Y3532284D01*
Y3477165D02*
X312638D01*
X198465Y3532284D02*
X312638D01*
X1092795Y551929D02*
X1151850D01*
X1092795Y433819D02*
X1151850D01*
Y551929D01*
X1092795Y433819D02*
Y551929D01*
X1093780Y573937D02*
Y688110D01*
X1148898Y573937D02*
Y688110D01*
X1093780Y573937D02*
X1148898D01*
X1093780Y688110D02*
X1148898D01*
X932717Y144764D02*
X987835D01*
X932717Y258937D02*
X987835D01*
X932717Y144764D02*
Y258937D01*
X987835Y144764D02*
Y258937D01*
X231457Y291142D02*
X286575D01*
X231457Y405315D02*
X286575D01*
X231457Y291142D02*
Y405315D01*
X286575Y291142D02*
Y405315D01*
X1809921Y1476378D02*
X1868976D01*
X1809921Y1358268D02*
X1868976D01*
Y1476378D01*
X1809921Y1358268D02*
Y1476378D01*
X2813425Y2649843D02*
Y2764016D01*
X2758307Y2649843D02*
Y2764016D01*
X2813425D01*
X2758307Y2649843D02*
X2813425D01*
X2815315Y2519921D02*
Y2638032D01*
X2756260Y2519921D02*
Y2638032D01*
X2815315D01*
X2756260Y2519921D02*
X2815315D01*
X3004606Y2199095D02*
Y2258150D01*
X3122716Y2199095D02*
Y2258150D01*
X3004606D02*
X3122716D01*
X3004606Y2199095D02*
X3122716D01*
X3004606Y2281496D02*
Y2340551D01*
X3122716Y2281496D02*
Y2340551D01*
X3004606D02*
X3122716D01*
X3004606Y2281496D02*
X3122716D01*
X3006732Y2372953D02*
Y2432008D01*
X3124843Y2372953D02*
Y2432008D01*
X3006732D02*
X3124843D01*
X3006732Y2372953D02*
X3124843D01*
X2864764Y2201653D02*
X2978937D01*
X2864764Y2256772D02*
X2978937D01*
Y2201653D02*
Y2256772D01*
X2864764Y2201653D02*
Y2256772D01*
Y2283465D02*
X2978937D01*
X2864764Y2338583D02*
X2978937D01*
Y2283465D02*
Y2338583D01*
X2864764Y2283465D02*
Y2338583D01*
X2866890Y2375984D02*
X2981063D01*
X2866890Y2431102D02*
X2981063D01*
Y2375984D02*
Y2431102D01*
X2866890Y2375984D02*
Y2431102D01*
X828621Y1330788D02*
X864055D01*
X828621Y1401654D02*
X864055D01*
X828621Y1330788D02*
Y1401654D01*
X864055Y1330788D02*
Y1401654D01*
X2334764Y712087D02*
Y767205D01*
X2220591Y712087D02*
Y767205D01*
Y712087D02*
X2334764D01*
X2220591Y767205D02*
X2334764D01*
X3063819Y3431890D02*
Y3490946D01*
X3181929Y3431890D02*
Y3490946D01*
X3063819D02*
X3181929D01*
X3063819Y3431890D02*
X3181929D01*
X3040866Y3670472D02*
X3158976D01*
X3040866Y3729528D02*
X3158976D01*
Y3670472D02*
Y3729528D01*
X3040866Y3670472D02*
Y3729528D01*
X560472Y3400906D02*
X615590D01*
X560472Y3515078D02*
X615590D01*
X560472Y3400906D02*
Y3515078D01*
X615590Y3400906D02*
Y3515078D01*
X561102Y3280432D02*
X616220D01*
X561102Y3394606D02*
X616220D01*
X561102Y3280432D02*
Y3394606D01*
X616220Y3280432D02*
Y3394606D01*
X1945197Y519685D02*
Y633859D01*
X2000315Y519685D02*
Y633859D01*
X1945197Y519685D02*
X2000315D01*
X1945197Y633859D02*
X2000315D01*
X2305906Y1084804D02*
Y1198976D01*
X2250788Y1084804D02*
Y1198976D01*
X2305906D01*
X2250788Y1084804D02*
X2305906D01*
X621496Y3336300D02*
X680552D01*
X621496Y3454410D02*
X680552D01*
X621496Y3336300D02*
Y3454410D01*
X680552Y3336300D02*
Y3454410D01*
X2770118Y374292D02*
Y429410D01*
X2884292Y374292D02*
Y429410D01*
X2770118D02*
X2884292D01*
X2770118Y374292D02*
X2884292D01*
X2768150Y309292D02*
X2886260D01*
X2768150Y368346D02*
X2886260D01*
Y309292D02*
Y368346D01*
X2768150Y309292D02*
Y368346D01*
X2360040Y1985374D02*
Y2103484D01*
X2419094Y1985374D02*
Y2103484D01*
X2360040Y1985374D02*
X2419094D01*
X2360040Y2103484D02*
X2419094D01*
X2116910Y1368682D02*
X2235020D01*
X2116910Y1309626D02*
X2235020D01*
X2116910D02*
Y1368682D01*
X2235020Y1309626D02*
Y1368682D01*
X2450708Y567717D02*
X2568820D01*
X2450708Y508661D02*
X2568820D01*
X2450708D02*
Y567717D01*
X2568820Y508661D02*
Y567717D01*
X2330158Y966574D02*
X2385276D01*
X2330158Y852402D02*
X2385276D01*
Y966574D01*
X2330158Y852402D02*
Y966574D01*
X2250811Y925157D02*
X2305929D01*
X2250811Y810985D02*
X2305929D01*
Y925157D01*
X2250811Y810985D02*
Y925157D01*
X2675670Y622677D02*
Y736851D01*
X2620552Y622677D02*
Y736851D01*
X2675670D01*
X2620552Y622677D02*
X2675670D01*
X655592Y355434D02*
Y390866D01*
X584726Y355434D02*
Y390866D01*
Y355434D02*
X655592D01*
X584726Y390866D02*
X655592D01*
X509096Y354764D02*
Y390198D01*
X579962Y354764D02*
Y390198D01*
X509096D02*
X579962D01*
X509096Y354764D02*
X579962D01*
X3152676Y2954094D02*
Y3013150D01*
X3034566Y2954094D02*
Y3013150D01*
Y2954094D02*
X3152676D01*
X3034566Y3013150D02*
X3152676D01*
X3047402Y3191988D02*
Y3251044D01*
X3165512Y3191988D02*
Y3251044D01*
X3047402D02*
X3165512D01*
X3047402Y3191988D02*
X3165512D01*
X1836496Y892953D02*
X1895552D01*
X1836496Y774843D02*
X1895552D01*
Y892953D01*
X1836496Y774843D02*
Y892953D01*
X2003189Y640079D02*
Y754253D01*
X1948071Y640079D02*
Y754253D01*
X2003189D01*
X1948071Y640079D02*
X2003189D01*
X1505197Y519685D02*
Y633859D01*
X1560315Y519685D02*
Y633859D01*
X1505197Y519685D02*
X1560315D01*
X1505197Y633859D02*
X1560315D01*
X1575551Y821181D02*
X1689725D01*
X1575551Y766063D02*
X1689725D01*
X1575551D02*
Y821181D01*
X1689725Y766063D02*
Y821181D01*
X1423701Y318387D02*
Y373505D01*
X1537873Y318387D02*
Y373505D01*
X1423701D02*
X1537873D01*
X1423701Y318387D02*
X1537873D01*
X1556731Y316417D02*
X1674843D01*
X1556731Y375473D02*
X1674843D01*
Y316417D02*
Y375473D01*
X1556731Y316417D02*
Y375473D01*
X935355Y698818D02*
Y753937D01*
X821181Y698818D02*
Y753937D01*
Y698818D02*
X935355D01*
X821181Y753937D02*
X935355D01*
X656182Y661495D02*
Y779607D01*
X597126Y661495D02*
Y779607D01*
X656182D01*
X597126Y661495D02*
X656182D01*
X2837086Y739881D02*
X2951260D01*
X2837086Y684764D02*
X2951260D01*
X2837086D02*
Y739881D01*
X2951260Y684764D02*
Y739881D01*
X393149Y288819D02*
Y406929D01*
X452205Y288819D02*
Y406929D01*
X393149Y288819D02*
X452205D01*
X393149Y406929D02*
X452205D01*
X437914Y3477756D02*
Y3536810D01*
X556024Y3477756D02*
Y3536810D01*
X437914D02*
X556024D01*
X437914Y3477756D02*
X556024D01*
X434488Y3542756D02*
Y3601810D01*
X556536Y3542756D02*
Y3601810D01*
X434488D02*
X556536D01*
X434488Y3542756D02*
X556536D01*
X292020Y3197166D02*
X410130D01*
X292020Y3138110D02*
X410130D01*
X292020D02*
Y3197166D01*
X410130Y3138110D02*
Y3197166D01*
X412098Y3208110D02*
Y3267166D01*
X290052Y3208110D02*
Y3267166D01*
Y3208110D02*
X412098D01*
X290052Y3267166D02*
X412098D01*
X558886Y2636630D02*
Y2695684D01*
X436838Y2636630D02*
Y2695684D01*
Y2636630D02*
X558886D01*
X436838Y2695684D02*
X558886D01*
X438374Y2770684D02*
X556484D01*
X438374Y2711630D02*
X556484D01*
X438374D02*
Y2770684D01*
X556484Y2711630D02*
Y2770684D01*
X378662Y3350788D02*
Y3468898D01*
X319606Y3350788D02*
Y3468898D01*
X378662D01*
X319606Y3350788D02*
X378662D01*
X254646Y3346418D02*
X313700D01*
X254646Y3468464D02*
X313700D01*
X254646Y3346418D02*
Y3468464D01*
X313700Y3346418D02*
Y3468464D01*
X821298Y636890D02*
Y692009D01*
X935472Y636890D02*
Y692009D01*
X821298D02*
X935472D01*
X821298Y636890D02*
X935472D01*
%TF.MD5,ea1d9b9a5b80ff2261b30aa3c7bd1c17*%
M02*
