%TF.GenerationSoftware,Altium Limited,Altium Designer,18.1.7 (191)*%
G04 Layer_Color=16711935*
%FSLAX26Y26*%
%MOIN*%
%TF.FileFunction,Other,Mechanical_13*%
%TF.Part,Single*%
G01*
G75*
%TA.AperFunction,NonConductor*%
%ADD108C,0.003937*%
%ADD179C,0.005000*%
D108*
X1309173Y2374055D02*
G03*
X1309173Y2374055I-19685J0D01*
G01*
X2577402Y877795D02*
G03*
X2577402Y877795I-19685J0D01*
G01*
X2282953Y1874173D02*
X2456181D01*
Y1618268D02*
Y1874173D01*
X2282953Y1618268D02*
X2456181D01*
X2282953D02*
Y1874173D01*
Y1848583D02*
X2308543Y1874173D01*
X1254056Y1622086D02*
X2041456D01*
X1254056Y2409488D02*
X2041456D01*
Y1622086D02*
Y2409488D01*
X1254056Y1622086D02*
Y2409488D01*
X2758386Y257164D02*
Y268976D01*
X2768228D01*
Y257164D02*
Y268976D01*
X2732794Y257164D02*
Y268976D01*
X2742638D01*
Y257164D02*
Y268976D01*
X2656024Y257164D02*
Y268976D01*
X2665866D01*
Y257164D02*
Y268976D01*
X2681614Y257164D02*
Y268976D01*
X2691456D01*
Y257164D02*
Y268976D01*
X2717046Y257164D02*
Y268976D01*
X2707204D02*
X2717046D01*
X2707204Y257164D02*
Y268976D01*
X2576298Y60314D02*
X2590078D01*
Y36692D02*
Y60314D01*
X2834172D02*
X2847952D01*
X2834172Y36692D02*
Y60314D01*
X2590078Y36692D02*
X2834172D01*
X2554646Y41614D02*
X2561536Y36692D01*
X2576298Y60314D01*
X2554646Y41614D02*
X2566456Y60314D01*
Y257164D01*
X2857794D01*
Y60314D02*
Y257164D01*
Y60314D02*
X2869606Y41614D01*
X2847952Y60314D02*
X2862716Y36692D01*
X2869606Y41614D01*
X434764Y3338976D02*
Y3457874D01*
X503662Y3338976D02*
Y3457874D01*
X434764D02*
X503662D01*
X434764Y3338976D02*
X503662D01*
X773660Y247028D02*
Y256870D01*
X437046Y247028D02*
Y256870D01*
X773660Y247028D02*
X828976D01*
X437046Y256870D02*
X773660D01*
X323070Y247028D02*
X437046D01*
X828976Y60020D02*
Y247028D01*
Y60020D02*
X838818Y42696D01*
X817164Y60020D02*
X828976Y36398D01*
X838818Y42696D01*
X788030Y60020D02*
X817164D01*
X788030Y36398D02*
Y60020D01*
X313228Y42696D02*
X323070Y36398D01*
X334882Y60020D01*
X313228Y42696D02*
X323070Y60020D01*
Y247028D01*
X334882Y60020D02*
X375826D01*
Y36398D02*
Y60020D01*
Y36398D02*
X788030D01*
X2915984Y842362D02*
Y1236064D01*
X2522284Y842362D02*
Y1236064D01*
X2915984D01*
X2522284Y842362D02*
X2915984D01*
X279184Y2876300D02*
Y3021968D01*
X542964Y2876300D02*
Y3021968D01*
X279184Y2876300D02*
X542964D01*
X279184Y3021968D02*
X542964D01*
D179*
X489173Y2108583D02*
X529331D01*
X489173Y2037717D02*
X529331D01*
X489173D02*
Y2108583D01*
X529331Y2037717D02*
Y2108583D01*
X494882Y1740984D02*
X535039D01*
X494882Y1670118D02*
X535039D01*
X494882D02*
Y1740984D01*
X535039Y1670118D02*
Y1740984D01*
%TF.MD5,ea866dd72aa0f0dd4c351a599e45f5ee*%
M02*
