M48
;Layer_Color=9474304
;FILE_FORMAT=4:3
METRIC,LZ
;TYPE=PLATED
T1F00S00C0.200
T2F00S00C0.300
T3F00S00C0.600
T4F00S00C0.900
T5F00S00C1.000
T6F00S00C1.016
T7F00S00C1.100
;TYPE=NON_PLATED
T8F00S00C0.700
%
T01
X000656Y0010638
X0009435Y0009536
X0009485Y0008081
X0012564Y0009465
X0016952Y0009478
X0016974Y0007743
X0018731Y0009456
X0018782Y0005088
X002309Y0015691
X0024298Y001846
X0022553Y0020061
X0022578Y0022419
X0019958Y0023675
X0019091
X0018199Y0022754
X0017003
X0016163
X0014658
X0013767Y0023117
X0013735Y002399
X0015097Y0025059
X001595Y002508
X0016546Y0025669
X0016388Y0026806
X0017714Y0026806
X0018727Y002561
X00201Y0026806
X0022263Y0026222
X0019983Y002945
X0017726
X0016388
X0014703Y0028694
X0013494Y0027758
X0013333Y0029559
X0012064Y0031756
X001115Y0027935
X0010081Y0024929
X0011017Y0023699
X0007417Y0023688
X0014489Y0025731
X0014485Y0026657
X0015426Y0020365
X0017135
X0021472Y0036013
X003786Y0013774
X0041015Y001338
X0042633Y0018121
X0040675Y0021355
X0048469Y0022207
X0048492Y0020068
X0051175Y0015539
X0051155Y0013875
X0055848Y0018771
X0056599Y002117
X0059867Y0021195
X0062406Y0021584
X0062403Y0020559
X0064569Y0020403
X0066634Y0022525
X0067509Y002253
X0069283Y0022545
X0070168Y0022527
X0071376Y0022505
X00726Y0022485
X0072586Y0025165
X0070932Y0024423
X006826Y0024828
X0067921Y002664
X0068326Y0028739
X0068313Y0029638
X006528Y002975
X0065272Y0028852
X0065307Y002662
X0065828Y0024402
X006351Y0030987
X0061014Y0032912
X0059889Y0032888
X005787Y0030614
X0055979Y0035412
X0054479
X0050319Y0039115
X0040585Y0039238
X0065793Y0033591
X0070908Y0030278
X0071883Y0030283
X0072503Y0028396
X0072507Y0027494
X0074278Y0019223
X0064612Y0012088
X0062761Y0012117
X0078207Y0038448
X0078899Y0039132
X0077245Y0039663
X0079665Y0040027
X0079692Y0041229
X0078365Y0040226
X0077242Y0040799
X007622Y0040274
X0074883Y0040764
X0074877Y0042113
X0061154Y0042906
X0059282Y0042922
X005929Y0045688
X0061134Y0045714
X0061927Y0051179
X0061935Y0052798
X0060619Y0054549
X0059514Y0056692
X0063932Y0056663
X0063622Y0051225
X005629Y0050927
X005506Y0050966
X0055338Y0050357
X0054174Y0050934
X0054115Y0051903
X0050807Y0051993
X0050762Y0050378
Y0048922
X0053929Y0046937
X005511Y0046424
X0050594Y0042831
X0049139Y0042844
X0049851Y0041997
X0047619Y0042693
X0046397Y0042676
X0044444Y0042271
X0043021Y004224
X0041562Y0042227
X003997Y004222
X0046751Y0052003
X0046808Y0055883
X0048131Y0056762
X00481Y0060271
X0044467Y006019
X004247Y0060247
X0041218Y0060221
X0044422Y0056571
X0050967Y0055893
X0050868Y005774
X0050891Y0059326
X0056408Y005344
X0058283Y0064196
X0059017Y0064199
X0057819Y0067884
X0057349Y0068793
X0058337
X005946
X0060432Y0068757
X0060447Y0067909
X0060102Y0072485
X0060101Y0073788
X0059408Y0073256
X0057371
X005781Y0073818
X007075Y0070712
X0070721Y0063533
X0039518Y0060222
X0038162Y0060235
X0035378Y0060561
X0033187Y0058383
X0033151Y0056967
X0032911Y0053965
Y0053405
X0032372Y0049898
X0032715Y0046932
Y0045406
X0036324Y0045347
X0036308Y0046982
X0037711Y0045801
X0037649Y004212
X0036029Y0042164
X0034591Y0042182
X001618Y004893
X0014569Y0053426
X001308Y0045895
X0036105Y0068793
X0036596Y0069675
X0034794Y0073171
X0034209Y0074093
X0035499Y0074077
X0006106Y0085718
X0041032Y0084555
X0041714
X0042839
X0044131
X0045393
X0046993
X0048185
X0049476
X0050647
X0051812
X005304
X0054211Y0083892
X0053902Y0086162
X0054955
X0055518Y0086666
X005612Y0086162
X0055799Y0087737
X0054637
X005341
X0052248
X0051005
X0049805
X0048662
X0047385
X0046206
X0045022
X0043814
X004259
X0042292Y0086162
X0043765
X0044709
X004569
X0046738
X004791
X0049162
X0050484
X0051583
X0052773
X005281Y0089502
X0051616
X005041
X0049203
X0048002
X0046826
X004561
X004442
X0043202
X0040825
X0039827
X0054008
X0055201
X0056401
X0056995
X0058797
X0059437
X0060039
X0060612
X006159
X0058226Y0087737
X0057582
X0058706Y0086286
X0059109Y0084555
X0056691
T02
X0015016Y0004936
X0015569Y0006858
X0015966Y0008818
X0015569Y0010778
Y0012778
X0017008Y0012618
X0018569Y0012816
Y0014816
X0017008Y0014618
X0015569Y0014778
X0015908Y0016496
X0017008Y0016618
X0018569Y0016816
Y0018816
X0017008Y0018618
X0014008Y0017783
Y0019783
X001199Y001957
X0014008Y0015783
Y0013783
Y0011783
X0013373Y0007814
X0012551Y0007516
X0018745Y0007794
X0018975Y0008454
X0020537Y0008974
Y0010974
Y0012974
Y0014974
Y0016974
Y0018974
X0024391Y0014905
Y0012205
Y0009318
Y0006906
X0020842Y0006998
X0020143Y0005124
X002855Y0010404
X003534Y0008787
X0008266Y0014607
X0006906Y0015221
X0006924Y0016933
X0009135Y0037027
X0009619Y003778
X0046679Y0033412
X0043197Y0008787
X005584Y0008787
X0067785Y0009001
Y0011001
Y0013001
X0069347Y0012351
Y0010351
Y0008351
X0073603Y0008539
X0073601Y0010281
X007287Y0003738
X007007
X006767
X006809Y0005121
X006487Y0003738
X006723Y0015558
X0069347Y0016351
Y0014351
Y0018351
X0069543Y001914
X0067058Y0019184
X0071368Y0017491
X0079421Y0074504
X0077776Y0074553
X0075426Y0073393
X0070594Y0073954
X0070604Y0077595
X0032435Y0059456
X0029986Y0058932
X0029973Y0059979
X0016155Y0066195
X001356Y0066198
X0006727Y0066066
X0004979
X0005017Y0067962
X0005111Y0076833
X0012754Y0076212
X0016113Y0047353
X0014952Y0083052
X0016545Y0084899
X0016443Y0088575
X0020138Y0088542
X0017622Y0092892
X0017674Y0094346
X0016179Y0094347
X0023361Y0094719
X0029615Y009472
X0039
X0010543Y0090812
X001048Y0089027
X0010994Y0082208
X0010975Y0080461
X0005151Y0080195
X0047447Y009472
X0056748Y0094749
X0066247Y0094635
X0070577Y009131
X0070604Y0086648
Y008188
X0077914Y0095304
X0079544Y0095286
X0080089Y0087006
X0079581Y0083157
T03
X0012229Y0071555
T04
X0050078Y0021202
X0052618
X0049201Y0025302
X0046661
Y0027842
X0049201
X0072245Y0045427
Y0047967
X0076081
X0078621
Y0045427
X0076081
X0021863Y0052961
Y0055501
Y0058041
X0019323
Y0055501
Y0052961
X0010583Y0051949
X0008043
X0005503
X0005529Y0054996
X0008069
X0010609
X0010599Y0057998
X0008059
X0005519
X0005545Y0061019
X0008085
X0010625
X0010677Y0048823
X0008137
X0005597
X0005649Y0045751
X0008189
X0010729
X0010755Y0042625
X0008215
X0005675
X0007646Y0092087
Y0094627
T05
X0043079Y0033381
X0044944
X0058202Y0037005
T06
X0079687Y0064781
Y0069303
X0073185
Y0064781
T07
X0080239Y0056563
Y0058755
X0080293Y0061086
X0071736Y0060943
X0071682Y0058755
Y0056563
T08
X0066813Y0006132
X0070963
M30
