%TF.GenerationSoftware,Altium Limited,Altium Designer,18.1.7 (191)*%
G04 Layer_Physical_Order=3*
G04 Layer_Color=128*
%FSLAX26Y26*%
%MOIN*%
%TF.FileFunction,Copper,L3,Inr,Plane*%
%TF.Part,Single*%
G01*
G75*
%TA.AperFunction,NonConductor*%
%ADD85C,0.040000*%
%TA.AperFunction,ComponentPad*%
G04:AMPARAMS|DCode=86|XSize=95.433mil|YSize=95.433mil|CornerRadius=0mil|HoleSize=0mil|Usage=FLASHONLY|Rotation=0.000|XOffset=0mil|YOffset=0mil|HoleType=Round|Shape=Relief|Width=10mil|Gap=10mil|Entries=4|*
%AMTHD86*
7,0,0,0.095433,0.075433,0.010000,45*
%
%ADD86THD86*%
%ADD87C,0.075433*%
%TA.AperFunction,ViaPad*%
%ADD89C,0.079370*%
%ADD90C,0.083310*%
%TA.AperFunction,ComponentPad*%
%ADD92C,0.080000*%
%ADD94C,0.067559*%
%TA.AperFunction,ViaPad*%
G04:AMPARAMS|DCode=95|XSize=67.874mil|YSize=67.874mil|CornerRadius=0mil|HoleSize=0mil|Usage=FLASHONLY|Rotation=0.000|XOffset=0mil|YOffset=0mil|HoleType=Round|Shape=Relief|Width=10mil|Gap=10mil|Entries=4|*
%AMTHD95*
7,0,0,0.067874,0.047874,0.010000,45*
%
%ADD95THD95*%
%ADD96C,0.051811*%
%ADD97C,0.047874*%
G04:AMPARAMS|DCode=98|XSize=71.811mil|YSize=71.811mil|CornerRadius=0mil|HoleSize=0mil|Usage=FLASHONLY|Rotation=0.000|XOffset=0mil|YOffset=0mil|HoleType=Round|Shape=Relief|Width=10mil|Gap=10mil|Entries=4|*
%AMTHD98*
7,0,0,0.071811,0.051811,0.010000,45*
%
%ADD98THD98*%
%ADD99C,0.063622*%
%TA.AperFunction,NonConductor*%
%ADD100C,0.019685*%
D85*
X78504Y71535D02*
Y3856063D01*
X3291811Y3856063D01*
X3291811Y71535D01*
X78504Y71535D02*
X3291811Y71535D01*
D86*
X218307Y2402323D02*
D03*
X217283Y2283386D02*
D03*
X301024Y3725472D02*
D03*
D87*
X760748Y2285079D02*
D03*
X860748D02*
D03*
X760748Y2185079D02*
D03*
X860748D02*
D03*
X760748Y2085079D02*
D03*
X860748D02*
D03*
X223425Y1678150D02*
D03*
X323425D02*
D03*
X423425D02*
D03*
X222401Y1801220D02*
D03*
X322401D02*
D03*
X422401D02*
D03*
X220354Y1922165D02*
D03*
X320354D02*
D03*
X420354D02*
D03*
X418307Y2402323D02*
D03*
X318307D02*
D03*
X317283Y2283386D02*
D03*
X417283D02*
D03*
X217677Y2165197D02*
D03*
X317677D02*
D03*
X417677D02*
D03*
X416654Y2045236D02*
D03*
X316654D02*
D03*
X216654D02*
D03*
X2995315Y1888465D02*
D03*
X3095315D02*
D03*
X2995315Y1788465D02*
D03*
X3095315D02*
D03*
X2844291D02*
D03*
Y1888465D02*
D03*
X1971574Y834725D02*
D03*
X2071574D02*
D03*
X1937047Y996142D02*
D03*
X1837047D02*
D03*
X1937047Y1096142D02*
D03*
X1837047D02*
D03*
X301024Y3625472D02*
D03*
D89*
X2291417Y1456890D02*
D03*
X1769449Y1314213D02*
D03*
X1696024D02*
D03*
D90*
X2822126Y2226890D02*
D03*
Y2313189D02*
D03*
X3159016Y2226890D02*
D03*
Y2313189D02*
D03*
X3161142Y2404961D02*
D03*
X2824252Y2399331D02*
D03*
D92*
X3137291Y2550449D02*
D03*
X2881291D02*
D03*
X3137291Y2728449D02*
D03*
X2881291D02*
D03*
D94*
X2793818Y241416D02*
D03*
X2630432D02*
D03*
D95*
X514961Y1806890D02*
D03*
X2406850Y1799764D02*
D03*
X1305138Y2242794D02*
D03*
X2386575Y2147598D02*
D03*
X2438058Y2014902D02*
D03*
X2278346Y1205264D02*
D03*
X2470905Y477047D02*
D03*
X577087Y895827D02*
D03*
X542008Y910118D02*
D03*
X291989Y932579D02*
D03*
X1909134Y790079D02*
D03*
X1601378Y840749D02*
D03*
X240394Y3374724D02*
D03*
X1991898Y1686268D02*
D03*
X785754Y932087D02*
D03*
X2785433Y2783937D02*
D03*
X1482244Y1658268D02*
D03*
X1693728Y1662974D02*
D03*
X1287992Y1787638D02*
D03*
X2857722Y990758D02*
D03*
X2924332Y756812D02*
D03*
X2144824Y1394154D02*
D03*
X637008Y1926378D02*
D03*
X2013977Y546259D02*
D03*
X1490551Y542283D02*
D03*
X645216Y1159449D02*
D03*
X786752D02*
D03*
X791339Y1055354D02*
D03*
X636339Y895827D02*
D03*
X570433Y1013032D02*
D03*
X2854434Y1117942D02*
D03*
X2689474Y1166862D02*
D03*
X2571124Y1048020D02*
D03*
X2570072Y1171268D02*
D03*
X2228307Y833461D02*
D03*
X2356968Y834444D02*
D03*
D96*
X1180039Y2361378D02*
D03*
X359646Y1457756D02*
D03*
X378701Y1487402D02*
D03*
X2668714Y511857D02*
D03*
Y433117D02*
D03*
Y354377D02*
D03*
X2680711Y201624D02*
D03*
X2730184Y328797D02*
D03*
Y407537D02*
D03*
Y486277D02*
D03*
Y565018D02*
D03*
Y643758D02*
D03*
Y722498D02*
D03*
X747060Y332818D02*
D03*
X793027Y201721D02*
D03*
X820542Y275498D02*
D03*
X808531Y353316D02*
D03*
Y432056D02*
D03*
Y510796D02*
D03*
Y589536D02*
D03*
Y668277D02*
D03*
Y747017D02*
D03*
X669599Y733011D02*
D03*
Y654271D02*
D03*
Y575531D02*
D03*
Y496791D02*
D03*
X731069Y504557D02*
D03*
Y583297D02*
D03*
Y662037D02*
D03*
Y740777D02*
D03*
X551489Y778841D02*
D03*
Y700100D02*
D03*
Y621360D02*
D03*
Y542620D02*
D03*
Y463880D02*
D03*
X494115Y295901D02*
D03*
X591169Y194331D02*
D03*
X612959Y269996D02*
D03*
X628594Y347168D02*
D03*
X612959Y424340D02*
D03*
Y503080D02*
D03*
Y581821D02*
D03*
X2198425Y345945D02*
D03*
X325414Y575084D02*
D03*
X533846Y2606220D02*
D03*
X1180551Y2320138D02*
D03*
X2646850Y612520D02*
D03*
X2758662Y147166D02*
D03*
X2553938D02*
D03*
X2664174D02*
D03*
X2868898D02*
D03*
X1124016Y409598D02*
D03*
X1276968Y2340787D02*
D03*
X960276Y271890D02*
D03*
Y366850D02*
D03*
Y480512D02*
D03*
Y586811D02*
D03*
X1837756Y1315433D02*
D03*
X2969547Y2889468D02*
D03*
X2779291Y2911575D02*
D03*
X2779705Y3054941D02*
D03*
X271890Y599252D02*
D03*
X264842Y2601024D02*
D03*
X196024D02*
D03*
X197520Y2675669D02*
D03*
X636024Y2606102D02*
D03*
X737992Y306832D02*
D03*
X3062056Y2935148D02*
D03*
X2809764Y688622D02*
D03*
X2897678Y404764D02*
D03*
X472028Y770492D02*
D03*
X792834Y3485906D02*
D03*
X647362Y3487204D02*
D03*
X3067480Y3752126D02*
D03*
X2897756Y336182D02*
D03*
X634370Y1864291D02*
D03*
X272598Y666654D02*
D03*
X626300Y649449D02*
D03*
X1700677Y345945D02*
D03*
X526496Y307638D02*
D03*
D97*
X573583Y2103386D02*
D03*
X396890Y981457D02*
D03*
X433721Y933042D02*
D03*
X438976Y1099803D02*
D03*
X1295708Y2124620D02*
D03*
X737441Y372283D02*
D03*
X668268Y304842D02*
D03*
X1440787Y2743110D02*
D03*
X1397598Y2916417D02*
D03*
X1346811Y2917047D02*
D03*
X3137480Y1623189D02*
D03*
X2947913Y1657992D02*
D03*
X3085236Y1583701D02*
D03*
X3041024Y1606260D02*
D03*
X2343071Y2231968D02*
D03*
X2517008Y2230827D02*
D03*
X2178661Y1982559D02*
D03*
X2167716Y2006535D02*
D03*
X2220787Y2103937D02*
D03*
X2216142Y2005000D02*
D03*
X2323504Y2527520D02*
D03*
X2379803Y2673583D02*
D03*
X2276339Y2672598D02*
D03*
X2379213Y2706969D02*
D03*
X2366220Y2853740D02*
D03*
X2366181Y2905039D02*
D03*
X2275984Y2906220D02*
D03*
X2338898Y2884095D02*
D03*
X2292362Y3454213D02*
D03*
X2267008D02*
D03*
X2340945Y2708386D02*
D03*
X2169679Y1827727D02*
D03*
X2134291Y3302835D02*
D03*
X2258701Y2884095D02*
D03*
X1897047Y3328937D02*
D03*
X1850118D02*
D03*
X2311260Y3397087D02*
D03*
X2296732Y2708386D02*
D03*
X1421457D02*
D03*
X1369842Y2880748D02*
D03*
X2294606Y2527402D02*
D03*
X2257835Y2708386D02*
D03*
X2231929Y3328937D02*
D03*
X2209449Y3392205D02*
D03*
X2185748Y3412047D02*
D03*
X2163583Y3392205D02*
D03*
X2407638Y1689213D02*
D03*
X1960827Y3454213D02*
D03*
X1987559Y3392205D02*
D03*
X1947874Y3328937D02*
D03*
X888903Y882639D02*
D03*
X2130512Y2043425D02*
D03*
X2132835Y2005276D02*
D03*
X2196811Y3454213D02*
D03*
X1686574Y3328937D02*
D03*
X1615433D02*
D03*
X2088189D02*
D03*
X2039856D02*
D03*
X1787126D02*
D03*
X1993976D02*
D03*
X2122126Y3392205D02*
D03*
X2077677D02*
D03*
X2030827D02*
D03*
X1935512D02*
D03*
X1886220D02*
D03*
X1840079D02*
D03*
X1798819D02*
D03*
X1665039D02*
D03*
X1737441Y3328937D02*
D03*
X1723032Y3392205D02*
D03*
X1642283Y3328937D02*
D03*
X1760197Y3392205D02*
D03*
X2151063Y3454213D02*
D03*
X2102756D02*
D03*
X2057008D02*
D03*
X2008071D02*
D03*
X1915827D02*
D03*
X1865551D02*
D03*
X1819134D02*
D03*
X1772520D02*
D03*
X1724961D02*
D03*
X1676771D02*
D03*
X2123189Y1847913D02*
D03*
X1392835Y2384291D02*
D03*
X1306574Y2298558D02*
D03*
X2333937Y1689842D02*
D03*
X2334252Y1798723D02*
D03*
X2126299Y3523701D02*
D03*
X2032126D02*
D03*
X1937126D02*
D03*
X1843543D02*
D03*
X1607283D02*
D03*
X1748818D02*
D03*
X2327125Y3328937D02*
D03*
X1567993Y3523701D02*
D03*
X1700867D02*
D03*
X1795670D02*
D03*
X1889843D02*
D03*
X1984646D02*
D03*
X2079134D02*
D03*
X2173268D02*
D03*
X2220512D02*
D03*
X2243898D02*
D03*
X2424804D02*
D03*
X2314842D02*
D03*
X2386300D02*
D03*
X2363740D02*
D03*
X2340040D02*
D03*
X2543780Y475906D02*
D03*
X607323Y801772D02*
D03*
X524921Y1163740D02*
D03*
X716496Y895827D02*
D03*
X751614Y932087D02*
D03*
X540749Y944488D02*
D03*
X627953Y987402D02*
D03*
X578858Y1129685D02*
D03*
X2623386Y886812D02*
D03*
X2657834Y887008D02*
D03*
X2727678Y887618D02*
D03*
X2792598Y961535D02*
D03*
X2687402Y977480D02*
D03*
X2591654Y960708D02*
D03*
X1908228Y874291D02*
D03*
X2014763Y611771D02*
D03*
X1678464Y713425D02*
D03*
X494666Y372638D02*
D03*
X956614Y726772D02*
D03*
X258268Y418819D02*
D03*
X371457Y375433D02*
D03*
X373425Y318150D02*
D03*
X2948150Y1604882D02*
D03*
X3041142Y1561535D02*
D03*
X3106260Y1540630D02*
D03*
X3136418Y1575846D02*
D03*
X3079016Y1513701D02*
D03*
X2198740Y739012D02*
D03*
X1274488Y1964488D02*
D03*
X1636299Y1662480D02*
D03*
X1826653Y1680158D02*
D03*
X1874764Y1680827D02*
D03*
X3000787Y1585591D02*
D03*
X1597835Y1544803D02*
D03*
X739467Y200295D02*
D03*
X876497Y1032361D02*
D03*
X669409Y895827D02*
D03*
X667402Y373150D02*
D03*
X2784272Y2501299D02*
D03*
X2762520Y886870D02*
D03*
X2402126Y1295748D02*
D03*
X737284Y1008268D02*
D03*
X474961Y1250236D02*
D03*
X531260Y1092835D02*
D03*
X594370Y986575D02*
D03*
X1484686Y1803200D02*
D03*
X1502456Y2371466D02*
D03*
X1555840Y2370954D02*
D03*
X1622756Y2370906D02*
D03*
X1672048Y2371930D02*
D03*
X1750670Y2369686D02*
D03*
X1748898Y2227206D02*
D03*
X1842836Y2200118D02*
D03*
X2006576Y2200512D02*
D03*
X2003582Y2335670D02*
D03*
X2002678Y2273228D02*
D03*
X1894922Y2234724D02*
D03*
X1893700Y2372874D02*
D03*
X2000276Y2046950D02*
D03*
X1998504Y1983386D02*
D03*
Y1926064D02*
D03*
X1418464Y1660000D02*
D03*
X1361850Y1660708D02*
D03*
X1573640Y1662222D02*
D03*
X1749748Y1664232D02*
D03*
X1287992Y1847716D02*
D03*
X1429448Y1849686D02*
D03*
X1430078Y1785316D02*
D03*
X2858268Y885236D02*
D03*
X2810068Y886006D02*
D03*
X1934606Y1686772D02*
D03*
X887894Y789822D02*
D03*
X651417Y1010591D02*
D03*
X845354Y1417854D02*
D03*
X1295708Y2102572D02*
D03*
X1962638Y1653426D02*
D03*
X1981063Y1539961D02*
D03*
X1614763Y526771D02*
D03*
X2203878Y1394154D02*
D03*
X674626Y801772D02*
D03*
X570276Y1049488D02*
D03*
X645216Y1055374D02*
D03*
X697402Y1055354D02*
D03*
X697874Y1159449D02*
D03*
X909055Y617756D02*
D03*
X1840590Y2047362D02*
D03*
X2542087Y803268D02*
D03*
X2456818Y809410D02*
D03*
X2791654Y1192048D02*
D03*
X2830040Y1192244D02*
D03*
X2854612Y1082422D02*
D03*
X2690018Y1131450D02*
D03*
X2569776Y1135892D02*
D03*
X2504803Y2016732D02*
D03*
X2456930Y849764D02*
D03*
X2590276Y1322496D02*
D03*
X2500384Y1219960D02*
D03*
X2357834Y1294804D02*
D03*
X2438386Y2078661D02*
D03*
X2674056Y1048818D02*
D03*
D98*
X2640079Y755275D02*
D03*
X2737913Y753543D02*
D03*
X3153110Y3425433D02*
D03*
X919724Y3729095D02*
D03*
X2608150Y3725787D02*
D03*
X2234173Y3730276D02*
D03*
X1867992Y3729134D02*
D03*
X1535433D02*
D03*
X1165945D02*
D03*
X2779705Y3223602D02*
D03*
Y3411358D02*
D03*
X2778642Y3594862D02*
D03*
X201220Y3024921D02*
D03*
X202795Y3157284D02*
D03*
X693780Y3657165D02*
D03*
X636969Y3714448D02*
D03*
X695827Y3714409D02*
D03*
X502126Y3000472D02*
D03*
X432086Y3167756D02*
D03*
X432834Y3236536D02*
D03*
X412598Y3505000D02*
D03*
X3131654Y3751418D02*
D03*
X588662Y3269764D02*
D03*
X651378Y3342480D02*
D03*
X415078Y3575276D02*
D03*
X3126810Y2933228D02*
D03*
X3133130Y3273878D02*
D03*
X1391319Y345945D02*
D03*
D99*
X481457Y2817126D02*
D03*
D100*
X2803661Y3099921D02*
X3285118D01*
X2731417Y3172165D02*
X2803661Y3099921D01*
X2731417Y3172165D02*
Y3535591D01*
X2648976Y3618032D02*
X2731417Y3535591D01*
X773386Y3618031D02*
X2648976Y3618032D01*
X687244Y3531890D02*
X773386Y3618031D01*
X687244Y3132165D02*
Y3531890D01*
X479764Y2924685D02*
X687244Y3132165D01*
X78819Y2924685D02*
X479764D01*
%TF.MD5,e877ce791b10bb918005ba7aed758c9a*%
M02*
