%TF.GenerationSoftware,Altium Limited,Altium Designer,18.1.7 (191)*%
G04 Layer_Color=16711935*
%FSLAX26Y26*%
%MOIN*%
%TF.FileFunction,Soldermask,Bot*%
%TF.Part,Single*%
G01*
G75*
%TA.AperFunction,SMDPad,CuDef*%
%ADD111R,0.048157X0.048945*%
%ADD112R,0.041465X0.043433*%
%ADD113R,0.051307X0.045402*%
%ADD114R,0.034772X0.034772*%
%ADD115R,0.019811X0.034378*%
%ADD116R,0.019811X0.027685*%
%ADD117R,0.021779X0.047370*%
%ADD118R,0.034772X0.034772*%
%ADD119R,0.035559X0.037528*%
%ADD120C,0.078740*%
%ADD121R,0.030835X0.030047*%
%ADD122R,0.030047X0.030835*%
%ADD123R,0.049339X0.041465*%
%ADD124R,0.045402X0.051307*%
%TA.AperFunction,ComponentPad*%
%ADD125R,0.067055X0.067055*%
%ADD126C,0.067055*%
%ADD127R,0.067055X0.067055*%
%TA.AperFunction,ViaPad*%
%ADD128C,0.055212*%
%ADD129C,0.070960*%
%TA.AperFunction,ComponentPad*%
%ADD130C,0.082000*%
%ADD131C,0.035559*%
D111*
X509252Y2044213D02*
D03*
Y2102087D02*
D03*
X514961Y1676614D02*
D03*
Y1734488D02*
D03*
D112*
X390276Y935354D02*
D03*
X329252D02*
D03*
X1871181Y1769961D02*
D03*
X1810158D02*
D03*
X1750158Y1770039D02*
D03*
X1689134D02*
D03*
D113*
X1931890Y1728780D02*
D03*
X1987008D02*
D03*
X1947914Y2049094D02*
D03*
X1892796D02*
D03*
X1952402Y2199330D02*
D03*
X1897284D02*
D03*
X1675590Y2331850D02*
D03*
X1620472D02*
D03*
X1552796Y2331574D02*
D03*
X1497678D02*
D03*
X1386030Y1850056D02*
D03*
X1330912D02*
D03*
X1384828Y1786632D02*
D03*
X1329710D02*
D03*
X1416300Y1704724D02*
D03*
X1361182D02*
D03*
X1573150Y1704056D02*
D03*
X1628268D02*
D03*
X1750866D02*
D03*
X1695748D02*
D03*
D114*
X2406142Y1722480D02*
D03*
Y1759488D02*
D03*
X2333268Y1725787D02*
D03*
Y1762795D02*
D03*
X644468Y1092500D02*
D03*
Y1129508D02*
D03*
X634882Y925472D02*
D03*
Y962480D02*
D03*
X585354D02*
D03*
Y925472D02*
D03*
X533957Y1001870D02*
D03*
Y1038878D02*
D03*
X2858268Y917087D02*
D03*
Y954095D02*
D03*
X2824488Y1118032D02*
D03*
Y1081024D02*
D03*
X2724803Y1132165D02*
D03*
Y1169173D02*
D03*
X499764Y907441D02*
D03*
Y944449D02*
D03*
X2492717Y811870D02*
D03*
Y848878D02*
D03*
X2603661Y1136142D02*
D03*
Y1173150D02*
D03*
X600197Y1128937D02*
D03*
Y1091929D02*
D03*
X495591Y1228386D02*
D03*
Y1191378D02*
D03*
X759842Y1008779D02*
D03*
Y971772D02*
D03*
D115*
X1606692Y3484370D02*
D03*
X1630314D02*
D03*
X1653936D02*
D03*
X1677558D02*
D03*
X1701180D02*
D03*
X1724802D02*
D03*
X1748424D02*
D03*
X1772046D02*
D03*
X1795668D02*
D03*
X1819291D02*
D03*
X1842913D02*
D03*
X1866535D02*
D03*
X1890157D02*
D03*
X1913779D02*
D03*
X1937401D02*
D03*
X1961023D02*
D03*
X1984645D02*
D03*
X2008267D02*
D03*
X2031889D02*
D03*
X2055511D02*
D03*
X2079133D02*
D03*
X2102755D02*
D03*
X2126377D02*
D03*
X2149999D02*
D03*
X2173621D02*
D03*
X2197243D02*
D03*
X2220865D02*
D03*
X2244487D02*
D03*
X2268109D02*
D03*
X2291731D02*
D03*
X2315354D02*
D03*
X2338976D02*
D03*
X2362598D02*
D03*
X2386220D02*
D03*
D116*
X1618503Y3363701D02*
D03*
X1642125D02*
D03*
X1665747D02*
D03*
X1689369D02*
D03*
X1712991D02*
D03*
X1736613D02*
D03*
X1760235D02*
D03*
X1783858D02*
D03*
X1807479D02*
D03*
X1831102D02*
D03*
X1854724D02*
D03*
X1878346D02*
D03*
X1901968D02*
D03*
X1925590D02*
D03*
X1949212D02*
D03*
X1972834D02*
D03*
X1996456D02*
D03*
X2020078D02*
D03*
X2043700D02*
D03*
X2067322D02*
D03*
X2090944D02*
D03*
X2114566D02*
D03*
X2138188D02*
D03*
X2161810D02*
D03*
X2185432D02*
D03*
X2209054D02*
D03*
X2232676D02*
D03*
X2256298D02*
D03*
X2279921D02*
D03*
X2303543D02*
D03*
X2327165D02*
D03*
X2350787D02*
D03*
X2374409D02*
D03*
D117*
X1568306Y3477874D02*
D03*
X2424606D02*
D03*
D118*
X765394Y1064803D02*
D03*
X728386D02*
D03*
X759449Y896142D02*
D03*
X796457D02*
D03*
X2725669Y919213D02*
D03*
X2762677D02*
D03*
X2602205Y1049213D02*
D03*
X2639213D02*
D03*
X2659055Y919311D02*
D03*
X2622047D02*
D03*
X2787953Y1160039D02*
D03*
X2824961D02*
D03*
X716890Y966614D02*
D03*
X679882D02*
D03*
X722047Y1130551D02*
D03*
X759055D02*
D03*
D119*
X503425Y1286024D02*
D03*
X446339D02*
D03*
X2785433Y820354D02*
D03*
X2728347D02*
D03*
X2671063Y820158D02*
D03*
X2613976D02*
D03*
D120*
X200984Y3760354D02*
D03*
X3177638Y158937D02*
D03*
X197480Y162322D02*
D03*
D121*
X558111Y1091220D02*
D03*
Y1129016D02*
D03*
X889448Y855040D02*
D03*
Y817244D02*
D03*
X454292Y1228858D02*
D03*
Y1191062D02*
D03*
X801378Y1009016D02*
D03*
Y971220D02*
D03*
D122*
X679804Y924960D02*
D03*
X717598D02*
D03*
X679842Y1009212D02*
D03*
X717638D02*
D03*
X2621574Y961142D02*
D03*
X2659370D02*
D03*
X2724922Y960964D02*
D03*
X2762716D02*
D03*
D123*
X2063937Y2269646D02*
D03*
Y2336574D02*
D03*
D124*
X1959252Y2330670D02*
D03*
Y2275552D02*
D03*
X1952992Y1980434D02*
D03*
Y1925316D02*
D03*
X1752204Y2327796D02*
D03*
Y2272678D02*
D03*
X1895000Y2330040D02*
D03*
Y2274922D02*
D03*
X1350119Y2288583D02*
D03*
Y2233465D02*
D03*
X1482244Y1758818D02*
D03*
Y1703700D02*
D03*
D125*
X760748Y2285079D02*
D03*
X3095315Y1788465D02*
D03*
X2844291D02*
D03*
X1837047Y1096142D02*
D03*
X301024Y3625472D02*
D03*
D126*
X860748Y2285079D02*
D03*
X760748Y2185079D02*
D03*
X860748D02*
D03*
X760748Y2085079D02*
D03*
X860748D02*
D03*
X223425Y1678150D02*
D03*
X323425D02*
D03*
X222401Y1801220D02*
D03*
X322401D02*
D03*
X220354Y1922165D02*
D03*
X320354D02*
D03*
X318307Y2402323D02*
D03*
X218307D02*
D03*
X217283Y2283386D02*
D03*
X317283D02*
D03*
X217677Y2165197D02*
D03*
X317677D02*
D03*
X316654Y2045236D02*
D03*
X216654D02*
D03*
X2995315Y1888465D02*
D03*
X3095315D02*
D03*
X2995315Y1788465D02*
D03*
X2844291Y1888465D02*
D03*
X1971574Y834725D02*
D03*
X1937047Y996142D02*
D03*
X1837047D02*
D03*
X1937047Y1096142D02*
D03*
X301024Y3725472D02*
D03*
D127*
X423425Y1678150D02*
D03*
X422401Y1801220D02*
D03*
X420354Y1922165D02*
D03*
X418307Y2402323D02*
D03*
X417283Y2283386D02*
D03*
X417677Y2165197D02*
D03*
X416654Y2045236D02*
D03*
X2071574Y834725D02*
D03*
D128*
X2291417Y1456890D02*
D03*
X1769449Y1314213D02*
D03*
X1696024D02*
D03*
D129*
X2822126Y2226890D02*
D03*
Y2313189D02*
D03*
X3159016Y2226890D02*
D03*
Y2313189D02*
D03*
X3161142Y2404961D02*
D03*
X2824252Y2399331D02*
D03*
D130*
X3137291Y2550449D02*
D03*
X2881291D02*
D03*
X3137291Y2728449D02*
D03*
X2881291D02*
D03*
D131*
X2793818Y241416D02*
D03*
X2630432D02*
D03*
%TF.MD5,5ff792f72f3d57b0c37ff792aa084fb6*%
M02*
