%TF.GenerationSoftware,Altium Limited,Altium Designer,18.1.7 (191)*%
G04 Layer_Color=8388736*
%FSLAX26Y26*%
%MOIN*%
%TF.FileFunction,Other,Top_Assembly*%
%TF.Part,Single*%
G01*
G75*
%TA.AperFunction,NonConductor*%
%ADD108C,0.003937*%
%ADD177C,0.002000*%
%ADD178C,0.003000*%
D108*
X2158937Y1125374D02*
G03*
X2158937Y1125374I-19685J0D01*
G01*
X536949Y1171693D02*
G03*
X536949Y1171693I-19685J0D01*
G01*
X1704606Y709606D02*
G03*
X1704606Y709606I-19685J0D01*
G01*
X518543Y1883031D02*
X585473D01*
X518543Y1847599D02*
X585473D01*
X518543D02*
Y1883031D01*
X585473Y1847599D02*
Y1883031D01*
X518307Y1944725D02*
X585235D01*
X518307Y1909291D02*
X585235D01*
X518307D02*
Y1944725D01*
X585235Y1909291D02*
Y1944725D01*
X2409567Y363661D02*
X2476496D01*
X2409567Y328228D02*
X2476496D01*
X2409567D02*
Y363661D01*
X2476496Y328228D02*
Y363661D01*
X2252716Y363661D02*
X2319646D01*
X2252716Y328228D02*
X2319646D01*
X2252716D02*
Y363661D01*
X2319646Y328228D02*
Y363661D01*
X2332756Y2748268D02*
X2368189D01*
X2332756Y2815197D02*
X2368189D01*
X2332756Y2748268D02*
Y2815197D01*
X2368189Y2748268D02*
Y2815197D01*
X2279488Y2569528D02*
X2314921D01*
X2279488Y2636457D02*
X2314921D01*
X2279488Y2569528D02*
Y2636457D01*
X2314921Y2569528D02*
Y2636457D01*
X2246929Y2745827D02*
X2282362D01*
X2246929Y2812756D02*
X2282362D01*
X2246929Y2745827D02*
Y2812756D01*
X2282362Y2745827D02*
Y2812756D01*
X1376457Y2569528D02*
X1411890D01*
X1376457Y2636457D02*
X1411890D01*
X1376457Y2569528D02*
Y2636457D01*
X1411890Y2569528D02*
Y2636457D01*
X1350866Y2745512D02*
X1386299D01*
X1350866Y2812441D02*
X1386299D01*
X1350866Y2745512D02*
Y2812441D01*
X1386299Y2745512D02*
Y2812441D01*
X2260158Y1047982D02*
X2295590D01*
X2260158Y981054D02*
X2295590D01*
Y1047982D01*
X2260158Y981054D02*
Y1047982D01*
X2103819Y1089941D02*
X2221929D01*
X2103819Y1208051D02*
X2221929D01*
X2103819Y1089941D02*
Y1208051D01*
X2221929Y1089941D02*
Y1208051D01*
X2239764Y1549252D02*
X2306693D01*
X2239764Y1584685D02*
X2306693D01*
Y1549252D02*
Y1584685D01*
X2239764Y1549252D02*
Y1584685D01*
X2254252Y2569528D02*
Y2636457D01*
X2218819Y2569528D02*
Y2636457D01*
X2254252D01*
X2218819Y2569528D02*
X2254252D01*
X2375669D02*
Y2636457D01*
X2340236Y2569528D02*
Y2636457D01*
X2375669D01*
X2340236Y2569528D02*
X2375669D01*
X1474606D02*
Y2636457D01*
X1439173Y2569528D02*
Y2636457D01*
X1474606D01*
X1439173Y2569528D02*
X1474606D01*
X1348268D02*
Y2636457D01*
X1312835Y2569528D02*
Y2636457D01*
X1348268D01*
X1312835Y2569528D02*
X1348268D01*
X1284606D02*
Y2636457D01*
X1249173Y2569528D02*
Y2636457D01*
X1284606D01*
X1249173Y2569528D02*
X1284606D01*
X2390197Y1208937D02*
Y1254213D01*
X2415787Y1208937D02*
Y1254213D01*
X2390197Y1208937D02*
X2415787D01*
X2390197Y1254213D02*
X2415787D01*
X666732Y412677D02*
X692323D01*
X666732Y457953D02*
X692323D01*
X666732Y412677D02*
Y457953D01*
X692323Y412677D02*
Y457953D01*
X735236Y412677D02*
Y457953D01*
X709646Y412677D02*
Y457953D01*
X735236D01*
X709646Y412677D02*
X735236D01*
X2769488Y732677D02*
X2814764D01*
X2769488Y707087D02*
X2814764D01*
X2769488D02*
Y732677D01*
X2814764Y707087D02*
Y732677D01*
X3050433Y3553268D02*
Y3608386D01*
X3170512Y3553268D02*
Y3608386D01*
X3050433Y3553268D02*
X3170512D01*
X3050433Y3608386D02*
X3170512D01*
X3033346Y3077481D02*
X3153425D01*
X3033346Y3132599D02*
X3153425D01*
X3033346Y3077481D02*
Y3132599D01*
X3153425Y3077481D02*
Y3132599D01*
X2347756Y1210315D02*
Y1251654D01*
X2369409Y1210315D02*
Y1251654D01*
X2347756Y1210315D02*
X2369409D01*
X2347756Y1251654D02*
X2369409D01*
X374764Y554685D02*
X443661D01*
X374764Y592087D02*
X443661D01*
Y554685D02*
Y592087D01*
X374764Y554685D02*
Y592087D01*
X292815Y712382D02*
Y781280D01*
X255413Y712382D02*
Y781280D01*
X292815D01*
X255413Y712382D02*
X292815D01*
X481830Y848858D02*
X840098D01*
X481830Y1207126D02*
X840098D01*
Y848858D02*
Y1207126D01*
X481830Y848858D02*
Y1207126D01*
X1649487Y528503D02*
X1866023D01*
X1649487Y745039D02*
X1866023D01*
Y528503D02*
Y745039D01*
X1649487Y528503D02*
Y745039D01*
X2943780Y3443386D02*
Y3478819D01*
X3010709Y3443386D02*
Y3478819D01*
X2943780D02*
X3010709D01*
X2943780Y3443386D02*
X3010709D01*
X2943819Y3205905D02*
Y3241338D01*
X3010748Y3205905D02*
Y3241338D01*
X2943819D02*
X3010748D01*
X2943819Y3205905D02*
X3010748D01*
X226102Y3299803D02*
X261535D01*
X226102Y3232874D02*
X261535D01*
Y3299803D01*
X226102Y3232874D02*
Y3299803D01*
X289016Y3487008D02*
Y3522441D01*
X222087Y3487008D02*
Y3522441D01*
Y3487008D02*
X289016D01*
X222087Y3522441D02*
X289016D01*
X1104606Y526338D02*
X1140039D01*
X1104606Y459409D02*
X1140039D01*
Y526338D01*
X1104606Y459409D02*
Y526338D01*
X1103622Y597559D02*
Y664488D01*
X1139055Y597559D02*
Y664488D01*
X1103622Y597559D02*
X1139055D01*
X1103622Y664488D02*
X1139055D01*
X942559Y168386D02*
X977992D01*
X942559Y235315D02*
X977992D01*
X942559Y168386D02*
Y235315D01*
X977992Y168386D02*
Y235315D01*
X241299Y314764D02*
X276732D01*
X241299Y381693D02*
X276732D01*
X241299Y314764D02*
Y381693D01*
X276732Y314764D02*
Y381693D01*
X1821732Y1450787D02*
X1857165D01*
X1821732Y1383858D02*
X1857165D01*
Y1450787D01*
X1821732Y1383858D02*
Y1450787D01*
X2803583Y2673465D02*
Y2740394D01*
X2768150Y2673465D02*
Y2740394D01*
X2803583D01*
X2768150Y2673465D02*
X2803583D01*
X2803504Y2545512D02*
Y2612441D01*
X2768071Y2545512D02*
Y2612441D01*
X2803504D01*
X2768071Y2545512D02*
X2803504D01*
X3030197Y2210906D02*
Y2246339D01*
X3097126Y2210906D02*
Y2246339D01*
X3030197D02*
X3097126D01*
X3030197Y2210906D02*
X3097126D01*
X3030197Y2293307D02*
Y2328740D01*
X3097126Y2293307D02*
Y2328740D01*
X3030197D02*
X3097126D01*
X3030197Y2293307D02*
X3097126D01*
X3032323Y2384764D02*
Y2420197D01*
X3099252Y2384764D02*
Y2420197D01*
X3032323D02*
X3099252D01*
X3032323Y2384764D02*
X3099252D01*
X2888386Y2211496D02*
X2955315D01*
X2888386Y2246929D02*
X2955315D01*
Y2211496D02*
Y2246929D01*
X2888386Y2211496D02*
Y2246929D01*
Y2293307D02*
X2955315D01*
X2888386Y2328740D02*
X2955315D01*
Y2293307D02*
Y2328740D01*
X2888386Y2293307D02*
Y2328740D01*
X2890512Y2385827D02*
X2957441D01*
X2890512Y2421260D02*
X2957441D01*
Y2385827D02*
Y2421260D01*
X2890512Y2385827D02*
Y2421260D01*
X835511Y1345552D02*
X857165D01*
X835511Y1386890D02*
X857165D01*
X835511Y1345552D02*
Y1386890D01*
X857165Y1345552D02*
Y1386890D01*
X2566456Y87874D02*
X2857794D01*
X2311142Y721929D02*
Y757363D01*
X2244213Y721929D02*
Y757363D01*
Y721929D02*
X2311142D01*
X2244213Y757363D02*
X2311142D01*
X3088425Y3442716D02*
Y3480118D01*
X3157323Y3442716D02*
Y3480118D01*
X3088425D02*
X3157323D01*
X3088425Y3442716D02*
X3157323D01*
X3065472Y3681300D02*
X3134370D01*
X3065472Y3718700D02*
X3134370D01*
Y3681300D02*
Y3718700D01*
X3065472Y3681300D02*
Y3718700D01*
X570314Y3424528D02*
X605748D01*
X570314Y3491456D02*
X605748D01*
X570314Y3424528D02*
Y3491456D01*
X605748Y3424528D02*
Y3491456D01*
X570944Y3304054D02*
X606378D01*
X570944Y3370984D02*
X606378D01*
X570944Y3304054D02*
Y3370984D01*
X606378Y3304054D02*
Y3370984D01*
X1955039Y543307D02*
Y610237D01*
X1990473Y543307D02*
Y610237D01*
X1955039Y543307D02*
X1990473D01*
X1955039Y610237D02*
X1990473D01*
X2296062Y1108426D02*
Y1175354D01*
X2260630Y1108426D02*
Y1175354D01*
X2296062D01*
X2260630Y1108426D02*
X2296062D01*
X632322Y3360906D02*
X669724D01*
X632322Y3429804D02*
X669724D01*
X632322Y3360906D02*
Y3429804D01*
X669724Y3360906D02*
Y3429804D01*
X2793740Y384134D02*
Y419568D01*
X2860670Y384134D02*
Y419568D01*
X2793740D02*
X2860670D01*
X2793740Y384134D02*
X2860670D01*
X2793740Y321102D02*
X2860670D01*
X2793740Y356536D02*
X2860670D01*
Y321102D02*
Y356536D01*
X2793740Y321102D02*
Y356536D01*
X2371850Y2010964D02*
Y2077894D01*
X2407284Y2010964D02*
Y2077894D01*
X2371850Y2010964D02*
X2407284D01*
X2371850Y2077894D02*
X2407284D01*
X2142500Y1356870D02*
X2209430D01*
X2142500Y1321438D02*
X2209430D01*
X2142500D02*
Y1356870D01*
X2209430Y1321438D02*
Y1356870D01*
X2476300Y555905D02*
X2543228D01*
X2476300Y520473D02*
X2543228D01*
X2476300D02*
Y555905D01*
X2543228Y520473D02*
Y555905D01*
X2340000Y942952D02*
X2375434D01*
X2340000Y876024D02*
X2375434D01*
Y942952D01*
X2340000Y876024D02*
Y942952D01*
X2260655Y901535D02*
X2296087D01*
X2260655Y834607D02*
X2296087D01*
Y901535D01*
X2260655Y834607D02*
Y901535D01*
X2665826Y646299D02*
Y713229D01*
X2630394Y646299D02*
Y713229D01*
X2665826D01*
X2630394Y646299D02*
X2665826D01*
X640632Y362126D02*
Y384174D01*
X599686Y362126D02*
Y384174D01*
Y362126D02*
X640632D01*
X599686Y384174D02*
X640632D01*
X524056Y361456D02*
Y383504D01*
X565001Y361456D02*
Y383504D01*
X524056D02*
X565001D01*
X524056Y361456D02*
X565001D01*
X3128070Y2964920D02*
Y3002322D01*
X3059172Y2964920D02*
Y3002322D01*
Y2964920D02*
X3128070D01*
X3059172Y3002322D02*
X3128070D01*
X3072008Y3202816D02*
Y3240216D01*
X3140906Y3202816D02*
Y3240216D01*
X3072008D02*
X3140906D01*
X3072008Y3202816D02*
X3140906D01*
X1848306Y867363D02*
X1883740D01*
X1848306Y800433D02*
X1883740D01*
Y867363D01*
X1848306Y800433D02*
Y867363D01*
X1993347Y663701D02*
Y730631D01*
X1957913Y663701D02*
Y730631D01*
X1993347D01*
X1957913Y663701D02*
X1993347D01*
X1515039Y543307D02*
Y610237D01*
X1550473Y543307D02*
Y610237D01*
X1515039Y543307D02*
X1550473D01*
X1515039Y610237D02*
X1550473D01*
X1599173Y811339D02*
X1666103D01*
X1599173Y775905D02*
X1666103D01*
X1599173D02*
Y811339D01*
X1666103Y775905D02*
Y811339D01*
X323070Y87972D02*
X828976D01*
X1447323Y328229D02*
Y363661D01*
X1514251Y328229D02*
Y363661D01*
X1447323D02*
X1514251D01*
X1447323Y328229D02*
X1514251D01*
X1582323Y328229D02*
X1649251D01*
X1582323Y363661D02*
X1649251D01*
Y328229D02*
Y363661D01*
X1582323Y328229D02*
Y363661D01*
X911733Y708660D02*
Y744095D01*
X844803Y708660D02*
Y744095D01*
Y708660D02*
X911733D01*
X844803Y744095D02*
X911733D01*
X645354Y686103D02*
Y754999D01*
X607954Y686103D02*
Y754999D01*
X645354D01*
X607954Y686103D02*
X645354D01*
X2860710Y730039D02*
X2927638D01*
X2860710Y694606D02*
X2927638D01*
X2860710D02*
Y730039D01*
X2927638Y694606D02*
Y730039D01*
X404962Y314409D02*
Y381339D01*
X440394Y314409D02*
Y381339D01*
X404962Y314409D02*
X440394D01*
X404962Y381339D02*
X440394D01*
X463504Y3489566D02*
Y3525000D01*
X530434Y3489566D02*
Y3525000D01*
X463504D02*
X530434D01*
X463504Y3489566D02*
X530434D01*
X460078Y3553582D02*
Y3590984D01*
X530944Y3553582D02*
Y3590984D01*
X460078D02*
X530944D01*
X460078Y3553582D02*
X530944D01*
X317610Y3185354D02*
X384540D01*
X317610Y3149922D02*
X384540D01*
X317610D02*
Y3185354D01*
X384540Y3149922D02*
Y3185354D01*
X386508Y3218938D02*
Y3256338D01*
X315642Y3218938D02*
Y3256338D01*
Y3218938D02*
X386508D01*
X315642Y3256338D02*
X386508D01*
X533294Y2647456D02*
Y2684858D01*
X462428Y2647456D02*
Y2684858D01*
Y2647456D02*
X533294D01*
X462428Y2684858D02*
X533294D01*
X463964Y2758874D02*
X530894D01*
X463964Y2723440D02*
X530894D01*
X463964D02*
Y2758874D01*
X530894Y2723440D02*
Y2758874D01*
X366850Y3376378D02*
Y3443306D01*
X331418Y3376378D02*
Y3443306D01*
X366850D01*
X331418Y3376378D02*
X366850D01*
X265472Y3372008D02*
X302874D01*
X265472Y3442874D02*
X302874D01*
X265472Y3372008D02*
Y3442874D01*
X302874Y3372008D02*
Y3442874D01*
X844920Y646732D02*
Y682164D01*
X911850Y646732D02*
Y682164D01*
X844920D02*
X911850D01*
X844920Y646732D02*
X911850D01*
D177*
X2664882Y84776D02*
X2685125D01*
X2691873Y87025D01*
X2694122Y89274D01*
X2696371Y93773D01*
Y100520D01*
X2694122Y105019D01*
X2691873Y107268D01*
X2685125Y109517D01*
X2664882D01*
Y62283D01*
X2740681Y98271D02*
X2738432Y102770D01*
X2733933Y107268D01*
X2729435Y109517D01*
X2720438D01*
X2715939Y107268D01*
X2711441Y102770D01*
X2709192Y98271D01*
X2706943Y91523D01*
Y80277D01*
X2709192Y73530D01*
X2711441Y69031D01*
X2715939Y64533D01*
X2720438Y62283D01*
X2729435D01*
X2733933Y64533D01*
X2738432Y69031D01*
X2740681Y73530D01*
X2753952Y109517D02*
Y62283D01*
Y109517D02*
X2774195D01*
X2780943Y107268D01*
X2783192Y105019D01*
X2785441Y100520D01*
Y96022D01*
X2783192Y91523D01*
X2780943Y89274D01*
X2774195Y87025D01*
X2753952D02*
X2774195D01*
X2780943Y84776D01*
X2783192Y82526D01*
X2785441Y78028D01*
Y71280D01*
X2783192Y66782D01*
X2780943Y64533D01*
X2774195Y62283D01*
X2753952D01*
X2862365Y109517D02*
X2833125D01*
Y62283D01*
X2862365D01*
X2833125Y87025D02*
X2851119D01*
X2897228Y109517D02*
Y62283D01*
Y87025D02*
X2892730Y91523D01*
X2888231Y93773D01*
X2881483D01*
X2876985Y91523D01*
X2872486Y87025D01*
X2870237Y80277D01*
Y75779D01*
X2872486Y69031D01*
X2876985Y64533D01*
X2881483Y62283D01*
X2888231D01*
X2892730Y64533D01*
X2897228Y69031D01*
X2936815Y93773D02*
Y57785D01*
X2934565Y51037D01*
X2932316Y48788D01*
X2927818Y46539D01*
X2921070D01*
X2916572Y48788D01*
X2936815Y87025D02*
X2932316Y91523D01*
X2927818Y93773D01*
X2921070D01*
X2916572Y91523D01*
X2912073Y87025D01*
X2909824Y80277D01*
Y75779D01*
X2912073Y69031D01*
X2916572Y64533D01*
X2921070Y62283D01*
X2927818D01*
X2932316Y64533D01*
X2936815Y69031D01*
X2949410Y80277D02*
X2976401D01*
Y84776D01*
X2974152Y89274D01*
X2971903Y91523D01*
X2967404Y93773D01*
X2960657D01*
X2956158Y91523D01*
X2951660Y87025D01*
X2949410Y80277D01*
Y75779D01*
X2951660Y69031D01*
X2956158Y64533D01*
X2960657Y62283D01*
X2967404D01*
X2971903Y64533D01*
X2976401Y69031D01*
D178*
X513819Y74835D02*
X534062D01*
X540809Y77084D01*
X543059Y79333D01*
X545308Y83832D01*
Y90579D01*
X543059Y95078D01*
X540809Y97327D01*
X534062Y99576D01*
X513819D01*
Y52343D01*
X589618Y88330D02*
X587369Y92829D01*
X582870Y97327D01*
X578372Y99576D01*
X569375D01*
X564876Y97327D01*
X560378Y92829D01*
X558129Y88330D01*
X555879Y81583D01*
Y70336D01*
X558129Y63589D01*
X560378Y59090D01*
X564876Y54592D01*
X569375Y52343D01*
X578372D01*
X582870Y54592D01*
X587369Y59090D01*
X589618Y63589D01*
X602889Y99576D02*
Y52343D01*
Y99576D02*
X623132D01*
X629879Y97327D01*
X632129Y95078D01*
X634378Y90579D01*
Y86081D01*
X632129Y81583D01*
X629879Y79333D01*
X623132Y77084D01*
X602889D02*
X623132D01*
X629879Y74835D01*
X632129Y72586D01*
X634378Y68087D01*
Y61339D01*
X632129Y56841D01*
X629879Y54592D01*
X623132Y52343D01*
X602889D01*
X711302Y99576D02*
X682062D01*
Y52343D01*
X711302D01*
X682062Y77084D02*
X700056D01*
X746165Y99576D02*
Y52343D01*
Y77084D02*
X741666Y81583D01*
X737168Y83832D01*
X730420D01*
X725922Y81583D01*
X721423Y77084D01*
X719174Y70336D01*
Y65838D01*
X721423Y59090D01*
X725922Y54592D01*
X730420Y52343D01*
X737168D01*
X741666Y54592D01*
X746165Y59090D01*
X785751Y83832D02*
Y47844D01*
X783502Y41096D01*
X781253Y38847D01*
X776755Y36598D01*
X770007D01*
X765508Y38847D01*
X785751Y77084D02*
X781253Y81583D01*
X776755Y83832D01*
X770007D01*
X765508Y81583D01*
X761010Y77084D01*
X758761Y70336D01*
Y65838D01*
X761010Y59090D01*
X765508Y54592D01*
X770007Y52343D01*
X776755D01*
X781253Y54592D01*
X785751Y59090D01*
X798347Y70336D02*
X825338D01*
Y74835D01*
X823089Y79333D01*
X820840Y81583D01*
X816341Y83832D01*
X809593D01*
X805095Y81583D01*
X800596Y77084D01*
X798347Y70336D01*
Y65838D01*
X800596Y59090D01*
X805095Y54592D01*
X809593Y52343D01*
X816341D01*
X820840Y54592D01*
X825338Y59090D01*
%TF.MD5,b895d88c5fc598f7120a86f572ccf506*%
M02*
